<svg width="157" height="39" viewBox="0 0 157 39" fill="none" xmlns="http://www.w3.org/2000/svg">
<g clip-path="url(#clip0_1096_1976)">
<path d="M39.5872 39C39.3833 38.8192 39.2162 38.6896 39.0663 38.5405C35.3803 34.8744 31.6747 31.2401 28.0305 27.5422C25.4388 24.9791 23.8276 21.5968 23.4747 17.9786C22.9832 13.1662 24.2905 8.88178 27.6177 5.34765C32.1834 0.493734 37.8376 -1.10469 44.2168 0.750362C50.4903 2.57608 54.3262 6.92163 55.577 13.3055C56.5181 18.1106 55.287 22.4928 52.2498 26.3544C51.9079 26.7835 51.5403 27.1915 51.1489 27.5765C47.5956 31.1187 44.0374 34.6561 40.4743 38.1886C40.204 38.4623 39.9042 38.7116 39.5872 39ZM49.0749 14.0852C48.9635 14.1611 48.856 14.2427 48.753 14.3296C48.0469 14.9814 47.345 15.6331 46.6471 16.2849C44.6321 18.1766 42.5975 20.0463 40.6119 21.9673C39.57 22.9767 38.0072 22.9449 37.1152 21.8916C36.8695 21.5934 36.5721 21.327 36.2994 21.0459C35.1772 19.9053 34.0534 18.7566 32.9279 17.5998C32.6826 17.3718 32.4932 17.0908 32.3743 16.7785C32.2554 16.4662 32.2103 16.1309 32.2423 15.7985C32.2803 15.3681 32.4417 14.9577 32.7074 14.6159C32.973 14.2741 33.3317 14.0154 33.7409 13.8705C34.1501 13.7256 34.5925 13.7005 35.0155 13.7984C35.4386 13.8962 35.8245 14.1129 36.1274 14.4225C36.5574 14.8502 36.9776 15.2901 37.4076 15.7203C37.9163 16.2311 38.4299 16.737 38.941 17.2405C39.5578 16.8152 46.5218 10.2407 46.7479 9.87651C43.8753 6.65523 38.334 5.5334 33.9698 8.5836C31.9421 10.0065 30.5306 12.1396 30.0186 14.5548C29.5066 16.9699 29.932 19.4883 31.2095 21.6043C32.487 23.7204 34.5219 25.2776 36.9058 25.9632C39.2897 26.6489 41.8462 26.4124 44.062 25.301C48.9791 22.8154 50.2176 17.4458 49.0749 14.0852ZM52.1073 24.1254C52.1982 23.9983 52.2498 23.9152 52.3112 23.8395C54.3729 21.305 55.4443 18.4625 55.1273 15.1533C54.7292 11.013 52.67 7.89682 49.1953 5.66049C49.0295 5.55522 48.8562 5.4621 48.6768 5.38187C48.4901 5.29878 48.3795 5.38187 48.3353 5.62628C50.4223 6.76687 52.1404 8.47398 53.2892 10.5486C54.4593 12.6523 54.9363 15.068 54.653 17.4556C54.4073 19.8776 53.3015 21.9453 51.7509 23.8101L52.1073 24.1254ZM40.4006 36.2407C40.5057 36.0707 40.6214 35.9074 40.7471 35.7519C42.8506 33.5131 44.9557 31.276 47.0624 29.0405C47.1287 28.9696 47.2 28.9011 47.2614 28.8254C47.4212 28.6323 47.3745 28.4808 47.141 28.3146L39.9829 35.7568L40.4006 36.2407ZM47.3204 13.3349L39.5848 20.3591L39.9608 20.7453C40.2433 20.5009 40.435 20.3273 40.6193 20.1563L46.2957 14.882C46.6397 14.5618 46.9813 14.2392 47.3302 13.9239C47.5145 13.7577 47.6005 13.5939 47.3204 13.3349ZM35.0683 15.0188C36.0512 16.0282 36.9825 17.0107 37.9384 17.981C37.9998 18.0446 38.1669 18.0055 38.2824 18.0128C38.2701 17.8931 38.3021 17.7318 38.2357 17.6633C37.2946 16.7028 36.3436 15.7545 35.3902 14.8062C35.3705 14.7842 35.3189 14.794 35.2476 14.7866L35.0683 15.0188ZM48.8832 11.9857C48.1731 12.4379 48.1461 12.5088 48.4139 12.8509C49.0872 12.3695 49.1019 12.3426 48.8882 11.9857H48.8832ZM48.1805 27.7769C48.4262 27.5618 48.7235 27.4029 48.7702 27.0436C48.7702 26.985 48.6719 26.9092 48.6203 26.8432C47.9372 27.3736 47.9274 27.4054 48.1854 27.7769H48.1805ZM39.2457 20.7233C39.113 20.8259 39 20.9017 38.9115 20.9897C38.823 21.0777 38.7247 21.2341 38.8525 21.3881C38.8742 21.4211 38.9035 21.4483 38.938 21.4676C38.9725 21.4869 39.0112 21.4976 39.0508 21.4988C39.0904 21.5 39.1297 21.4917 39.1653 21.4745C39.2009 21.4574 39.2319 21.4319 39.2555 21.4003C39.3513 21.3147 39.4349 21.2121 39.5455 21.0923L39.2457 20.7233ZM39.5455 36.1698C39.4181 36.3023 39.3045 36.4472 39.2064 36.6024C39.1881 36.6515 39.1821 36.7044 39.189 36.7563C39.1958 36.8083 39.2153 36.8578 39.2457 36.9006C39.2869 36.9343 39.3361 36.9569 39.3885 36.9663C39.441 36.9757 39.495 36.9716 39.5455 36.9543C39.6868 36.846 39.8147 36.7213 39.9264 36.5828L39.5455 36.1698ZM50.6623 25.0077C50.1168 25.3939 50.1168 25.3939 50.4166 25.7116C50.8737 25.389 50.8737 25.389 50.6623 25.0077ZM47.0599 4.84418L47.0231 4.98349C47.3499 5.29144 47.3499 5.29144 47.6521 4.94438L47.0599 4.84418ZM34.5891 13.9777C34.4862 14.0996 34.3934 14.2296 34.3114 14.3663C34.3114 14.3858 34.476 14.5373 34.4932 14.5251C34.6003 14.4578 34.6909 14.3676 34.7586 14.2612C34.7783 14.2245 34.68 14.1219 34.5891 13.9777Z" fill="#A00651"/>
<path d="M101.836 27.4053C101.836 27.178 101.858 26.9507 101.858 26.7259C101.858 21.74 101.858 16.7565 101.858 11.7706C101.849 11.2241 101.906 10.6784 102.027 10.1453C102.31 8.99662 103.173 8.37338 104.35 8.37582C105.527 8.37827 106.404 9.00394 106.699 10.1258C106.81 10.5611 106.865 11.0087 106.863 11.4578C106.873 18.5928 106.873 25.7279 106.863 32.8629C106.864 33.3895 106.799 33.9141 106.669 34.4247C106.372 35.571 105.586 36.2113 104.406 36.336C103.177 36.4655 102.072 36.1869 101.253 35.2386C100.591 34.4634 99.9785 33.6471 99.4202 32.7945C96.1864 27.895 92.9641 22.9865 89.7532 18.069C89.6349 17.8671 89.4708 17.6955 89.274 17.568C89.274 17.7855 89.2519 18.0054 89.2519 18.223C89.2519 23.1502 89.2519 28.0766 89.2519 33.0023C89.2563 33.4508 89.2159 33.8986 89.1315 34.3392C89.0225 34.9016 88.7208 35.409 88.2779 35.775C87.8349 36.141 87.2781 36.3429 86.7022 36.3464C86.1264 36.3499 85.5671 36.1546 85.1198 35.794C84.6724 35.4333 84.3646 34.9295 84.2488 34.3685C84.1703 34.0054 84.1308 33.6351 84.1309 33.2638C84.1309 26.2281 84.1309 19.1908 84.1309 12.1519C84.1312 11.7224 84.1698 11.2939 84.2463 10.8712C84.47 9.64918 85.2293 8.88418 86.3867 8.52246C87.544 8.16074 88.6523 8.36604 89.5345 9.25568C89.8556 9.59898 90.1428 9.97219 90.3921 10.3702C94.0633 15.897 97.7304 21.4271 101.393 26.9605C101.499 27.1169 101.612 27.266 101.72 27.4176L101.836 27.4053ZM89.3871 11.9637C89.5443 12.2081 89.6623 12.4159 89.7876 12.6114C91.2227 14.8062 92.6577 17.0018 94.0928 19.1982C96.4846 22.8496 98.8772 26.5002 101.271 30.15C101.39 30.3515 101.534 30.5379 101.698 30.7048C101.755 30.7334 101.818 30.7483 101.882 30.7483C101.946 30.7483 102.01 30.7334 102.067 30.7048C102.133 30.6731 102.177 30.4946 102.155 30.4018C102.109 30.2535 102.039 30.1139 101.946 29.9887C98.0147 24.0203 94.083 18.0527 90.1513 12.0859C90.0456 11.9246 89.9252 11.7755 89.79 11.5971L89.3871 11.9637ZM105.976 31.7093C106.112 31.1863 106.112 13.1149 105.976 12.5039H105.347V31.5676L105.976 31.7093ZM87.9962 19.4572C87.9839 19.6723 87.9692 19.8067 87.9692 19.946C87.9692 24.7674 87.9626 29.5903 87.9495 34.4149C87.9495 34.5127 87.9495 34.6105 87.9495 34.7082C87.9667 34.9013 88.0503 35.0626 88.2591 35.0724C88.468 35.0822 88.5712 34.9257 88.5909 34.7327C88.6044 34.5766 88.6093 34.42 88.6056 34.2634C88.6056 29.5789 88.5999 24.8928 88.5884 20.2051C88.5884 20.0291 88.5884 19.8532 88.5687 19.6796C88.5508 19.6161 88.5244 19.5553 88.4901 19.4988L87.9962 19.4572ZM105.389 32.357C105.389 32.9534 105.372 33.4886 105.389 34.0239C105.41 34.0917 105.448 34.1533 105.498 34.2035C105.549 34.2537 105.611 34.2911 105.679 34.3123C105.883 34.3612 106.011 34.1974 106.016 34.0068C106.033 33.518 106.016 33.0145 106.016 32.489L105.389 32.357ZM88.5638 18.8878C88.5638 18.3158 88.5638 17.7782 88.5638 17.2429C88.5649 17.1853 88.5477 17.1289 88.5147 17.0816C88.4533 17.0132 88.3697 16.9276 88.2935 16.9252C88.2478 16.9314 88.2039 16.9471 88.1646 16.971C88.1253 16.995 88.0914 17.0268 88.065 17.0645C88.0155 17.147 87.9916 17.2422 87.9962 17.3382C87.9962 17.8026 87.9962 18.2645 88.0109 18.7264C88.0109 18.7582 88.0503 18.79 88.0945 18.8584L88.5638 18.8878ZM106.011 11.7266C106.011 11.2378 106.033 10.8101 106.011 10.3897C106.011 10.2846 105.819 10.1918 105.716 10.0916C105.618 10.1942 105.446 10.2871 105.436 10.3946C105.404 10.8297 105.436 11.2696 105.436 11.7266H106.011ZM88.9251 11.2378C89.3404 10.8883 89.3404 10.8883 89.0455 10.4557C88.7506 10.0231 88.7359 9.99624 88.3083 10.226L88.9251 11.2378Z" fill="white"/>
<path d="M5.50919 23.815V31.5603H6.22426C10.174 31.5603 14.1237 31.5603 18.0734 31.5603C18.5237 31.553 18.9732 31.599 19.4126 31.6972C19.8579 31.8195 20.2505 32.0836 20.5302 32.4492C20.81 32.8147 20.9615 33.2614 20.9615 33.7208C20.9615 34.1803 20.81 34.627 20.5302 34.9925C20.2505 35.3581 19.8579 35.6222 19.4126 35.7445C19.0504 35.8305 18.6793 35.8739 18.3068 35.8741C13.3169 35.8741 8.32525 35.8741 3.332 35.8741C2.9001 35.8733 2.46944 35.8282 2.04683 35.7397C1.57601 35.6665 1.14007 35.4484 0.800252 35.1161C0.460437 34.7838 0.23382 34.354 0.152239 33.887C0.0641132 33.4856 0.0188149 33.0759 0.0170898 32.665C0.0170898 25.7874 0.0170898 18.9082 0.0170898 12.0273C0.0255967 11.54 0.0949388 11.0556 0.22351 10.5853C0.312194 10.2105 0.50433 9.86779 0.77828 9.59575C1.05223 9.32371 1.39711 9.13315 1.77407 9.04554C2.24551 8.9129 2.73168 8.83902 3.22143 8.82557C8.15407 8.81091 13.0867 8.81091 18.0193 8.82557C18.4307 8.83019 18.8387 8.89948 19.2283 9.03087C20.0663 9.3095 20.516 10.0085 20.5086 10.9324C20.5012 11.8562 20.0417 12.565 19.1989 12.8143C18.7268 12.9442 18.2388 13.0076 17.749 13.0025C15.1148 13.022 12.483 13.0025 9.84879 13.0025H5.51163V19.6675C5.75736 19.6675 5.98344 19.6968 6.21197 19.6968C9.66941 19.6968 13.1293 19.6968 16.5867 19.6968C17.0572 19.6886 17.5272 19.7337 17.9874 19.8312C18.9089 20.0512 19.4249 20.7722 19.4249 21.7278C19.4249 22.6834 18.904 23.4215 18.0095 23.6488C17.5889 23.7447 17.1583 23.7907 16.7268 23.7857C13.2497 23.7857 9.77262 23.7857 6.29307 23.7857L5.50919 23.815ZM15.2156 32.5379C15.1164 32.52 15.0163 32.5078 14.9158 32.5013L5.42809 32.6186C5.33027 32.6087 5.23144 32.6195 5.13813 32.6503C5.05704 32.6943 5.00543 32.797 4.93171 32.8948C5.54112 33.1269 14.1368 33.2687 15.2156 33.0756V32.5379ZM4.94155 20.7502L4.95629 20.9261C5.03076 20.9785 5.11395 21.0174 5.20202 21.041C8.33509 21.2537 11.4706 21.1119 14.6283 21.195V20.5449C14.4145 20.5449 14.2425 20.518 14.068 20.518C12.0456 20.518 10.0233 20.518 8.00335 20.5473C7.13837 20.5473 6.28324 20.606 5.41335 20.6475C5.25348 20.6686 5.09566 20.7029 4.94155 20.7502ZM11.6451 10.2602L11.6156 9.79831C11.5787 9.77971 11.54 9.76497 11.5001 9.75432L5.3814 9.81542C5.28802 9.81542 5.15287 9.83008 5.11355 9.88874C5.09044 9.9342 5.07841 9.98444 5.07841 10.0354C5.07841 10.0863 5.09044 10.1366 5.11355 10.182C5.15287 10.2382 5.29048 10.2529 5.38386 10.2529C7.40377 10.2822 9.42367 10.3083 11.4436 10.3311C11.5129 10.3142 11.5804 10.2904 11.6451 10.2602ZM15.331 21.1559H18.6361C18.6754 21.1559 18.7271 21.1559 18.7492 21.1339C18.8376 21.0435 18.9949 20.9433 18.9802 20.8504C18.9642 20.7882 18.9336 20.7308 18.8909 20.6827C18.8482 20.6347 18.7945 20.5975 18.7344 20.5742C18.5649 20.5282 18.389 20.5092 18.2135 20.518C17.6655 20.518 17.12 20.518 16.572 20.518H15.3212L15.331 21.1559ZM15.5915 9.75676H12.0776V10.314H15.6185L15.5915 9.75676ZM16.1862 10.3482C17.2625 10.3482 18.2749 10.3482 19.2849 10.3482C19.3626 10.3521 19.4397 10.3325 19.506 10.292C19.5748 10.2358 19.6657 10.138 19.6584 10.0672C19.6421 9.95754 19.5862 9.85759 19.5011 9.78609C19.4171 9.73765 19.3201 9.7163 19.2234 9.72499C18.2667 9.72499 17.3108 9.72906 16.3557 9.73721C16.3041 9.73721 16.2525 9.7812 16.1862 9.81297V10.3482ZM18.4543 32.5184H15.997L16.0486 33.0854H18.5231L18.4543 32.5184ZM19.1055 33.1221C19.2835 33.1308 19.4618 33.1168 19.6363 33.0805C19.6917 33.0525 19.7402 33.0126 19.778 32.9635C19.8159 32.9144 19.8422 32.8575 19.855 32.797C19.8673 32.7237 19.7468 32.5721 19.6633 32.5526C19.4512 32.5193 19.2366 32.5038 19.0219 32.5061C19.044 32.7506 19.0686 32.9143 19.0956 33.1221H19.1055Z" fill="white"/>
<path d="M63.2413 13.022V19.7164H63.9588C67.4187 19.7164 70.8786 19.7164 74.3385 19.7164C74.7899 19.7082 75.2408 19.7509 75.6826 19.8434C76.6484 20.0683 77.157 20.7624 77.1423 21.7694C77.1275 22.7763 76.6238 23.4607 75.6679 23.688C75.264 23.7726 74.8519 23.812 74.4392 23.8053C70.9613 23.8053 67.4826 23.8053 64.003 23.8053H63.3273C63.1946 24.2745 63.1528 30.5753 63.2708 31.5261C63.4821 31.5261 63.7106 31.5554 63.9367 31.5554C67.888 31.5554 71.8394 31.5554 75.7907 31.5554C76.2609 31.546 76.7304 31.5936 77.189 31.6972C78.1719 31.9416 78.6879 32.7041 78.6781 33.7526C78.6993 34.2068 78.5593 34.6539 78.2826 35.0158C78.0059 35.3777 77.6101 35.6313 77.1644 35.7323C76.8225 35.8202 76.4707 35.8645 76.1176 35.8643C71.085 35.8741 66.0524 35.8741 61.0199 35.8643C60.647 35.8599 60.2753 35.8223 59.9092 35.7519C58.7125 35.5295 58.0391 34.8525 57.8327 33.6573C57.7625 33.2537 57.7264 32.8449 57.7246 32.4353C57.7246 25.7092 57.7246 18.9831 57.7246 12.2571C57.7306 11.6917 57.8074 11.1293 57.9531 10.5829C58.0406 10.2078 58.2317 9.86447 58.5047 9.59157C58.7778 9.31866 59.1221 9.12702 59.4988 9.03822C59.9508 8.90545 60.4184 8.83231 60.8896 8.82069C65.8436 8.80277 70.7975 8.80277 75.7514 8.82069C76.1829 8.82774 76.6103 8.90452 77.0169 9.048C77.8082 9.32418 78.2161 9.98896 78.2259 10.8737C78.2259 11.8025 77.8377 12.4917 77.0268 12.7679C76.5613 12.9168 76.0757 12.9942 75.5868 12.9976C74.0141 13.0245 72.4414 12.9976 70.8687 12.9976H63.2511L63.2413 13.022ZM71.7067 33.5522C71.6821 33.2467 71.6625 33.0243 71.6453 32.7995C71.5281 32.7797 71.41 32.7658 71.2914 32.7579C69.0946 32.7579 66.8953 32.7579 64.6984 32.7775C64.0129 32.7775 63.3248 32.8215 62.6392 32.8459C62.4254 32.8459 62.2338 32.9241 62.2289 33.1685C62.2239 33.4129 62.4205 33.4789 62.6343 33.4887C63.0447 33.5107 63.4551 33.5498 63.863 33.5522C66.2564 33.5701 68.6498 33.5807 71.0432 33.584C71.2398 33.5767 71.4364 33.5571 71.7067 33.5449V33.5522ZM71.0309 9.82032H70.4092C67.8569 9.83498 65.3046 9.85128 62.7523 9.8692C62.3394 9.8692 61.9266 9.90341 61.5236 9.94252C61.4066 9.97209 61.2948 10.0191 61.1919 10.0818C61.3221 10.4142 61.5678 10.3409 61.7669 10.3434C64.6944 10.3841 67.6202 10.4207 70.5444 10.4533C70.6771 10.4533 70.8098 10.4313 70.9843 10.4167C70.9941 10.2211 71.0088 10.0525 71.0309 9.8081V9.82032ZM70.4092 20.6598C70.3194 20.6397 70.2282 20.6259 70.1365 20.6182C67.5678 20.6345 65.0007 20.6549 62.4353 20.6793C62.3186 20.6694 62.2011 20.6853 62.0912 20.7258C62.0003 20.7698 61.8848 20.8846 61.8898 20.9702C61.9061 21.0214 61.9351 21.0678 61.9742 21.1049C62.0133 21.1421 62.0611 21.1689 62.1134 21.1828C62.4038 21.2265 62.6969 21.2494 62.9906 21.2512C65.2841 21.2708 67.5776 21.2854 69.8711 21.2952C70.0431 21.2952 70.2126 21.2732 70.4141 21.2586L70.4092 20.6598ZM71.1268 21.2268C71.2195 21.252 71.314 21.2708 71.4094 21.283C72.8231 21.283 74.2377 21.283 75.6531 21.283C75.77 21.2903 75.8868 21.2675 75.9923 21.217C76.0404 21.1886 76.0816 21.15 76.1131 21.104C76.1445 21.0579 76.1653 21.0056 76.1741 20.9506C76.1622 20.8965 76.1392 20.8453 76.1067 20.8004C76.0742 20.7554 76.0327 20.7175 75.9849 20.6891C75.8983 20.6429 75.8002 20.6226 75.7023 20.6304C74.2279 20.6304 72.7535 20.6304 71.2791 20.6304C71.2275 20.6304 71.1784 20.6818 71.1219 20.7086L71.1268 21.2268ZM72.2301 33.5351C73.2646 33.6475 75.2673 33.606 75.7072 33.474V32.8043H72.1736C72.1982 33.0585 72.2129 33.2712 72.2301 33.5278V33.5351ZM71.7215 10.4264H74.54C74.5252 10.2187 74.5129 10.0403 74.4982 9.84721H71.7485L71.7215 10.4264ZM75.1936 10.4631C75.7342 10.4631 76.2036 10.4631 76.668 10.4631C76.7127 10.4672 76.7577 10.4619 76.8003 10.4477C76.8428 10.4334 76.8819 10.4105 76.9149 10.3804C76.948 10.3502 76.9744 10.3135 76.9924 10.2726C77.0104 10.2317 77.0196 10.1876 77.0194 10.1429C77.0229 10.0985 77.0165 10.0539 77.0007 10.0122C76.9849 9.97048 76.96 9.93276 76.9279 9.90172C76.8957 9.87068 76.8571 9.84707 76.8147 9.83258C76.7724 9.81809 76.7273 9.81307 76.6827 9.81788C76.1913 9.81788 75.6802 9.81788 75.1371 9.81788L75.1936 10.4631ZM76.3019 33.562C76.5896 33.5682 76.8773 33.5503 77.1619 33.5082C77.2294 33.4788 77.2889 33.4341 77.3359 33.3776C77.3828 33.3212 77.4158 33.2546 77.4322 33.1832C77.4409 33.1394 77.4394 33.0942 77.4279 33.0511C77.4163 33.008 77.3951 32.9681 77.3657 32.9344C77.3363 32.9007 77.2996 32.8741 77.2583 32.8567C77.217 32.8392 77.1723 32.8313 77.1275 32.8337C76.8474 32.8141 76.5648 32.8337 76.2576 32.8337C76.2724 33.0781 76.2847 33.2712 76.3019 33.5547V33.562Z" fill="white"/>
<path d="M146.055 19.2739C146.222 19.0295 146.333 18.8609 146.436 18.6947C148.269 15.7618 150.104 12.8249 151.941 9.88382C152.196 9.46681 152.49 9.07482 152.82 8.71311C153.184 8.3366 153.658 8.08435 154.174 7.99257C154.691 7.90079 155.223 7.97422 155.695 8.2023C156.185 8.42065 156.578 8.80854 156.801 9.2937C157.024 9.77886 157.063 10.3282 156.909 10.8395C156.739 11.4005 156.491 11.9352 156.172 12.4281C155.381 13.7112 154.543 14.9626 153.715 16.2237C152.14 18.632 150.561 21.0369 148.977 23.4386C148.77 23.7453 148.665 24.1083 148.675 24.4774C148.687 27.0192 148.692 29.5586 148.675 32.1004C148.677 32.7045 148.607 33.3067 148.466 33.8943C148.146 35.1164 147.163 35.7909 145.878 35.7763C145.302 35.7997 144.736 35.6194 144.28 35.2674C143.824 34.9153 143.509 34.4142 143.389 33.8528C143.28 33.4179 143.225 32.9714 143.224 32.5232C143.21 29.8445 143.21 27.1666 143.224 24.4896C143.232 24.1206 143.124 23.7584 142.915 23.4533C140.862 20.3053 138.814 17.1533 136.772 13.9972C136.349 13.3397 135.956 12.6627 135.572 11.9808C135.401 11.6739 135.261 11.3505 135.155 11.0154C135.041 10.7008 134.999 10.365 135.032 10.0324C135.065 9.69975 135.172 9.37856 135.345 9.09204C135.518 8.80553 135.753 8.56085 136.033 8.3757C136.313 8.19054 136.631 8.06954 136.963 8.02144C138.027 7.84547 138.959 8.07032 139.588 9.04062C140.025 9.71518 140.492 10.3677 140.917 11.0496C142.509 13.6061 144.096 16.1667 145.677 18.7314C145.79 18.8951 145.893 19.0491 146.055 19.2739ZM154.816 11.6973L149.714 19.2348L150.206 19.7432L155.231 12.1739L154.816 11.6973ZM147.994 32.2837C147.994 31.9929 147.994 31.7827 147.994 31.57C147.972 29.693 147.952 27.816 147.925 25.9487C147.925 25.3817 147.908 24.8146 147.874 24.2501C147.874 24.057 147.915 23.7344 147.628 23.749C147.34 23.7637 147.412 24.0741 147.409 24.2721C147.367 26.7552 147.329 29.2376 147.296 31.7191C147.296 31.8853 147.326 32.054 147.343 32.2446L147.994 32.2837ZM147.311 32.9656C147.289 33.287 147.289 33.6096 147.311 33.931C147.35 34.2048 147.741 34.3221 147.832 34.107C147.946 33.8225 147.988 33.5145 147.955 33.21C147.925 32.9021 147.613 32.9705 147.311 32.9607V32.9656ZM149.316 19.8727C149.154 20.1171 149.041 20.2638 148.938 20.4251C148.834 20.5864 148.763 20.8039 148.965 20.9457C149.21 21.1168 149.368 20.9457 149.496 20.7624C149.582 20.6377 149.645 20.4984 149.726 20.3518C149.596 20.1953 149.486 20.0731 149.316 19.8678V19.8727ZM155.634 11.5189C155.806 11.2745 155.965 11.0217 156.111 10.7612C156.126 10.7106 156.128 10.6569 156.117 10.6053C156.105 10.5536 156.081 10.5055 156.047 10.4655C156.002 10.4367 155.95 10.42 155.897 10.417C155.843 10.414 155.79 10.4248 155.742 10.4484C155.582 10.5846 155.458 10.7586 155.383 10.9543C155.351 11.0668 155.504 11.2354 155.634 11.5189Z" fill="white"/>
<path d="M120.091 13.3349H119.383C117.663 13.3349 115.965 13.3495 114.255 13.3349C113.746 13.334 113.238 13.2674 112.746 13.1369C111.81 12.8754 111.272 12.0957 111.272 11.1108C111.245 10.6666 111.366 10.2259 111.616 9.85729C111.867 9.48866 112.233 9.21273 112.658 9.0724C113.084 8.92762 113.531 8.85091 113.982 8.8451C119.88 8.83044 125.777 8.83044 131.675 8.8451C132.091 8.84831 132.504 8.90835 132.904 9.02352C133.354 9.14374 133.751 9.41243 134.029 9.78574C134.306 10.1591 134.448 10.615 134.432 11.079C134.456 11.5435 134.319 12.0022 134.044 12.3779C133.768 12.7536 133.37 13.0233 132.918 13.1418C132.425 13.2717 131.917 13.3374 131.407 13.3373C129.719 13.3617 128.028 13.3373 126.34 13.3373H125.615C125.615 13.6159 125.595 13.8603 125.595 14.1047C125.595 20.2809 125.595 26.4571 125.595 32.6308C125.599 33.2553 125.528 33.878 125.384 34.4858C125.258 35.0246 124.949 35.5038 124.51 35.8432C124.07 36.1827 123.527 36.3618 122.971 36.3507C121.691 36.3751 120.708 35.7421 120.361 34.5787C120.21 34.0544 120.134 33.5112 120.138 32.9656C120.123 26.7104 120.123 20.4569 120.138 14.2049L120.091 13.3349ZM124.576 32.6137V31.9049C124.576 29.0722 124.576 26.2395 124.576 23.4069C124.556 20.4202 124.514 17.4311 124.48 14.4445C124.483 14.1715 124.467 13.8987 124.431 13.6281C124.411 13.5757 124.379 13.5293 124.335 13.4937C124.292 13.4581 124.24 13.4344 124.185 13.4253C124.106 13.4253 124.003 13.5426 123.954 13.633C123.924 13.726 123.914 13.8243 123.924 13.9214C123.9 14.6229 123.861 15.3268 123.858 16.0282C123.837 21.3612 123.82 26.6933 123.809 32.0247C123.809 32.2128 123.831 32.4035 123.843 32.6088C124.003 32.6283 124.116 32.6479 124.229 32.6503C124.347 32.6459 124.464 32.6337 124.581 32.6137H124.576ZM112.906 10.0965C113.09 10.2211 113.152 10.314 113.243 10.3164C117.378 10.4875 121.516 10.4313 125.713 10.446C125.669 10.1893 125.64 10.0256 125.605 9.81785H125.006C121.565 9.82925 118.125 9.84392 114.685 9.86184C114.233 9.86184 113.783 9.90094 113.333 9.93516C113.187 9.97189 113.045 10.026 112.911 10.0965H112.906ZM130.085 9.88139C129.2 9.74696 126.618 9.78363 126.424 9.94738C126.453 10.0891 126.485 10.2529 126.519 10.4362C127.748 10.4533 128.905 10.4484 130.085 10.4362V9.88139ZM123.821 33.3982C123.821 33.8088 123.807 34.1314 123.821 34.4638C123.821 34.6814 123.974 34.8622 124.195 34.8158C124.274 34.793 124.346 34.7515 124.406 34.6949C124.465 34.6383 124.51 34.5682 124.536 34.4907C124.567 34.1421 124.573 33.7917 124.554 33.4422L123.821 33.3982ZM130.798 10.4484C131.235 10.4484 131.621 10.4484 132.007 10.4484C132.225 10.4484 132.392 10.3507 132.385 10.1087C132.378 9.86673 132.213 9.81785 132.021 9.81785C131.653 9.81785 131.284 9.81785 130.916 9.83251C130.856 9.84958 130.8 9.87598 130.748 9.91072C130.766 10.0525 130.78 10.2113 130.803 10.4484H130.798Z" fill="white"/>
<path d="M52.1099 24.1254L51.7536 23.8101C53.3041 21.955 54.4025 19.8874 54.6556 17.4555C54.9389 15.068 54.4619 12.6522 53.2918 10.5486C52.1415 8.47753 50.4236 6.77394 48.3379 5.63599C48.3821 5.39158 48.4927 5.29871 48.6795 5.39158C48.8584 5.46629 49.0316 5.55369 49.1979 5.6531C52.6775 7.88942 54.7318 11.0056 55.1299 15.1459C55.4469 18.4454 54.3755 21.2976 52.3138 23.8321C52.2524 23.9152 52.2008 23.9983 52.1099 24.1254Z" fill="white"/>
<path d="M40.4007 36.2407L39.9731 35.7519L47.1411 28.3024C47.3868 28.4686 47.4212 28.6201 47.2615 28.8132C47.2001 28.8889 47.1288 28.9574 47.0625 29.0283C44.9574 31.2638 42.8523 33.5009 40.7472 35.7397C40.6211 35.8992 40.5053 36.0665 40.4007 36.2407Z" fill="white"/>
<path d="M47.3206 13.3348C47.6081 13.5939 47.5148 13.7577 47.3206 13.9239C46.9717 14.2391 46.6301 14.5618 46.2861 14.8819L40.6097 20.1562C40.4254 20.3273 40.2337 20.4911 39.9512 20.7453L39.5752 20.3591L47.3206 13.3348Z" fill="white"/>
<path d="M35.0684 15.0188L35.2477 14.7866C35.319 14.7866 35.3706 14.7866 35.3903 14.8062C36.3437 15.7545 37.2947 16.7028 38.2358 17.6633C38.3022 17.7317 38.2702 17.893 38.2825 18.0128C38.167 18.0128 37.9999 18.0446 37.9385 17.981C36.9875 17.0107 36.0513 16.0282 35.0684 15.0188Z" fill="white"/>
<path d="M48.8881 11.9857C49.1018 12.3426 49.0871 12.3694 48.4187 12.8509C48.141 12.5088 48.1779 12.4379 48.8881 11.9857Z" fill="white"/>
<path d="M48.1852 27.7769C47.9395 27.3981 47.9395 27.3736 48.6251 26.8433C48.6767 26.9093 48.7824 26.985 48.775 27.0437C48.7283 27.4054 48.426 27.5618 48.1852 27.7769Z" fill="white"/>
<path d="M39.2455 20.7233L39.5453 21.0923C39.4347 21.2121 39.3512 21.3147 39.2553 21.4003C39.2317 21.4319 39.2008 21.4573 39.1651 21.4745C39.1295 21.4916 39.0902 21.5 39.0506 21.4988C39.0111 21.4976 38.9724 21.4869 38.9378 21.4676C38.9033 21.4483 38.874 21.421 38.8523 21.3881C38.7246 21.2414 38.786 21.1021 38.9113 20.9897C39.0366 20.8772 39.1128 20.8259 39.2455 20.7233Z" fill="white"/>
<path d="M39.5453 36.1698L39.9262 36.5828C39.8145 36.7213 39.6866 36.846 39.5453 36.9544C39.4949 36.9716 39.4409 36.9757 39.3884 36.9663C39.3359 36.9569 39.2867 36.9343 39.2455 36.9006C39.2151 36.8578 39.1956 36.8083 39.1888 36.7563C39.1819 36.7044 39.1879 36.6515 39.2062 36.6024C39.3043 36.4472 39.4179 36.3023 39.5453 36.1698Z" fill="white"/>
<path d="M50.6625 25.0077C50.8738 25.389 50.8738 25.389 50.4167 25.7116C50.117 25.3939 50.117 25.3939 50.6625 25.0077Z" fill="white"/>
<path d="M47.0598 4.84412L47.652 4.94432C47.3498 5.29138 47.3498 5.29138 47.0229 4.98343L47.0598 4.84412Z" fill="white"/>
<path d="M34.5891 13.9777C34.68 14.1219 34.7783 14.2221 34.7587 14.2612C34.6909 14.3676 34.6003 14.4578 34.4933 14.5251C34.4761 14.5374 34.3016 14.3858 34.3114 14.3663C34.3934 14.2296 34.4863 14.0996 34.5891 13.9777Z" fill="white"/>
<path d="M89.3872 11.9539L89.8025 11.5873C89.9376 11.773 90.0482 11.9221 90.1637 12.0761C94.0954 18.0429 98.0271 24.0105 101.959 29.9789C102.051 30.1041 102.122 30.2437 102.168 30.3919C102.19 30.4848 102.146 30.6632 102.079 30.695C102.022 30.7236 101.959 30.7385 101.895 30.7385C101.831 30.7385 101.768 30.7236 101.711 30.695C101.546 30.528 101.402 30.3417 101.283 30.1402C98.888 26.4904 96.4954 22.8398 94.1052 19.1883C92.6669 16.9936 91.2318 14.798 89.8 12.6016C89.6624 12.406 89.5445 12.2056 89.3872 11.9539Z" fill="white"/>
<path d="M105.976 31.6996L105.347 31.5603V12.4966H105.974C106.111 13.1052 106.111 31.1766 105.976 31.6996Z" fill="white"/>
<path d="M87.9964 19.4475L88.4879 19.4842C88.5222 19.5407 88.5486 19.6015 88.5665 19.665C88.5813 19.8386 88.5862 20.0145 88.5862 20.1905C88.5862 24.8782 88.5919 29.5643 88.6034 34.2488C88.6071 34.4054 88.6022 34.562 88.5886 34.7181C88.569 34.9111 88.4682 35.0651 88.2569 35.0578C88.0456 35.0504 87.9645 34.8867 87.9473 34.6936C87.9473 34.5958 87.9473 34.4981 87.9473 34.4003C87.9473 29.5774 87.9538 24.7544 87.9669 19.9314C87.9694 19.797 87.9841 19.6626 87.9964 19.4475Z" fill="white"/>
<path d="M105.389 32.3473L106.033 32.4793C106.033 33.0047 106.033 33.5009 106.033 33.997C106.033 34.1877 105.9 34.3514 105.696 34.3025C105.628 34.2813 105.566 34.244 105.516 34.1938C105.465 34.1436 105.428 34.0819 105.406 34.0141C105.372 33.4789 105.389 32.9436 105.389 32.3473Z" fill="white"/>
<path d="M88.5638 18.878L88.0945 18.8487C88.0502 18.7802 88.0109 18.7485 88.0109 18.7167C88.0109 18.2548 87.9937 17.7928 87.9962 17.3285C87.9915 17.2325 88.0155 17.1373 88.065 17.0547C88.0913 17.0171 88.1252 16.9853 88.1646 16.9613C88.2039 16.9373 88.2478 16.9217 88.2935 16.9154C88.3697 16.9154 88.4532 17.0034 88.5147 17.0718C88.5477 17.1191 88.5649 17.1756 88.5638 17.2331C88.5662 17.7684 88.5638 18.3061 88.5638 18.878Z" fill="white"/>
<path d="M106.013 11.7169H105.414C105.414 11.2598 105.394 10.8199 105.414 10.3848C105.414 10.2773 105.595 10.1844 105.694 10.0818C105.797 10.182 105.979 10.2749 105.989 10.38C106.035 10.8003 106.013 11.2232 106.013 11.7169Z" fill="white"/>
<path d="M88.9278 11.2256L88.3086 10.2138C88.7386 9.98403 88.7386 9.98403 89.0458 10.4435C89.353 10.903 89.3431 10.8761 88.9278 11.2256Z" fill="white"/>
<path d="M15.2155 32.5379V33.0658C14.1367 33.2589 5.54105 33.1171 4.93164 32.885C5.00536 32.797 5.05697 32.6943 5.13806 32.6405C5.23137 32.6097 5.3302 32.5989 5.42802 32.6088L14.9157 32.4915C15.0164 32.5012 15.1165 32.5167 15.2155 32.5379Z" fill="white"/>
<path d="M4.94189 20.7501C5.09441 20.7032 5.25056 20.6688 5.40877 20.6475C6.27129 20.6059 7.1289 20.5546 7.99879 20.5473C10.0187 20.5253 12.0411 20.5253 14.0634 20.5179C14.2379 20.5179 14.4099 20.535 14.6237 20.5448V21.1949C11.466 21.1119 8.33052 21.2536 5.19745 21.041C5.10937 21.0174 5.02618 20.9785 4.95172 20.9261L4.94189 20.7501Z" fill="white"/>
<path d="M11.6453 10.2602C11.5799 10.2905 11.5115 10.3143 11.4413 10.3311C9.42144 10.3066 7.40153 10.2806 5.38163 10.2529C5.28825 10.2529 5.15064 10.2382 5.11133 10.182C5.08822 10.1365 5.07617 10.0863 5.07617 10.0353C5.07617 9.98439 5.08822 9.93416 5.11133 9.88869C5.15064 9.83004 5.28579 9.81782 5.37917 9.81537L11.4979 9.75427C11.5378 9.76492 11.5765 9.77966 11.6134 9.79826L11.6453 10.2602Z" fill="white"/>
<path d="M15.3213 21.1559V20.5131H16.5721C17.12 20.5131 17.6656 20.5131 18.2135 20.5131C18.3891 20.5043 18.5649 20.5233 18.7345 20.5693C18.7946 20.5926 18.8482 20.6298 18.891 20.6778C18.9337 20.7258 18.9643 20.7833 18.9802 20.8455C18.9802 20.9383 18.8377 21.0385 18.7492 21.129C18.7271 21.151 18.6755 21.151 18.6362 21.151L15.3213 21.1559Z" fill="white"/>
<path d="M15.5818 9.75671L15.6186 10.314H12.0776V9.75671H15.5818Z" fill="white"/>
<path d="M16.1763 10.3482V9.80802C16.2426 9.77624 16.2942 9.73225 16.3458 9.73225C17.3025 9.72247 18.2584 9.7184 19.2135 9.72003C19.3102 9.71135 19.4072 9.73269 19.4912 9.78113C19.5763 9.85263 19.6322 9.95258 19.6485 10.0622C19.6485 10.1331 19.5649 10.2308 19.4961 10.2871C19.4298 10.3275 19.3527 10.3471 19.2749 10.3433C18.265 10.3506 17.2526 10.3482 16.1763 10.3482Z" fill="white"/>
<path d="M18.4447 32.5183L18.5037 33.0853H16.0291L15.9775 32.5183H18.4447Z" fill="white"/>
<path d="M19.0958 33.122C19.0687 32.9143 19.0442 32.7505 19.0122 32.5061C19.2269 32.5037 19.4415 32.5193 19.6536 32.5525C19.7371 32.5721 19.8575 32.7236 19.8452 32.7969C19.8325 32.8575 19.8062 32.9144 19.7683 32.9634C19.7305 33.0125 19.682 33.0525 19.6265 33.0804C19.4521 33.1168 19.2737 33.1308 19.0958 33.122Z" fill="white"/>
<path d="M71.707 33.5448C71.4318 33.557 71.2401 33.5766 71.0485 33.5766C68.655 33.5766 66.2616 33.566 63.8682 33.5448C63.4553 33.5448 63.045 33.5033 62.6395 33.4813C62.4257 33.4813 62.2267 33.4177 62.2341 33.1611C62.2415 32.9045 62.4307 32.8458 62.6444 32.8385C63.33 32.814 64.0181 32.7749 64.7037 32.77C66.9005 32.7578 69.0998 32.7554 71.2966 32.7505C71.4152 32.7584 71.5333 32.7723 71.6505 32.792C71.6628 33.0267 71.6824 33.2393 71.707 33.5448Z" fill="white"/>
<path d="M71.031 9.80811C71.0089 10.0525 70.9941 10.2163 70.9769 10.4045C70.8025 10.4191 70.6698 10.4436 70.5371 10.4411C67.6112 10.4102 64.6854 10.3735 61.7596 10.3311C61.5605 10.3311 61.3148 10.402 61.1846 10.0696C61.2875 10.0068 61.3993 9.95987 61.5163 9.93031C61.9267 9.8912 62.3395 9.85943 62.745 9.85699C65.2956 9.83418 67.848 9.81788 70.4019 9.80811H71.031Z" fill="white"/>
<path d="M70.4092 20.6524V21.2414C70.2077 21.2561 70.0381 21.2805 69.8661 21.2781C67.5726 21.2667 65.2791 21.252 62.9856 21.2341C62.6919 21.2322 62.3988 21.2094 62.1084 21.1657C62.0562 21.1517 62.0083 21.125 61.9692 21.0878C61.9301 21.0506 61.9011 21.0043 61.8848 20.953C61.8848 20.8773 61.9953 20.7624 62.0863 20.7086C62.1961 20.6682 62.3136 20.6523 62.4303 20.6622C64.999 20.6377 67.5661 20.6174 70.1315 20.6011C70.2251 20.6117 70.3179 20.6289 70.4092 20.6524Z" fill="white"/>
<path d="M71.127 21.2195V20.7038C71.1835 20.6769 71.2326 20.6256 71.2842 20.6256C72.7586 20.6256 74.233 20.6256 75.7074 20.6256C75.8053 20.6177 75.9034 20.6381 75.99 20.6842C76.0378 20.7126 76.0793 20.7505 76.1118 20.7955C76.1443 20.8405 76.1673 20.8916 76.1792 20.9457C76.1704 21.0007 76.1496 21.0531 76.1181 21.0991C76.0867 21.1451 76.0455 21.1837 75.9974 21.2121C75.8919 21.2627 75.7751 21.2854 75.6582 21.2781C74.2428 21.2781 72.8282 21.2781 71.4145 21.2781C71.3174 21.2653 71.2213 21.2457 71.127 21.2195Z" fill="white"/>
<path d="M72.2303 33.5278C72.2131 33.2834 72.1984 33.0585 72.1812 32.7946H75.7074V33.4642C75.2675 33.5987 73.2648 33.6402 72.2303 33.5278Z" fill="white"/>
<path d="M71.7217 10.4191L71.7487 9.83984H74.4984C74.5132 10.0329 74.5255 10.2113 74.5402 10.4191H71.7217Z" fill="white"/>
<path d="M75.1937 10.4557L75.1396 9.8056C75.6827 9.8056 76.184 9.8056 76.6853 9.8056C76.7298 9.80079 76.7749 9.80582 76.8173 9.82031C76.8597 9.8348 76.8983 9.8584 76.9304 9.88945C76.9626 9.92049 76.9874 9.9582 77.0033 9.99989C77.0191 10.0416 77.0255 10.0862 77.022 10.1307C77.0221 10.1753 77.0129 10.2195 76.995 10.2604C76.977 10.3013 76.9506 10.338 76.9175 10.3681C76.8844 10.3982 76.8454 10.4212 76.8028 10.4354C76.7603 10.4497 76.7153 10.4549 76.6706 10.4508C76.2037 10.4631 75.7343 10.4557 75.1937 10.4557Z" fill="white"/>
<path d="M76.3021 33.5546C76.2849 33.2686 76.2726 33.0657 76.2578 32.8213C76.565 32.8213 76.8476 32.8067 77.1277 32.8213C77.1725 32.819 77.2172 32.8269 77.2585 32.8443C77.2998 32.8618 77.3365 32.8884 77.3659 32.9221C77.3952 32.9558 77.4165 32.9957 77.428 33.0388C77.4396 33.0819 77.4411 33.1271 77.4324 33.1708C77.416 33.2422 77.383 33.3088 77.336 33.3653C77.2891 33.4217 77.2296 33.4665 77.1621 33.4959C76.8776 33.5396 76.5899 33.5592 76.3021 33.5546Z" fill="white"/>
<path d="M154.815 11.6924L155.236 12.1812L150.193 19.7456L149.702 19.2372L154.815 11.6924Z" fill="white"/>
<path d="M147.994 32.2788L147.333 32.2324C147.316 32.0417 147.284 31.8731 147.286 31.7069C147.321 29.2237 147.358 26.7414 147.399 24.2598C147.399 24.0619 147.326 23.749 147.618 23.7368C147.91 23.7246 147.864 24.0447 147.864 24.2378C147.898 24.8024 147.908 25.3694 147.915 25.9365C147.942 27.8111 147.962 29.6881 147.984 31.5578C147.996 31.7778 147.994 31.988 147.994 32.2788Z" fill="white"/>
<path d="M147.311 32.9607C147.615 32.9607 147.925 32.9021 147.964 33.2052C147.998 33.5096 147.956 33.8177 147.841 34.1021C147.75 34.3172 147.35 34.1999 147.32 33.9261C147.295 33.605 147.291 33.2824 147.311 32.9607Z" fill="white"/>
<path d="M149.316 19.8678C149.486 20.0682 149.596 20.1953 149.726 20.3566C149.645 20.5033 149.582 20.6426 149.496 20.7672C149.368 20.953 149.203 21.1216 148.965 20.9505C148.763 20.8088 148.822 20.6083 148.938 20.4299C149.053 20.2515 149.154 20.1024 149.316 19.8678Z" fill="white"/>
<path d="M155.634 11.5189C155.503 11.2427 155.351 11.0741 155.388 10.9543C155.463 10.7585 155.587 10.5846 155.747 10.4484C155.795 10.4248 155.848 10.414 155.901 10.417C155.955 10.42 156.006 10.4367 156.051 10.4655C156.086 10.5055 156.11 10.5536 156.121 10.6052C156.133 10.6569 156.13 10.7105 156.115 10.7612C155.968 11.0217 155.807 11.2746 155.634 11.5189Z" fill="white"/>
<path d="M124.581 32.6137C124.466 32.6335 124.35 32.6457 124.234 32.6503C124.121 32.6503 124.008 32.6283 123.848 32.6088C123.848 32.4035 123.814 32.2128 123.814 32.0247C123.829 26.6917 123.845 21.3596 123.863 16.0282C123.863 15.3268 123.905 14.6229 123.929 13.9214C123.919 13.8243 123.929 13.726 123.959 13.633C124.008 13.5426 124.111 13.4253 124.19 13.4253C124.245 13.4345 124.297 13.4581 124.34 13.4937C124.384 13.5293 124.416 13.5757 124.436 13.6282C124.472 13.8987 124.488 14.1715 124.485 14.4445C124.519 17.4311 124.561 20.4202 124.581 23.4069C124.598 26.2395 124.581 29.0722 124.581 31.9049V32.6137Z" fill="white"/>
<path d="M112.911 10.0965C113.044 10.0263 113.185 9.9721 113.331 9.93518C113.781 9.90096 114.231 9.86431 114.683 9.86186C118.123 9.84231 121.563 9.82765 125.004 9.81787H125.62C125.655 10.0256 125.684 10.1894 125.728 10.446C121.531 10.4313 117.393 10.4875 113.258 10.3165C113.169 10.314 113.095 10.2211 112.911 10.0965Z" fill="white"/>
<path d="M130.09 9.88135V10.4459C128.911 10.4459 127.741 10.4459 126.525 10.4459C126.49 10.2626 126.458 10.0989 126.429 9.95711C126.623 9.78359 129.205 9.74692 130.09 9.88135Z" fill="white"/>
<path d="M123.826 33.3982L124.563 33.4422C124.582 33.7917 124.577 34.142 124.546 34.4907C124.52 34.5682 124.475 34.6383 124.415 34.6949C124.356 34.7515 124.284 34.7929 124.205 34.8158C123.983 34.8622 123.841 34.6813 123.831 34.4638C123.811 34.1363 123.826 33.8088 123.826 33.3982Z" fill="white"/>
<path d="M130.803 10.4484C130.78 10.204 130.766 10.0623 130.753 9.9083C130.805 9.87356 130.861 9.84715 130.92 9.83009C131.289 9.83009 131.658 9.81298 132.026 9.81542C132.218 9.81542 132.383 9.8863 132.39 10.1063C132.397 10.3262 132.23 10.4435 132.012 10.446C131.626 10.4533 131.24 10.4484 130.803 10.4484Z" fill="white"/>
</g>
<defs>
<clipPath id="clip0_1096_1976">
<rect width="157" height="39" fill="white"/>
</clipPath>
</defs>
</svg>
