<svg width="33" height="39" viewBox="0 0 33 39" fill="none" xmlns="http://www.w3.org/2000/svg">
<path d="M16.5872 39C16.3833 38.8192 16.2162 38.6896 16.0663 38.5405C12.3803 34.8744 8.6747 31.2401 5.03051 27.5422C2.4388 24.9791 0.827569 21.5968 0.474664 17.9786C-0.0167976 13.1662 1.29049 8.88178 4.61769 5.34765C9.18337 0.493734 14.8376 -1.10469 21.2168 0.750362C27.4903 2.57608 31.3262 6.92163 32.577 13.3055C33.5181 18.1106 32.287 22.4928 29.2498 26.3544C28.9079 26.7835 28.5403 27.1915 28.1489 27.5765C24.5956 31.1187 21.0374 34.6561 17.4743 38.1886C17.204 38.4623 16.9042 38.7116 16.5872 39ZM26.0749 14.0852C25.9635 14.1611 25.856 14.2427 25.753 14.3296C25.0469 14.9814 24.345 15.6331 23.6471 16.2849C21.6321 18.1766 19.5975 20.0463 17.6119 21.9673C16.57 22.9767 15.0072 22.9449 14.1152 21.8916C13.8695 21.5934 13.5721 21.327 13.2994 21.0459C12.1772 19.9053 11.0534 18.7566 9.92793 17.5998C9.68258 17.3718 9.49317 17.0908 9.3743 16.7785C9.25543 16.4662 9.21029 16.1309 9.24235 15.7985C9.2803 15.3681 9.4417 14.9577 9.70735 14.6159C9.973 14.2741 10.3317 14.0154 10.7409 13.8705C11.1501 13.7256 11.5925 13.7005 12.0155 13.7984C12.4386 13.8962 12.8245 14.1129 13.1274 14.4225C13.5574 14.8502 13.9776 15.2901 14.4076 15.7203C14.9163 16.2311 15.4299 16.737 15.941 17.2405C16.5578 16.8152 23.5218 10.2407 23.7479 9.87651C20.8753 6.65523 15.334 5.5334 10.9698 8.5836C8.94213 10.0065 7.5306 12.1396 7.0186 14.5548C6.50661 16.9699 6.93205 19.4883 8.20951 21.6043C9.48697 23.7204 11.5219 25.2776 13.9058 25.9632C16.2897 26.6489 18.8462 26.4124 21.062 25.301C25.9791 22.8154 27.2176 17.4458 26.0749 14.0852ZM29.1073 24.1254C29.1982 23.9983 29.2498 23.9152 29.3112 23.8395C31.3729 21.305 32.4443 18.4625 32.1273 15.1533C31.7292 11.013 29.67 7.89682 26.1953 5.66049C26.0295 5.55522 25.8562 5.4621 25.6768 5.38187C25.4901 5.29878 25.3795 5.38187 25.3353 5.62628C27.4223 6.76687 29.1404 8.47398 30.2892 10.5486C31.4593 12.6523 31.9363 15.068 31.653 17.4556C31.4073 19.8776 30.3015 21.9453 28.7509 23.8101L29.1073 24.1254ZM17.4006 36.2407C17.5057 36.0707 17.6214 35.9074 17.7471 35.7519C19.8506 33.5131 21.9557 31.276 24.0624 29.0405C24.1287 28.9696 24.2 28.9011 24.2614 28.8254C24.4212 28.6323 24.3745 28.4808 24.141 28.3146L16.9829 35.7568L17.4006 36.2407ZM24.3204 13.3349L16.5848 20.3591L16.9608 20.7453C17.2433 20.5009 17.435 20.3273 17.6193 20.1563L23.2957 14.882C23.6397 14.5618 23.9813 14.2392 24.3302 13.9239C24.5145 13.7577 24.6005 13.5939 24.3204 13.3349ZM12.0683 15.0188C13.0512 16.0282 13.9825 17.0107 14.9384 17.981C14.9998 18.0446 15.1669 18.0055 15.2824 18.0128C15.2701 17.8931 15.3021 17.7318 15.2357 17.6633C14.2946 16.7028 13.3436 15.7545 12.3902 14.8062C12.3705 14.7842 12.3189 14.794 12.2476 14.7866L12.0683 15.0188ZM25.8832 11.9857C25.1731 12.4379 25.1461 12.5088 25.4139 12.8509C26.0872 12.3695 26.1019 12.3426 25.8882 11.9857H25.8832ZM25.1805 27.7769C25.4262 27.5618 25.7235 27.4029 25.7702 27.0436C25.7702 26.985 25.6719 26.9092 25.6203 26.8432C24.9372 27.3736 24.9274 27.4054 25.1854 27.7769H25.1805ZM16.2457 20.7233C16.113 20.8259 16 20.9017 15.9115 20.9897C15.823 21.0777 15.7247 21.2341 15.8525 21.3881C15.8742 21.4211 15.9035 21.4483 15.938 21.4676C15.9725 21.4869 16.0112 21.4976 16.0508 21.4988C16.0904 21.5 16.1297 21.4917 16.1653 21.4745C16.2009 21.4574 16.2319 21.4319 16.2555 21.4003C16.3513 21.3147 16.4349 21.2121 16.5455 21.0923L16.2457 20.7233ZM16.5455 36.1698C16.4181 36.3023 16.3045 36.4472 16.2064 36.6024C16.1881 36.6515 16.1821 36.7044 16.189 36.7563C16.1958 36.8083 16.2153 36.8578 16.2457 36.9006C16.2869 36.9343 16.3361 36.9569 16.3885 36.9663C16.441 36.9757 16.495 36.9716 16.5455 36.9543C16.6868 36.846 16.8147 36.7213 16.9264 36.5828L16.5455 36.1698ZM27.6623 25.0077C27.1168 25.3939 27.1168 25.3939 27.4166 25.7116C27.8737 25.389 27.8737 25.389 27.6623 25.0077ZM24.0599 4.84418L24.0231 4.98349C24.3499 5.29144 24.3499 5.29144 24.6521 4.94438L24.0599 4.84418ZM11.5891 13.9777C11.4862 14.0996 11.3934 14.2296 11.3114 14.3663C11.3114 14.3858 11.476 14.5373 11.4932 14.5251C11.6003 14.4578 11.6909 14.3676 11.7586 14.2612C11.7783 14.2245 11.68 14.1219 11.5891 13.9777Z" fill="#A00651"/>
</svg>
