<svg width="255" height="64" viewBox="0 0 255 64" fill="none" xmlns="http://www.w3.org/2000/svg">
<g clip-path="url(#clip0_1066_1765)">
<path d="M64.2976 64C63.9664 63.7032 63.695 63.4906 63.4515 63.246C57.4647 57.2298 51.446 51.2658 45.5271 45.1975C41.3177 40.9913 38.7007 35.4408 38.1275 29.5033C37.3293 21.6061 39.4526 14.5752 44.8566 8.77557C52.2722 0.810168 61.4559 -1.81288 71.817 1.2313C82.0065 4.22735 88.2367 11.3585 90.2682 21.8347C91.7968 29.7199 89.7972 36.9112 84.8641 43.2482C84.3089 43.9523 83.7118 44.622 83.0761 45.2536C77.3049 51.0666 71.5256 56.8715 65.7384 62.6684C65.2994 63.1176 64.8125 63.5267 64.2976 64ZM79.7075 23.1141C79.5265 23.2387 79.352 23.3726 79.1847 23.5152C78.0379 24.5847 76.8978 25.6543 75.7643 26.7238C72.4915 29.8282 69.1868 32.8964 65.9619 36.0489C64.2697 37.7053 61.7313 37.6532 60.2825 35.9245C59.8834 35.4352 59.4005 34.9981 58.9574 34.5368C57.1348 32.6651 55.3095 30.78 53.4815 28.8816C53.083 28.5075 52.7754 28.0464 52.5823 27.5339C52.3893 27.0214 52.3159 26.4712 52.368 25.9257C52.4297 25.2195 52.6918 24.5459 53.1233 23.985C53.5547 23.4242 54.1374 22.9996 54.802 22.7618C55.4665 22.524 56.1851 22.4829 56.8722 22.6435C57.5593 22.804 58.1861 23.1595 58.6781 23.6676C59.3765 24.3695 60.059 25.0914 60.7575 25.7973C61.5836 26.6356 62.4178 27.4658 63.248 28.292C64.2497 27.5942 75.5607 16.8052 75.9279 16.2075C71.2622 10.9213 62.2621 9.08039 55.1738 14.0858C51.8804 16.4209 49.5878 19.9214 48.7562 23.8847C47.9246 27.848 48.6156 31.9807 50.6905 35.4532C52.7653 38.9257 56.0704 41.4811 59.9424 42.6063C63.8144 43.7315 67.9666 43.3433 71.5655 41.5196C79.5519 37.4406 81.5634 28.6289 79.7075 23.1141ZM84.6327 39.5904C84.7803 39.3818 84.8641 39.2455 84.9639 39.1211C88.3125 34.962 90.0527 30.2974 89.5378 24.8668C88.8912 18.0726 85.5466 12.9588 79.9031 9.28895C79.6338 9.11619 79.3524 8.96339 79.061 8.83173C78.7576 8.69536 78.578 8.83173 78.5062 9.23281C81.896 11.1045 84.6865 13.906 86.5524 17.3105C88.4529 20.7626 89.2276 24.727 88.7675 28.645C88.3684 32.6197 86.5724 36.0128 84.0539 39.073L84.6327 39.5904ZM65.6187 59.4718C65.7894 59.1928 65.9773 58.9249 66.1815 58.6697C69.5979 54.9958 73.017 51.3246 76.4388 47.6561C76.5465 47.5398 76.6623 47.4275 76.7621 47.3031C77.0215 46.9863 76.9457 46.7376 76.5665 46.4649L64.9402 58.6777L65.6187 59.4718ZM76.8578 21.8828L64.2936 33.4098L64.9043 34.0435C65.3633 33.6424 65.6746 33.3576 65.9739 33.0769L75.1935 24.4216C75.7523 23.8962 76.3071 23.3668 76.8738 22.8494C77.1732 22.5767 77.3128 22.3079 76.8578 21.8828ZM56.9579 24.6462C58.5543 26.3027 60.067 27.915 61.6195 29.5073C61.7193 29.6116 61.9907 29.5474 62.1783 29.5594C62.1584 29.3629 62.2103 29.0982 62.1025 28.9859C60.5739 27.4097 59.0293 25.8535 57.4807 24.2973C57.4488 24.2612 57.365 24.2772 57.2492 24.2652L56.9579 24.6462ZM79.3962 19.6689C78.2428 20.4108 78.1989 20.5272 78.6339 21.0887C79.7275 20.2985 79.7514 20.2544 79.4042 19.6689H79.3962ZM78.2548 45.5825C78.6539 45.2295 79.1368 44.9688 79.2126 44.3793C79.2126 44.283 79.053 44.1587 78.9692 44.0504C77.8596 44.9207 77.8437 44.9729 78.2627 45.5825H78.2548ZM63.7429 34.0074C63.5273 34.1758 63.3437 34.3002 63.2001 34.4446C63.0564 34.5889 62.8967 34.8456 63.1043 35.0983C63.1394 35.1524 63.1871 35.1972 63.2431 35.2288C63.2992 35.2605 63.3621 35.278 63.4263 35.28C63.4906 35.282 63.5544 35.2683 63.6123 35.2402C63.6702 35.212 63.7204 35.1702 63.7588 35.1184C63.9145 34.978 64.0502 34.8095 64.2298 34.613L63.7429 34.0074ZM64.2298 59.3555C64.0228 59.5729 63.8383 59.8107 63.679 60.0654C63.6493 60.1461 63.6396 60.2328 63.6507 60.318C63.6619 60.4033 63.6935 60.4845 63.7429 60.5547C63.8098 60.61 63.8896 60.6472 63.9749 60.6626C64.0601 60.6781 64.1479 60.6713 64.2298 60.643C64.4593 60.4651 64.667 60.2605 64.8484 60.0333L64.2298 59.3555ZM82.2859 41.0383C81.3998 41.672 81.3998 41.672 81.8867 42.1934C82.6291 41.664 82.6291 41.664 82.2859 41.0383ZM76.4348 7.94936L76.3749 8.17797C76.9058 8.68333 76.9058 8.68333 77.3967 8.1138L76.4348 7.94936ZM56.1796 22.9376C56.0126 23.1378 55.8617 23.351 55.7286 23.5753C55.7286 23.6074 55.996 23.8561 56.0239 23.836C56.1977 23.7255 56.345 23.5776 56.455 23.4029C56.4869 23.3427 56.3273 23.1743 56.1796 22.9376Z" fill="#A00651"/>
<path d="M165.402 44.9728C165.402 44.5998 165.438 44.2268 165.438 43.8579C165.438 35.6759 165.438 27.4979 165.438 19.3159C165.424 18.419 165.516 17.5235 165.714 16.6487C166.173 14.7637 167.574 13.7409 169.485 13.7449C171.397 13.7489 172.822 14.7757 173.301 16.6166C173.482 17.331 173.571 18.0655 173.568 18.8025C173.584 30.5113 173.584 42.2201 173.568 53.9289C173.569 54.793 173.463 55.6539 173.253 56.4918C172.77 58.3729 171.493 59.4237 169.577 59.6282C167.582 59.8408 165.786 59.3836 164.456 57.8274C163.38 56.5554 162.386 55.2157 161.479 53.8166C156.227 45.7763 150.993 37.7214 145.778 29.6517C145.586 29.3204 145.319 29.0388 144.999 28.8295C144.999 29.1864 144.964 29.5474 144.964 29.9043C144.964 37.9901 144.964 46.0745 144.964 54.1575C144.971 54.8935 144.905 55.6284 144.768 56.3514C144.591 57.2744 144.101 58.1071 143.382 58.7077C142.662 59.3083 141.758 59.6397 140.822 59.6454C139.887 59.651 138.979 59.3307 138.252 58.7388C137.526 58.147 137.026 57.3203 136.838 56.3996C136.71 55.8038 136.646 55.1961 136.646 54.5867C136.646 43.041 136.646 31.4926 136.646 19.9416C136.646 19.2368 136.709 18.5335 136.834 17.8399C137.197 15.8345 138.43 14.5792 140.31 13.9856C142.19 13.392 143.99 13.7289 145.423 15.1888C145.944 15.7522 146.411 16.3646 146.815 17.0177C152.778 26.0874 158.734 35.1625 164.684 44.2429C164.856 44.4996 165.039 44.7442 165.215 44.9929L165.402 44.9728ZM145.183 19.6328C145.439 20.0338 145.63 20.3747 145.834 20.6956C148.165 24.2973 150.495 27.9003 152.826 31.5047C156.711 37.4968 160.597 43.4875 164.484 49.477C164.678 49.8077 164.911 50.1134 165.179 50.3874C165.272 50.4343 165.374 50.4587 165.478 50.4587C165.582 50.4587 165.685 50.4343 165.778 50.3874C165.885 50.3353 165.957 50.0425 165.921 49.8901C165.846 49.6468 165.732 49.4177 165.582 49.2122C159.196 39.4179 152.81 29.6249 146.424 19.8333C146.253 19.5686 146.057 19.3239 145.838 19.0311L145.183 19.6328ZM172.128 52.0358C172.347 51.1775 172.347 21.5218 172.128 20.5191H171.106V51.8032L172.128 52.0358ZM142.924 31.9298C142.904 32.2827 142.88 32.5033 142.88 32.732C142.88 40.6439 142.87 48.5585 142.848 56.4758C142.848 56.6362 142.848 56.7966 142.848 56.9571C142.876 57.2739 143.012 57.5386 143.351 57.5547C143.69 57.5707 143.858 57.314 143.89 56.9972C143.912 56.7411 143.92 56.484 143.914 56.2271C143.914 48.5398 143.905 40.8498 143.886 33.1571C143.886 32.8683 143.886 32.5795 143.854 32.2948C143.825 32.1905 143.782 32.0907 143.726 31.998L142.924 31.9298ZM171.174 53.0987C171.174 54.0773 171.146 54.9557 171.174 55.834C171.208 55.9453 171.269 56.0464 171.351 56.1288C171.433 56.2112 171.534 56.2725 171.645 56.3073C171.976 56.3875 172.183 56.1188 172.191 55.806C172.219 55.0038 172.191 54.1776 172.191 53.3153L171.174 53.0987ZM143.846 30.9953C143.846 30.0568 143.846 29.1744 143.846 28.296C143.848 28.2016 143.82 28.1089 143.766 28.0313C143.666 27.919 143.531 27.7786 143.407 27.7746C143.333 27.7849 143.261 27.8106 143.198 27.8499C143.134 27.8892 143.079 27.9415 143.036 28.0032C142.955 28.1387 142.917 28.2949 142.924 28.4524C142.924 29.2145 142.924 29.9725 142.948 30.7306C142.948 30.7827 143.012 30.8349 143.084 30.9472L143.846 30.9953ZM172.183 19.2437C172.183 18.4415 172.219 17.7397 172.183 17.0498C172.183 16.8773 171.872 16.7249 171.704 16.5605C171.545 16.7289 171.265 16.8814 171.249 17.0578C171.198 17.7717 171.249 18.4937 171.249 19.2437H172.183ZM144.433 18.4415C145.107 17.868 145.107 17.868 144.628 17.1581C144.149 16.4482 144.125 16.4041 143.431 16.7811L144.433 18.4415Z" fill="#0E377C"/>
<path d="M8.94861 39.081V51.7912H10.11C16.5252 51.7912 22.9403 51.7912 29.3555 51.7912C30.0868 51.7792 30.817 51.8546 31.5306 52.0158C32.2538 52.2165 32.8915 52.65 33.3459 53.2498C33.8003 53.8497 34.0463 54.5828 34.0463 55.3367C34.0463 56.0906 33.8003 56.8237 33.3459 57.4235C32.8915 58.0234 32.2538 58.4569 31.5306 58.6576C30.9423 58.7986 30.3395 58.8699 29.7346 58.8702C21.6299 58.8702 13.5225 58.8702 5.41241 58.8702C4.71092 58.8689 4.01144 58.795 3.32503 58.6496C2.56032 58.5295 1.85227 58.1716 1.30034 57.6264C0.748407 57.0811 0.380334 56.3757 0.24783 55.6094C0.104696 54.9506 0.0311221 54.2784 0.0283203 53.604C0.0283203 42.3177 0.0283203 31.0287 0.0283203 19.737C0.0421371 18.9373 0.154763 18.1424 0.36359 17.3706C0.50763 16.7556 0.819698 16.1932 1.26465 15.7468C1.7096 15.3003 2.26976 14.9876 2.88202 14.8439C3.64773 14.6262 4.43738 14.505 5.23283 14.4829C13.2444 14.4588 21.256 14.4588 29.2677 14.4829C29.9358 14.4905 30.5985 14.6042 31.2313 14.8198C32.5923 15.277 33.3227 16.4241 33.3107 17.9402C33.2987 19.4563 32.5524 20.6194 31.1834 21.0285C30.4167 21.2417 29.6241 21.3456 28.8286 21.3373C24.5501 21.3694 20.2755 21.3373 15.997 21.3373H8.95258V32.2747C9.35169 32.2747 9.7189 32.3228 10.0901 32.3228C15.7057 32.3228 21.3252 32.3228 26.9408 32.3228C27.705 32.3093 28.4682 32.3833 29.2158 32.5434C30.7125 32.9044 31.5506 34.0876 31.5506 35.6558C31.5506 37.224 30.7045 38.4353 29.2517 38.8083C28.5685 38.9656 27.8692 39.041 27.1683 39.0329C21.5208 39.0329 15.8733 39.0329 10.2218 39.0329L8.94861 39.081ZM24.7137 53.3955C24.5527 53.3661 24.3901 53.3461 24.2268 53.3353L8.81689 53.5278C8.658 53.5115 8.49749 53.5293 8.34594 53.58C8.21423 53.6521 8.1304 53.8206 8.01067 53.981C9.00048 54.3621 22.9616 54.5947 24.7137 54.2778V53.3955ZM8.02665 34.0515L8.05059 34.3403C8.17154 34.4262 8.30666 34.49 8.44971 34.5288C13.5385 34.8777 18.6312 34.6451 23.7598 34.7814V33.7146C23.4126 33.7146 23.1332 33.6705 22.8498 33.6705C19.5651 33.6705 16.2804 33.6705 12.9996 33.7186C11.5947 33.7186 10.2058 33.8148 8.79294 33.883C8.53328 33.9176 8.27696 33.974 8.02665 34.0515ZM18.9146 16.8372L18.8667 16.0792C18.8068 16.0487 18.7439 16.0245 18.6791 16.007L8.74106 16.1073C8.58939 16.1073 8.36987 16.1313 8.30601 16.2276C8.26848 16.3022 8.24893 16.3846 8.24893 16.4682C8.24893 16.5518 8.26848 16.6343 8.30601 16.7089C8.36987 16.8011 8.59339 16.8252 8.74505 16.8252C12.0258 16.8733 15.3065 16.9161 18.5873 16.9535C18.6999 16.9257 18.8095 16.8867 18.9146 16.8372ZM24.9013 34.7173H30.2694C30.3333 34.7173 30.4171 34.7173 30.453 34.6812C30.5967 34.5328 30.8522 34.3683 30.8282 34.2159C30.8024 34.1139 30.7526 34.0196 30.6832 33.9408C30.6138 33.862 30.5267 33.8009 30.4291 33.7627C30.1537 33.6872 29.8681 33.6561 29.583 33.6705C28.6929 33.6705 27.8069 33.6705 26.9169 33.6705H24.8854L24.9013 34.7173ZM25.3244 16.011H19.617V16.9255H25.3683L25.3244 16.011ZM26.2902 16.9816C28.0384 16.9816 29.6827 16.9816 31.3231 16.9816C31.4494 16.988 31.5746 16.9558 31.6823 16.8894C31.7941 16.7971 31.9417 16.6367 31.9298 16.5204C31.9034 16.3405 31.8126 16.1765 31.6743 16.0591C31.5379 15.9796 31.3804 15.9446 31.2233 15.9589C29.6694 15.9589 28.1169 15.9655 26.5656 15.9789C26.4818 15.9789 26.398 16.0511 26.2902 16.1032V16.9816ZM29.9741 53.3634H25.9829L26.0667 54.2939H30.0858L29.9741 53.3634ZM31.0317 54.354C31.3208 54.3684 31.6106 54.3455 31.8939 54.2859C31.9839 54.24 32.0626 54.1744 32.1241 54.0938C32.1856 54.0133 32.2283 53.9199 32.2491 53.8206C32.269 53.7003 32.0735 53.4516 31.9378 53.4195C31.5932 53.3649 31.2448 53.3395 30.8961 53.3433C30.932 53.7444 30.9719 54.0131 31.0158 54.354H31.0317Z" fill="#0E377C"/>
<path d="M102.717 21.3695V32.355H103.882C109.502 32.355 115.122 32.355 120.741 32.355C121.474 32.3417 122.207 32.4117 122.924 32.5636C124.493 32.9325 125.319 34.0716 125.295 35.7241C125.271 37.3765 124.453 38.4995 122.9 38.8725C122.244 39.0114 121.575 39.076 120.905 39.065C115.256 39.065 109.606 39.065 103.954 39.065H102.857C102.641 39.8351 102.573 50.1749 102.765 51.7351C103.108 51.7351 103.479 51.7832 103.847 51.7832C110.264 51.7832 116.682 51.7832 123.1 51.7832C123.864 51.7677 124.626 51.8459 125.371 52.0158C126.967 52.4169 127.806 53.6683 127.79 55.3889C127.824 56.1342 127.597 56.868 127.147 57.4618C126.698 58.0557 126.055 58.4719 125.331 58.6376C124.776 58.7818 124.204 58.8545 123.631 58.8542C115.457 58.8703 107.283 58.8703 99.109 58.8542C98.5034 58.847 97.8996 58.7853 97.305 58.6697C95.3613 58.3047 94.2677 57.1937 93.9324 55.2325C93.8184 54.5701 93.7597 53.8993 93.7568 53.2271C93.7568 42.1894 93.7568 31.1518 93.7568 20.1141C93.7665 19.1864 93.8912 18.2635 94.128 17.3667C94.2701 16.7512 94.5804 16.1878 95.0239 15.74C95.4675 15.2921 96.0266 14.9776 96.6385 14.8319C97.3726 14.614 98.1322 14.494 98.8975 14.4749C106.944 14.4455 114.99 14.4455 123.036 14.4749C123.737 14.4865 124.431 14.6125 125.092 14.848C126.377 15.3012 127.039 16.3921 127.055 17.844C127.055 19.3681 126.425 20.4991 125.107 20.9523C124.351 21.1967 123.563 21.3238 122.769 21.3294C120.214 21.3735 117.66 21.3294 115.106 21.3294H102.733L102.717 21.3695ZM116.467 55.06C116.427 54.5587 116.395 54.1937 116.367 53.8247C116.177 53.7923 115.985 53.7695 115.792 53.7565C112.224 53.7565 108.652 53.7565 105.084 53.7886C103.97 53.7886 102.853 53.8608 101.739 53.9009C101.392 53.9009 101.081 54.0292 101.073 54.4303C101.065 54.8314 101.384 54.9397 101.731 54.9557C102.398 54.9918 103.064 55.056 103.727 55.06C107.614 55.0894 111.502 55.1068 115.389 55.1122C115.708 55.1001 116.028 55.068 116.467 55.048V55.06ZM115.369 16.1153H114.359C110.214 16.1394 106.068 16.1662 101.923 16.1956C101.252 16.1956 100.582 16.2517 99.9272 16.3159C99.7371 16.3644 99.5555 16.4415 99.3884 16.5445C99.5999 17.09 99.999 16.9696 100.322 16.9737C105.077 17.0405 109.829 17.1007 114.579 17.1541C114.794 17.1541 115.01 17.118 115.293 17.094C115.309 16.7731 115.333 16.4964 115.369 16.0953V16.1153ZM114.359 33.9032C114.213 33.8703 114.065 33.8475 113.916 33.835C109.744 33.8617 105.575 33.8951 101.408 33.9352C101.218 33.919 101.028 33.9451 100.849 34.0115C100.701 34.0836 100.514 34.2722 100.522 34.4125C100.548 34.4967 100.596 34.5727 100.659 34.6337C100.723 34.6947 100.8 34.7386 100.885 34.7615C101.357 34.8332 101.833 34.8707 102.31 34.8738C106.035 34.9059 109.76 34.9299 113.485 34.946C113.765 34.946 114.04 34.9099 114.367 34.8858L114.359 33.9032ZM115.525 34.8337C115.675 34.875 115.829 34.9059 115.984 34.9259C118.28 34.9259 120.578 34.9259 122.876 34.9259C123.066 34.9378 123.256 34.9005 123.427 34.8176C123.505 34.771 123.572 34.7077 123.623 34.6321C123.674 34.5566 123.708 34.4706 123.723 34.3804C123.703 34.2916 123.666 34.2077 123.613 34.1339C123.56 34.0601 123.493 33.9979 123.415 33.9513C123.275 33.8755 123.115 33.8421 122.956 33.855C120.562 33.855 118.167 33.855 115.772 33.855C115.688 33.855 115.608 33.9393 115.517 33.9834L115.525 34.8337ZM117.317 55.0319C118.997 55.2164 122.25 55.1482 122.964 54.9317V53.8327H117.225C117.265 54.2498 117.289 54.5988 117.317 55.0199V55.0319ZM116.491 17.11H121.068C121.044 16.7691 121.025 16.4763 121.001 16.1595H116.534L116.491 17.11ZM122.13 17.1702C123.008 17.1702 123.77 17.1702 124.525 17.1702C124.597 17.1769 124.671 17.1683 124.74 17.1449C124.809 17.1215 124.872 17.0839 124.926 17.0344C124.98 16.9849 125.022 16.9247 125.052 16.8576C125.081 16.7905 125.096 16.718 125.096 16.6448C125.101 16.5719 125.091 16.4986 125.065 16.4302C125.039 16.3618 124.999 16.2999 124.947 16.2489C124.895 16.198 124.832 16.1593 124.763 16.1355C124.694 16.1117 124.621 16.1035 124.549 16.1113C123.75 16.1113 122.92 16.1113 122.038 16.1113L122.13 17.1702ZM123.93 55.0761C124.397 55.0863 124.865 55.0568 125.327 54.9878C125.437 54.9395 125.533 54.8661 125.61 54.7735C125.686 54.6808 125.739 54.5716 125.766 54.4544C125.78 54.3826 125.778 54.3085 125.759 54.2377C125.74 54.167 125.706 54.1015 125.658 54.0462C125.61 53.9909 125.551 53.9472 125.484 53.9186C125.417 53.8899 125.344 53.877 125.271 53.8808C124.816 53.8488 124.357 53.8808 123.858 53.8808C123.882 54.2819 123.902 54.5988 123.93 55.064V55.0761Z" fill="#0E377C"/>
<path d="M237.223 31.6291C237.495 31.228 237.674 30.9513 237.842 30.6786C240.819 25.8656 243.799 21.046 246.782 16.2197C247.197 15.5354 247.675 14.8921 248.211 14.2985C248.801 13.6807 249.571 13.2667 250.41 13.1161C251.249 12.9655 252.114 13.086 252.881 13.4603C253.676 13.8186 254.314 14.4551 254.677 15.2513C255.04 16.0475 255.102 16.949 254.852 17.7879C254.576 18.7086 254.173 19.586 253.655 20.3949C252.37 22.5006 251.009 24.5541 249.664 26.6237C247.107 30.5756 244.542 34.5222 241.969 38.4635C241.633 38.9667 241.462 39.5624 241.478 40.1681C241.498 44.3393 241.506 48.5065 241.478 52.6777C241.482 53.669 241.368 54.6573 241.139 55.6216C240.62 57.627 239.023 58.734 236.936 58.7099C236 58.7484 235.08 58.4525 234.34 57.8748C233.6 57.297 233.087 56.4747 232.893 55.5534C232.716 54.8397 232.626 54.107 232.626 53.3715C232.602 48.9757 232.602 44.5813 232.626 40.1881C232.637 39.5826 232.462 38.9883 232.123 38.4875C228.789 33.3217 225.463 28.1491 222.145 22.9698C221.458 21.8909 220.82 20.78 220.197 19.661C219.918 19.1573 219.691 18.6265 219.519 18.0767C219.334 17.5604 219.266 17.0094 219.32 16.4635C219.374 15.9176 219.547 15.3906 219.828 14.9204C220.109 14.4502 220.491 14.0487 220.945 13.7448C221.4 13.441 221.916 13.2424 222.456 13.1635C224.184 12.8747 225.697 13.2437 226.719 14.836C227.429 15.943 228.187 17.0138 228.878 18.1328C231.464 22.3281 234.041 26.5301 236.609 30.7387C236.792 31.0074 236.96 31.2601 237.223 31.6291ZM251.452 19.1957L243.166 31.5649L243.964 32.3992L252.126 19.9778L251.452 19.1957ZM240.372 52.9785C240.372 52.5012 240.372 52.1563 240.372 51.8073C240.336 48.7271 240.305 45.6468 240.261 42.5826C240.261 41.6521 240.233 40.7215 240.177 39.7951C240.177 39.4782 240.245 38.9488 239.778 38.9729C239.311 38.9969 239.426 39.5063 239.423 39.8312C239.353 43.9061 239.292 47.9797 239.239 52.052C239.239 52.3247 239.287 52.6015 239.315 52.9143L240.372 52.9785ZM239.263 54.0975C239.226 54.625 239.226 55.1543 239.263 55.6818C239.327 56.131 239.961 56.3235 240.109 55.9705C240.294 55.5037 240.363 54.9982 240.309 54.4986C240.261 53.9932 239.754 54.1055 239.263 54.0895V54.0975ZM242.52 32.6118C242.256 33.0128 242.073 33.2535 241.905 33.5182C241.737 33.7829 241.622 34.1399 241.949 34.3725C242.348 34.6532 242.603 34.3725 242.811 34.0717C242.951 33.8671 243.054 33.6385 243.186 33.3979C242.975 33.1412 242.795 32.9406 242.52 32.6037V32.6118ZM252.781 18.9029C253.06 18.5019 253.318 18.0869 253.555 17.6596C253.58 17.5764 253.583 17.4884 253.565 17.4036C253.547 17.3188 253.508 17.2399 253.451 17.1743C253.378 17.127 253.294 17.0996 253.208 17.0947C253.121 17.0898 253.034 17.1075 252.957 17.1462C252.696 17.3698 252.496 17.6552 252.374 17.9764C252.322 18.1609 252.569 18.4377 252.781 18.9029Z" fill="#0E377C"/>
<path d="M195.053 21.8829H193.903C191.109 21.8829 188.351 21.907 185.574 21.8829C184.746 21.8814 183.922 21.7722 183.123 21.558C181.602 21.1289 180.728 19.8495 180.728 18.2331C180.684 17.5042 180.881 16.7811 181.288 16.1761C181.695 15.5712 182.29 15.1184 182.979 14.8881C183.672 14.6505 184.398 14.5246 185.131 14.5151C194.709 14.4911 204.288 14.4911 213.867 14.5151C214.542 14.5204 215.214 14.6189 215.863 14.8079C216.595 15.0052 217.239 15.4461 217.69 16.0587C218.141 16.6714 218.372 17.4195 218.345 18.181C218.385 18.9432 218.162 19.6959 217.714 20.3124C217.266 20.929 216.621 21.3717 215.886 21.5661C215.086 21.7793 214.261 21.8871 213.432 21.8869C210.69 21.927 207.944 21.8869 205.202 21.8869H204.025C204.025 22.3442 203.993 22.7452 203.993 23.1463C203.993 33.2815 203.993 43.4168 203.993 53.548C203.999 54.5728 203.884 55.5947 203.65 56.5922C203.444 57.4763 202.943 58.2627 202.229 58.8197C201.516 59.3768 200.634 59.6707 199.73 59.6524C197.651 59.6925 196.054 58.6537 195.492 56.7446C195.245 55.8843 195.123 54.9928 195.128 54.0975C195.104 43.8326 195.104 33.5703 195.128 23.3108L195.053 21.8829ZM202.336 53.5199V52.3568C202.336 47.7083 202.336 43.0598 202.336 38.4113C202.305 33.5102 202.237 28.605 202.181 23.7038C202.186 23.2559 202.16 22.8082 202.101 22.3642C202.07 22.2782 202.016 22.2021 201.946 22.1436C201.876 22.0851 201.792 22.0463 201.702 22.0313C201.574 22.0313 201.407 22.2238 201.327 22.3722C201.278 22.5248 201.261 22.6861 201.279 22.8455C201.239 23.9966 201.175 25.1517 201.171 26.3028C201.136 35.0543 201.11 43.8045 201.091 52.5533C201.091 52.8622 201.127 53.175 201.147 53.5119C201.407 53.544 201.59 53.5761 201.774 53.5801C201.965 53.5728 202.156 53.5527 202.344 53.5199H202.336ZM183.382 16.5686C183.682 16.7732 183.782 16.9256 183.929 16.9296C190.646 17.2104 197.367 17.1181 204.184 17.1422C204.113 16.721 204.065 16.4523 204.009 16.1114H203.035C197.447 16.1301 191.86 16.1542 186.272 16.1836C185.538 16.1836 184.807 16.2478 184.077 16.3039C183.838 16.3642 183.608 16.4531 183.39 16.5686H183.382ZM211.285 16.2157C209.848 15.9951 205.653 16.0553 205.338 16.324C205.386 16.5566 205.438 16.8253 205.493 17.1261C207.489 17.1542 209.369 17.1462 211.285 17.1261V16.2157ZM201.111 54.8074C201.111 55.4812 201.087 56.0106 201.111 56.5561C201.111 56.9131 201.359 57.2099 201.718 57.1337C201.846 57.0962 201.964 57.0281 202.06 56.9353C202.157 56.8424 202.23 56.7275 202.273 56.6002C202.322 56.0281 202.332 55.4531 202.301 54.8796L201.111 54.8074ZM212.442 17.1462C213.153 17.1462 213.779 17.1462 214.406 17.1462C214.761 17.1462 215.032 16.9858 215.02 16.5887C215.008 16.1916 214.741 16.1114 214.43 16.1114C213.831 16.1114 213.232 16.1114 212.634 16.1355C212.537 16.1635 212.445 16.2068 212.362 16.2638C212.39 16.4965 212.414 16.7571 212.45 17.1462H212.442Z" fill="#0E377C"/>
<path d="M84.6367 39.5905L84.058 39.0731C86.5764 36.0289 88.3605 32.6358 88.7716 28.6451C89.2317 24.7271 88.4569 20.7627 86.5564 17.3106C84.6881 13.912 81.8978 11.1163 78.5103 9.24894C78.5821 8.84786 78.7617 8.69545 79.065 8.84786C79.3556 8.97045 79.637 9.11387 79.9072 9.27701C85.5587 12.9469 88.8953 18.0606 89.5419 24.8549C90.0567 30.2694 88.3166 34.95 84.968 39.1092C84.8682 39.2456 84.7844 39.3819 84.6367 39.5905Z" fill="white"/>
<path d="M65.6193 59.4718L64.9248 58.6697L76.567 46.4448C76.9662 46.7176 77.022 46.9662 76.7626 47.2831C76.6628 47.4074 76.5471 47.5197 76.4393 47.636C73.0202 51.3046 69.6011 54.9757 66.182 58.6496C65.9772 58.9113 65.7892 59.186 65.6193 59.4718Z" fill="white"/>
<path d="M76.8585 21.8828C77.3254 22.308 77.1738 22.5767 76.8585 22.8494C76.2917 23.3668 75.737 23.8962 75.1782 24.4216L65.9586 33.0769C65.6593 33.3577 65.3479 33.6264 64.889 34.0435L64.2783 33.4098L76.8585 21.8828Z" fill="white"/>
<path d="M56.958 24.6462L57.2494 24.2651C57.3651 24.2651 57.4489 24.2651 57.4809 24.2972C59.0294 25.8534 60.574 27.4096 62.1026 28.9858C62.2104 29.0981 62.1585 29.3628 62.1785 29.5594C61.9909 29.5594 61.7195 29.6115 61.6197 29.5072C60.0751 27.9149 58.5545 26.3026 56.958 24.6462Z" fill="white"/>
<path d="M79.4045 19.6689C79.7517 20.2545 79.7278 20.2986 78.6422 21.0888C78.1912 20.5273 78.251 20.4109 79.4045 19.6689Z" fill="white"/>
<path d="M78.263 45.5824C77.8639 44.9607 77.8639 44.9206 78.9774 44.0503C79.0612 44.1586 79.2328 44.2829 79.2209 44.3792C79.145 44.9728 78.6541 45.2295 78.263 45.5824Z" fill="white"/>
<path d="M63.7435 34.0073L64.2304 34.613C64.0508 34.8095 63.9151 34.9779 63.7594 35.1183C63.7211 35.1702 63.6708 35.212 63.6129 35.2401C63.555 35.2682 63.4913 35.2819 63.427 35.2799C63.3627 35.278 63.2998 35.2604 63.2438 35.2288C63.1877 35.1971 63.1401 35.1524 63.1049 35.0983C62.8974 34.8576 62.9971 34.629 63.2007 34.4445C63.4042 34.26 63.528 34.1758 63.7435 34.0073Z" fill="white"/>
<path d="M64.23 59.3555L64.8486 60.0333C64.6672 60.2604 64.4595 60.4651 64.23 60.6429C64.1481 60.6713 64.0604 60.678 63.9751 60.6626C63.8899 60.6471 63.81 60.61 63.7431 60.5547C63.6937 60.4845 63.6621 60.4032 63.651 60.318C63.6398 60.2327 63.6495 60.146 63.6792 60.0654C63.8386 59.8107 64.0231 59.5729 64.23 59.3555Z" fill="white"/>
<path d="M82.286 41.0383C82.6292 41.664 82.6292 41.664 81.8869 42.1934C81.4 41.672 81.4 41.672 82.286 41.0383Z" fill="white"/>
<path d="M76.4349 7.94946L77.3967 8.11391C76.9058 8.68344 76.9058 8.68344 76.375 8.17808L76.4349 7.94946Z" fill="white"/>
<path d="M56.1802 22.9377C56.3278 23.1744 56.4875 23.3388 56.4556 23.403C56.3456 23.5777 56.1983 23.7256 56.0245 23.8362C55.9966 23.8562 55.7132 23.6075 55.7292 23.5755C55.8623 23.3511 56.0132 23.1379 56.1802 22.9377Z" fill="white"/>
<path d="M145.183 19.6168L145.858 19.0151C146.077 19.32 146.257 19.5646 146.444 19.8173C152.83 29.6089 159.216 39.4019 165.602 49.1962C165.752 49.4017 165.866 49.6308 165.941 49.8741C165.977 50.0265 165.905 50.3193 165.797 50.3714C165.705 50.4183 165.602 50.4427 165.498 50.4427C165.394 50.4427 165.292 50.4183 165.199 50.3714C164.931 50.0974 164.698 49.7917 164.504 49.461C160.614 43.4715 156.728 37.4808 152.846 31.4887C150.51 27.887 148.179 24.284 145.854 20.6796C145.63 20.3587 145.439 20.0299 145.183 19.6168Z" fill="white"/>
<path d="M172.127 52.0198L171.105 51.7912V20.5071H172.123C172.347 21.5058 172.347 51.1615 172.127 52.0198Z" fill="white"/>
<path d="M142.924 31.9138L143.722 31.974C143.778 32.0667 143.821 32.1665 143.85 32.2708C143.874 32.5555 143.882 32.8443 143.882 33.1331C143.882 40.8258 143.891 48.5158 143.91 56.2031C143.916 56.46 143.908 56.7171 143.886 56.9732C143.854 57.29 143.69 57.5427 143.347 57.5307C143.004 57.5186 142.872 57.2499 142.844 56.9331C142.844 56.7726 142.844 56.6122 142.844 56.4518C142.844 48.5372 142.855 40.6226 142.876 32.708C142.88 32.4874 142.904 32.2668 142.924 31.9138Z" fill="white"/>
<path d="M171.173 53.0826L172.219 53.2992C172.219 54.1615 172.219 54.9757 172.219 55.7899C172.219 56.1028 172.004 56.3715 171.672 56.2913C171.562 56.2564 171.461 56.1952 171.379 56.1128C171.297 56.0304 171.236 55.9292 171.201 55.818C171.146 54.9396 171.173 54.0613 171.173 53.0826Z" fill="white"/>
<path d="M143.846 30.9792L143.083 30.9311C143.012 30.8188 142.948 30.7666 142.948 30.7145C142.948 29.9565 142.92 29.1984 142.924 28.4364C142.916 28.2788 142.955 28.1226 143.036 27.9872C143.078 27.9254 143.133 27.8732 143.197 27.8338C143.261 27.7945 143.332 27.7688 143.407 27.7585C143.53 27.7585 143.666 27.9029 143.766 28.0152C143.82 28.0928 143.847 28.1855 143.846 28.28C143.85 29.1583 143.846 30.0407 143.846 30.9792Z" fill="white"/>
<path d="M172.187 19.2276H171.213C171.213 18.4776 171.181 17.7557 171.213 17.0418C171.213 16.8653 171.509 16.7129 171.668 16.5444C171.836 16.7089 172.131 16.8613 172.147 17.0337C172.223 17.7236 172.187 18.4175 172.187 19.2276Z" fill="white"/>
<path d="M144.436 18.4215L143.431 16.7611C144.129 16.3841 144.129 16.3841 144.628 17.1381C145.127 17.8921 145.111 17.848 144.436 18.4215Z" fill="white"/>
<path d="M24.7138 53.3955V54.2619C22.9617 54.5787 9.00055 54.3461 8.01074 53.9651C8.13048 53.8207 8.2143 53.6522 8.34601 53.564C8.49756 53.5134 8.65808 53.4956 8.81697 53.5119L24.2269 53.3193C24.3905 53.3354 24.5531 53.3608 24.7138 53.3955Z" fill="white"/>
<path d="M8.02637 34.0514C8.27408 33.9743 8.52771 33.918 8.78468 33.883C10.1856 33.8148 11.5785 33.7306 12.9914 33.7185C16.2721 33.6824 19.5569 33.6824 22.8416 33.6704C23.125 33.6704 23.4043 33.6985 23.7516 33.7145V34.7814C18.6229 34.645 13.5302 34.8776 8.44144 34.5287C8.29839 34.49 8.16327 34.4262 8.04232 34.3402L8.02637 34.0514Z" fill="white"/>
<path d="M18.9138 16.8373C18.8075 16.8871 18.6965 16.926 18.5825 16.9536C15.3017 16.9135 12.021 16.8707 8.74026 16.8253C8.5886 16.8253 8.3651 16.8012 8.30124 16.709C8.26371 16.6344 8.24414 16.5519 8.24414 16.4683C8.24414 16.3847 8.26371 16.3023 8.30124 16.2277C8.3651 16.1314 8.5846 16.1114 8.73627 16.1073L18.6743 16.0071C18.7391 16.0246 18.802 16.0487 18.8619 16.0793L18.9138 16.8373Z" fill="white"/>
<path d="M24.8848 34.7174V33.6626H26.9163C27.8063 33.6626 28.6923 33.6626 29.5824 33.6626C29.8675 33.6482 30.1531 33.6794 30.4285 33.7548C30.5261 33.793 30.6132 33.8541 30.6826 33.9329C30.752 34.0117 30.8018 34.1061 30.8276 34.2081C30.8276 34.3605 30.5961 34.5249 30.4525 34.6733C30.4165 34.7094 30.3327 34.7094 30.2689 34.7094L24.8848 34.7174Z" fill="white"/>
<path d="M25.3076 16.011L25.3675 16.9254H19.6162V16.011H25.3076Z" fill="white"/>
<path d="M26.2734 16.9816V16.0952C26.3812 16.0431 26.465 15.9709 26.5488 15.9709C28.1027 15.9549 29.6553 15.9482 31.2065 15.9509C31.3636 15.9366 31.5211 15.9716 31.6575 16.0511C31.7958 16.1685 31.8866 16.3325 31.913 16.5124C31.913 16.6287 31.7773 16.7891 31.6655 16.8814C31.5578 16.9478 31.4326 16.98 31.3063 16.9736C29.6659 16.9856 28.0216 16.9816 26.2734 16.9816Z" fill="white"/>
<path d="M29.9573 53.3634L30.0531 54.2939H26.034L25.9502 53.3634H29.9573Z" fill="white"/>
<path d="M31.0156 54.3541C30.9717 54.0132 30.9318 53.7445 30.8799 53.3434C31.2286 53.3395 31.5771 53.365 31.9216 53.4196C32.0573 53.4517 32.2529 53.7004 32.2329 53.8207C32.2121 53.92 32.1694 54.0134 32.108 54.0939C32.0465 54.1744 31.9678 54.2401 31.8777 54.2859C31.5944 54.3456 31.3047 54.3685 31.0156 54.3541Z" fill="white"/>
<path d="M116.466 55.0479C116.019 55.0679 115.708 55.1 115.397 55.1C111.509 55.1 107.622 55.0826 103.734 55.0479C103.064 55.0479 102.397 54.9797 101.739 54.9436C101.392 54.9436 101.068 54.8393 101.08 54.4182C101.092 53.9971 101.4 53.9008 101.747 53.8888C102.86 53.8487 103.978 53.7845 105.091 53.7765C108.66 53.7564 112.232 53.7524 115.8 53.7444C115.992 53.7574 116.184 53.7801 116.375 53.8126C116.395 54.1976 116.426 54.5465 116.466 55.0479Z" fill="white"/>
<path d="M115.369 16.0952C115.333 16.4963 115.309 16.765 115.281 17.0738C114.997 17.0979 114.782 17.138 114.566 17.134C109.814 17.0832 105.062 17.023 100.31 16.9535C99.9866 16.9535 99.5875 17.0698 99.376 16.5244C99.5431 16.4213 99.7247 16.3443 99.9148 16.2958C100.581 16.2316 101.252 16.1794 101.91 16.1754C106.053 16.138 110.199 16.1113 114.347 16.0952H115.369Z" fill="white"/>
<path d="M114.359 33.8911V34.8577C114.032 34.8818 113.756 34.9219 113.477 34.9179C109.752 34.8991 106.027 34.8751 102.302 34.8457C101.825 34.8426 101.349 34.8051 100.877 34.7334C100.792 34.7105 100.714 34.6666 100.651 34.6056C100.587 34.5446 100.54 34.4686 100.514 34.3844C100.514 34.2601 100.693 34.0716 100.841 33.9834C101.019 33.917 101.21 33.8909 101.4 33.9072C105.572 33.867 109.741 33.8336 113.908 33.8069C114.06 33.8243 114.211 33.8525 114.359 33.8911Z" fill="white"/>
<path d="M115.524 34.8216V33.9753C115.616 33.9312 115.696 33.8469 115.78 33.8469C118.175 33.8469 120.569 33.8469 122.964 33.8469C123.123 33.834 123.282 33.8675 123.423 33.9432C123.501 33.9898 123.568 34.052 123.621 34.1258C123.674 34.1996 123.711 34.2835 123.73 34.3724C123.716 34.4626 123.682 34.5485 123.631 34.624C123.58 34.6996 123.513 34.7629 123.435 34.8095C123.264 34.8925 123.074 34.9297 122.884 34.9178C120.585 34.9178 118.288 34.9178 115.991 34.9178C115.834 34.8968 115.678 34.8647 115.524 34.8216Z" fill="white"/>
<path d="M117.317 55.0199C117.289 54.6188 117.265 54.2498 117.237 53.8167H122.964V54.9156C122.25 55.1362 118.997 55.2044 117.317 55.0199Z" fill="white"/>
<path d="M116.49 17.098L116.534 16.1475H121C121.024 16.4643 121.044 16.7571 121.068 17.098H116.49Z" fill="white"/>
<path d="M122.13 17.1582L122.042 16.0913C122.924 16.0913 123.738 16.0913 124.552 16.0913C124.625 16.0834 124.698 16.0916 124.767 16.1154C124.836 16.1392 124.898 16.1779 124.951 16.2289C125.003 16.2798 125.043 16.3417 125.069 16.4101C125.095 16.4785 125.105 16.5518 125.099 16.6247C125.1 16.698 125.085 16.7705 125.055 16.8376C125.026 16.9047 124.983 16.9649 124.93 17.0144C124.876 17.0638 124.812 17.1015 124.743 17.1248C124.674 17.1482 124.601 17.1568 124.529 17.1501C123.77 17.1702 123.008 17.1582 122.13 17.1582Z" fill="white"/>
<path d="M123.93 55.064C123.902 54.5948 123.882 54.2619 123.858 53.8608C124.357 53.8608 124.816 53.8367 125.271 53.8608C125.344 53.857 125.416 53.8699 125.483 53.8985C125.55 53.9272 125.61 53.9708 125.658 54.0261C125.705 54.0814 125.74 54.1469 125.759 54.2177C125.777 54.2884 125.78 54.3625 125.766 54.4343C125.739 54.5515 125.685 54.6608 125.609 54.7534C125.533 54.846 125.436 54.9195 125.327 54.9678C124.865 55.0394 124.397 55.0716 123.93 55.064Z" fill="white"/>
<path d="M251.452 19.1875L252.134 19.9897L243.944 32.403L243.146 31.5688L251.452 19.1875Z" fill="white"/>
<path d="M240.372 52.9704L239.299 52.8942C239.271 52.5813 239.219 52.3046 239.223 52.0319C239.279 47.9569 239.34 43.8833 239.406 39.811C239.406 39.4861 239.287 38.9728 239.762 38.9527C240.237 38.9327 240.161 39.4581 240.161 39.7749C240.217 40.7014 240.233 41.6319 240.245 42.5624C240.288 45.6387 240.32 48.719 240.356 51.7872C240.376 52.1482 240.372 52.4931 240.372 52.9704Z" fill="white"/>
<path d="M239.263 54.0894C239.758 54.0894 240.26 53.9931 240.324 54.4905C240.379 54.9902 240.31 55.4956 240.125 55.9624C239.977 56.3154 239.326 56.1229 239.279 55.6737C239.237 55.1466 239.231 54.6172 239.263 54.0894Z" fill="white"/>
<path d="M242.52 32.6035C242.795 32.9324 242.975 33.141 243.186 33.4057C243.054 33.6463 242.951 33.8749 242.811 34.0795C242.603 34.3843 242.336 34.661 241.949 34.3803C241.622 34.1477 241.717 33.8188 241.905 33.526C242.093 33.2332 242.256 32.9886 242.52 32.6035Z" fill="white"/>
<path d="M252.781 18.9028C252.569 18.4496 252.322 18.1728 252.382 17.9763C252.504 17.655 252.704 17.3696 252.964 17.146C253.042 17.1074 253.129 17.0896 253.216 17.0946C253.302 17.0995 253.386 17.1269 253.459 17.1741C253.516 17.2398 253.555 17.3187 253.573 17.4035C253.591 17.4883 253.588 17.5763 253.563 17.6594C253.323 18.087 253.062 18.5019 252.781 18.9028Z" fill="white"/>
<path d="M202.344 53.5199C202.158 53.5523 201.97 53.5724 201.782 53.58C201.598 53.58 201.414 53.5439 201.155 53.5119C201.155 53.175 201.099 52.8621 201.099 52.5533C201.123 43.8018 201.15 35.0516 201.179 26.3027C201.179 25.1516 201.247 23.9965 201.287 22.8454C201.269 22.6861 201.286 22.5248 201.335 22.3722C201.414 22.2238 201.582 22.0312 201.71 22.0312C201.8 22.0463 201.884 22.085 201.954 22.1435C202.024 22.202 202.078 22.2781 202.109 22.3642C202.168 22.8082 202.194 23.2559 202.189 23.7038C202.245 28.6049 202.312 33.5101 202.344 38.4113C202.372 43.0598 202.344 47.7083 202.344 52.3568V53.5199Z" fill="white"/>
<path d="M183.391 16.5686C183.607 16.4533 183.836 16.3644 184.073 16.3038C184.803 16.2477 185.534 16.1875 186.268 16.1835C191.856 16.1514 197.444 16.1274 203.031 16.1113H204.033C204.089 16.4522 204.137 16.721 204.209 17.1421C197.392 17.118 190.67 17.2103 183.953 16.9295C183.81 16.9255 183.69 16.7731 183.391 16.5686Z" fill="white"/>
<path d="M211.293 16.2156V17.1421C209.377 17.1421 207.477 17.1421 205.501 17.1421C205.445 16.8413 205.394 16.5726 205.346 16.34C205.661 16.0552 209.856 15.9951 211.293 16.2156Z" fill="white"/>
<path d="M201.119 54.8073L202.316 54.8795C202.347 55.4529 202.338 56.0279 202.288 56.6001C202.246 56.7273 202.173 56.8422 202.076 56.9351C201.979 57.028 201.862 57.0961 201.734 57.1335C201.374 57.2097 201.143 56.9129 201.127 56.556C201.095 56.0185 201.119 55.4811 201.119 54.8073Z" fill="white"/>
<path d="M212.45 17.1461C212.414 16.745 212.39 16.5124 212.37 16.2597C212.453 16.2027 212.545 16.1594 212.641 16.1314C213.24 16.1314 213.839 16.1033 214.438 16.1073C214.749 16.1073 215.016 16.2236 215.028 16.5846C215.04 16.9456 214.769 17.1381 214.414 17.1421C213.787 17.1541 213.16 17.1461 212.45 17.1461Z" fill="white"/>
</g>
<defs>
<clipPath id="clip0_1066_1765">
<rect width="255" height="64" fill="white"/>
</clipPath>
</defs>
</svg>
