<svg width="911" height="809" viewBox="0 0 911 809" fill="none" xmlns="http://www.w3.org/2000/svg">
<path d="M760.1 188.4L729.1 183.5L719.8 180.1L711.1 175.5L696 169.7L677 159.5L629.5 151L608.9 152L608.4 151.2L607.7 150.1L607.1 148.2L606.2 130.7L604.8 122.7L600.8 112.5L594 101.5L593.8 101.2L593.6 100L593.3 98.2L593.2 90.5L590.1 60.5L589.9 52.9V52.8L590.1 52.9L593.4 53L596.5 52.6L602 51.1L608.6 47.9L609.9 46.9L613 45.3L613.8 44.7H614.3V45.3L612 46.3L607.8 49.4L605.4 50.1L601.3 52L594.9 53.6H598.5V54.2L597.5 54.8H599.7L600.6 54.5L601.1 53.6H601.5L601.6 54.2H601.8H602.2H602.6L607.2 51.3L611 50.1L611.8 49.4H612.3L612.6 49.9L613.6 50.2L613.4 50.6L612.8 50.7V51.3L613.6 51L615.4 50.1V49.4H613.3V48.9L614.3 48.5L615.6 48.8L616.7 49.6L617.4 50.7L617.6 51.2L617.8 52L617.9 52.5H616.9L619.3 53.4L620.5 53.3L621.5 52.5V51.8L620.8 51.4L620.4 51.3V50.7L623.3 49.9L624 49.4L623.7 48.8L623.8 48.2L624.2 47.4L624.5 46.5H624L623.6 47.1L622 48.3L621.8 48.6L621.5 48.8V49.1L622 49.4L621 49.7L619.3 49.6L617.6 49.4L616.4 48.9L618.6 48.7L619.9 47.3L620.8 45.6L622 44.1L622.9 43.7L624.7 43.3L625.6 42.9L627 41.5L627.9 41.1H629.2V41.7H627.1V42.3L628 42.9L630.7 46.5L631.5 48L631.2 48.4L630.2 48.7L629.2 49.4L629.1 49.2V49L629 48.8L628.6 48.9V49.4L629.9 50.3L630.5 51.4V52.8L629.7 54.2L632.3 53.2L633.7 52.8L634.7 53L635.2 52.9H635.6L636.2 53V52.5L635.2 51.8H634.7V52.5H634.3V51.8L638.2 50.3L639.3 49.4H639.8L639.3 50.1L639.8 50.7L640.4 50.2L641 50.1L641.5 50.5L641.8 51.3H642.4L642.5 50.5L642.4 49.7L642.3 49.5L643.4 49.4L642.7 49.1L642 49.2L641.3 49.1L640.4 48.9L648.5 48.3L647.9 46.7L648.8 46.4L650 46.3V44.7L650.8 45.1L651.1 45.3H651.6L652.6 45.1L655.5 46.6L656.9 47.1L662.4 47.6L663.8 48.3V47.7L665.5 48.2L668 48L683.4 44L697.7 38.3L709 30.9H709.1L710.9 34.2L711.4 35.6L712.7 39.8L713.5 42.2L716.4 51.3L718.7 58.7L721.6 66.2L725.4 76.3L730 88.4L731.6 95.3L731.8 98.9L732.2 100.4L733.4 102L734.1 103V104.2L733.4 106.8L733.3 108.3L733.4 109.3L733.9 110.1L738 113.7L738.8 114.9L741.3 122L745.7 134.7L748.6 143L748.8 143.5L748.9 144L749 144.5L748.9 145.1L749.4 149.7L752.7 158.7L755.6 166.8L757.5 175.6L757.4 181.5L757.9 183.6L759.6 187.1L760.2 188.3L760.1 188.4ZM618.2 51.1L617.9 50.7H617.5L618 50.3L618.5 50.4L618.8 50.9L619 51.8L618.2 51.1ZM647.7 41.7L650 42.2L652 43.2L655.2 45.9L653.6 44.7L642 39.7L639.8 39.3L642.2 39.4L646 41.2L647.7 41.7ZM625.6 38.4L627.6 37.3L639.3 38.7L638.8 39.1H637.9L635.6 38.7L633.4 38.4L631.2 38L628.6 38.7L627.4 38.5L625.4 39.2L616.5 44L614.9 45.3L615.8 44L617.5 43.2L618.9 42.4L619.9 41.8L620.9 41.1L624.7 39.3L625.6 38.4Z" fill="#03235A" stroke="white" stroke-width="0.5" stroke-linecap="round" stroke-linejoin="round"/>
<path d="M494.3 799.8H494.2L494.1 799.6L493.6 798.7L492.9 797.9L489.6 795.5L488.8 794.7L488.2 794L487.8 793.1L487.6 792.2L487.9 791.1L488.4 789.9L489.5 788.2L490.5 787.2L491.5 786.4L493.4 785.5L495.2 785L497.1 784.7L500.9 784.5L502.6 784.2L504.5 783.6L506.3 782.7L507.5 782L510.1 780L515.3 773.3L515.9 772L516.4 770.7L517 768.2V767.6L516.6 763.2L515.3 758.5L515 756.7V755.9L515.3 754.7L515.9 753.4L517.2 751.3L518.3 750.2L519.4 749.3L520.3 748.8L521.4 748.5L522.3 748.2L523.2 748.1L524.9 748.2L531.3 749.9L532.1 750L532.9 749.9L556.6 738.6L558.7 737.9L559.7 737.8L560.6 737.9L561.5 738.2L563.1 739.3L566.5 742.1L567.4 742.5L568.4 742.7H569.4L571.5 742.4L572.3 742.3L573.2 742.5L574 743L574.6 743.7L575.6 745.3L576.2 745.9L576.9 746.2L577.8 745.8L578.5 745L580 741.9L580.5 741.1L581.1 740.3L581.9 738.8L582.6 736.6L583.5 732L584.3 729.8L585 728.3L585.7 727.4L586 726.9L586.6 725.4L588.9 718.1L592.5 710L594.4 707.4L600.9 700.4L601.6 699.3L602 698.2L602.3 696.7L602.2 695.4L601.7 693.9L601 693.5L600.1 693.4L590 694.9L582.6 694.6L579.6 694L578.7 693.7L577.9 693.2L577.3 692.3L577 691.1L577.4 689.1L577.8 688L578.4 686.5L579 684.4L580 678.2L581 674.7L581.4 673.8L583.2 671.2L584.6 669.6L586.2 668L587.1 667.4L588 666.9L588.8 666.6L590.7 666.1L599.9 664.8L600.8 664.5L601.6 663.9L602.1 663V662L601.5 660.5L600.8 659.6L599.9 659.1L598.2 658.2L594.9 656.3L594.1 655.6L593.4 654.8L593 653.6L592.9 652.3L593.1 649.9L593.6 647.4L594.1 646.4L594.3 646.1L594.7 645.6L595.3 645L596.1 644.6L597 644.3L598.8 644L603.6 644.2L605.4 643.9L606.3 643.6L607.2 643.2L608 642.7L608.8 641.9L609.4 641L609.7 640.4L610.4 639.7L610.5 638.9L611.3 636V634.5L610.3 631.1L610.1 630L610.3 627.4L610.4 626.5L610.5 624.6L611 620.5V619.5L610.4 613.8L610.5 609.4L610.8 607.6V606.5L610.7 606.3L611.1 603L613.8 596.4L614.6 593.3L614.3 592.1V591.7L613.7 588.6L612.2 584.3L609.1 577.6L608.6 576.2L608.3 575L607.5 566.6L606.4 563.5L605.5 561.8L604.2 559.9L602.6 558L600 556L594 552.5L595.3 551.4L595.9 551L596.6 550.5L597 549.7L597.2 548.6V544.2L597.8 542.3L612.9 553.9L615.7 557.5L618.2 561.9L619.2 564.3L619.8 566.7L620.4 571.6L620.6 582.6L621.1 585.5L621.5 586.7L629.5 603.5L629.6 604.2L629.5 605.7L629 607.7L628.7 608.5L627.8 610.3L626.7 612L620.6 620.1L619.9 621.6L618.3 628L617.7 633.6L619.8 647.5L620.5 649.4L622.2 652.6L624.2 658.2L624.9 659.6L626.1 661.2L627.5 662.5L629 663.5L629.8 664.2L630.7 665.2L631.5 667L631.8 668.2L631.9 669.3L631.8 670.5V672L632.3 676.3L632.2 677.7L631.9 678.5L630.3 681L630.1 682.3L630.2 684.4L631.8 692L632.3 693.2L634.4 696.5L635.2 698.4L635.5 699.6L635.6 700.8L635.5 701.7L634.9 703.7L632.2 710.6L631.8 711.4L631.3 712.1L629.1 714L628.3 714.8L627.8 715.7L626.8 718.5L626.4 719.3L625.8 720.1L624.4 721.7L623.9 722.9L624.1 723.9L624.6 724.7L625.4 725.4L630.5 728.6L634.9 730.2L635.8 730.7L636.5 731.3L637.1 732.1L638.1 733.9L638.8 734.7L640.2 736L640.8 736.8L641.3 737.7L644.4 748.2L644.6 750.3L644.3 751.2L643.7 751.6H642.9L642.1 751.3L641.4 751L636.5 747.4L630.5 741.2L628.8 740.1L627.1 739.5L625.2 739.3L619.1 740.3H618.4L617.6 740.2L616.8 740L615.9 739.6L614.2 738.2L610.9 734.7L610.1 734L609.2 733.4L608.4 733.2L607.7 733.3L607.1 733.9L606.7 734.7L605.9 737.1L605.4 737.8L603.9 739.3L603.4 740.4L603.3 741.5L603.8 745L603.7 747.3L603.4 748.8L603 749.9L602 751.5L600.1 754L590.4 762.8L588.1 765.4L585.3 767.9L584 768.8L582.5 769.5L579.2 770.6L575.6 771.2L571.5 771.1L570.5 770.9L568.6 770.3L566.8 769.5L566 768.9L565.3 768.4L562.2 764.8L558.8 762L558 761.5L557.1 761.2L556.3 761L555.5 761.3L554.8 761.9L554.2 762.7L553.4 764.4L548.6 778.1L547.4 780.2L546 781.9L545 783L542 785.2L541.2 785.7L540.3 786L539.4 786.2H536.8L535.9 786.4L534.9 786.8L534.1 787.5L533.4 788.4L532.4 790.2L531.2 791.8L530.3 792.5L514.9 799.7L513.3 800.7L511.6 802L509.9 804L507.8 808V808.1H503.4L505.7 801.3L507.3 796.4L507.7 796.1L509.3 793.1L507.7 792L507 790.5L506.1 789.9L505.1 790.7L503.8 790L502.4 789.8L500.9 790.1L499.5 790.8L497.6 792.9L494.3 799.8Z" fill="#03235A" stroke="white" stroke-width="0.5" stroke-linecap="round" stroke-linejoin="round"/>
<path d="M507.8 808.1V808L509.9 804L511.6 802L513.3 800.7L514.9 799.7L530.3 792.5L531.2 791.8L532.4 790.2L533.4 788.4L534.1 787.5L534.9 786.8L535.9 786.4L536.8 786.2H539.4L540.3 786L541.2 785.7L542 785.2L545 783L546 781.9L547.4 780.2L548.6 778.1L553.4 764.4L554.2 762.7L554.8 761.9L555.5 761.3L556.3 761L557.1 761.2L558 761.5L558.8 762L562.2 764.8L565.3 768.4L566 768.9L566.8 769.5L568.6 770.3L570.5 770.9L571.5 771.1L575.6 771.2L579.2 770.6L582.5 769.5L584 768.8L585.3 767.9L588.1 765.4L590.4 762.8L600.1 754L602 751.5L603 749.9L603.4 748.8L603.7 747.3L603.8 745L603.3 741.5L603.4 740.4L603.9 739.3L605.4 737.8L605.9 737.1L606.7 734.7L607.1 733.9L607.7 733.3L608.4 733.2L609.2 733.4L610.1 734L610.9 734.7L614.2 738.2L615.9 739.6L616.8 740L617.6 740.2L618.4 740.3H619.1L625.2 739.3L627.1 739.5L628.8 740.1L630.5 741.2L636.5 747.4L641.4 751L642.1 751.3L642.9 751.6H643.7L644.3 751.2L644.6 750.3L644.4 748.2L641.3 737.7L640.8 736.8L640.2 736L638.8 734.7L638.1 733.9L637.1 732.1L636.5 731.3L635.8 730.7L634.9 730.2L630.5 728.6L625.4 725.4L624.6 724.7L624.1 723.9L623.9 722.9L624.4 721.7L625.8 720.1L626.4 719.3L626.8 718.5L627.8 715.7L628.3 714.8L629.1 714L631.3 712.1L631.8 711.4L632.2 710.6L634.9 703.7L635.5 701.7L635.6 700.8L635.5 699.6L635.2 698.4L634.4 696.5L632.3 693.2L631.8 692L630.2 684.4L630.1 682.3L630.3 681L631.9 678.5L632.2 677.7L632.3 676.3L631.8 672V670.5L631.9 669.3L631.8 668.2L631.5 667L630.7 665.2L629.8 664.2L629 663.5L627.5 662.5L626.1 661.2L624.9 659.6L624.2 658.2L622.2 652.6L620.5 649.4L619.8 647.5L617.7 633.6L618.3 628L619.9 621.6L620.6 620.1L626.7 612L627.8 610.3L628.7 608.5L629 607.7L629.5 605.7L629.6 604.2L629.5 603.5L621.5 586.7L621.1 585.5L620.6 582.6L620.4 571.6L619.8 566.7L619.2 564.3L618.2 561.9L615.7 557.5L612.9 553.9L597.8 542.3L595.4 540.1L594.7 539.2L593.8 537.5L593 535.1L591.7 529L591.5 524.6L591.7 523.4L592.6 520.7L593.4 519L594.5 517.4L599.4 511.9L606.6 505.4L608.2 503.5L609.6 501.6L613.4 493.7L614.1 491.5L614.5 489.3L614.6 487.3L614.5 484.4L613.7 478.3L612.7 474.4L611.9 472.5L610.8 470.6L607.9 466.7L605.3 464.3L603.5 463L602.1 462.2L596.3 460.5L591.5 460.2L589.4 460.4L585.5 461.1L570.5 468.4L568.2 468.9L560.3 458.9L558.3 455.1L557.6 454.2L556.9 453.2L555.7 452.4L554.8 452.1L549.9 451L547.7 450.1L545.8 449.1L544.4 448.2L543.4 447L542.2 445.5L540.4 442.8L539.3 440.5L539.1 439.6L538.7 435.9L538.3 434.6L537.6 433.1L535.6 430.4L533.9 427.4L532.7 424.7L529.4 421.5L516.9 412.7L509 396L507.3 393.1L506.2 391.8L501.5 387L498.5 384.4L496.7 383.4L496.2 382.9L495.7 382.1L495.1 380.9L493.9 377.5L493.2 376.3L492.3 375.1L490.7 373.6L489.5 372.8L488.5 372.3L483.8 370.8L476.2 367.6L469.7 363.8L469 363.1L468.3 362.3L467.8 361.3L467.3 360.2L466.6 357.9L466.3 356.7L466.2 354.3L466.5 346.8L467.8 338.8L467.9 337.5L467.8 335.5L467.5 332.9L467.1 331.3L465.4 326.8L465 324.9L464.4 316.9L464 314.6L462.8 311.3L458.8 303.4L458.5 302.4L458.3 301.4L458 297.8L457.2 293.9L457.1 293L457.3 291.5L457.7 289.6L459.9 284L463.5 277.7L463.9 276.8L464.3 275L466.7 254.3L466.8 252.6L467.4 250.1L468.8 246.2L470.3 243.2L475.3 236.5L479.6 229.5L481.7 226.8L485 223.2L486.1 221.6L487 219.7L488.3 216.2L489.2 214.4L489.7 212.9L489.8 211.7L489.6 208.3L489.9 204.7L495.3 211.4L496.9 212.8L497.4 213.4L497.9 214.1L498.9 216.5L499.3 217.1L500.1 218.3L503.1 221.4L504.5 222.5L506.7 223.8L508.2 224.5L535.6 232.8L538.7 234.3L548.9 232.8L555 233.1L556.1 232.9L557.7 232.4L580.4 222.4L582.5 221.1L585.6 220.1L587 219.9H594.2L594.4 220.7V222.6L594 223.3L593.3 223.9L592.9 224.9L592.1 225.3L591.8 226L592.4 226.9L592 229.5L591.9 232.5L592.4 233.4L594.6 235.8L595.4 236.8L595.7 237.7V239.4L596 240.3L597.7 242.2L598 242.4L601.1 246.7L603.7 247.2L605.4 249L606.4 251.6L609.7 264.2L610 265.9L610.8 266.2L614.3 268.2L616.1 270L617 271.1L617.7 272.6L618.5 272.9L619.3 273.1L620 273.5L620.2 274L620.7 275.7L622.9 279.9L623.5 280.5L623.6 280.9L623.4 281L623.2 280.9L623 281L626.3 283.7L627.7 285.5L627.6 287.4L628.2 287.8L628.7 288.8L629 289.8L629.2 290.6L629.5 290.9L631.2 293.2L634.7 297L635.5 298.8L636.3 299.3L637.1 299.6L637.8 300.1L638.1 301.2V302.2L638.3 302.8L639.6 303L640.8 303.7L643.3 306.7L644.9 307.7L644.8 308.2L644.9 308.9V309.4L644.8 310.1L645.3 310.6L646.2 310.8L647 310.6L647.6 311.8L649.3 312.6L652.6 313.5L657.9 318.3L659.6 321.9L660.5 322.7L661 323.6L662.6 327.5L662.8 328.5V329L663.2 329.6L663.5 331.3L663.8 331.9V332.4H663.3H662.3L661.5 330.6L659.7 329.5L657.7 328.8L656.2 327.8H655.7L655.2 329L655 329.8L655.1 330.4L655.7 331.3L657.1 332.8L657.9 333.8L658.2 335.1L658.7 335.8L659.7 335.4L660.8 334.9L661.3 335.1L661.2 336.2L660.9 337.4L660.4 338.6L659.7 339.4L660 339.7L660.4 340.3L660.7 340.5L662.1 341.5L662.6 341.7L662.8 342L663.5 343.6L663.8 344V344.6L663 343.9L661.3 341.7H660.7V342.3L661 342.8L661.3 343.5H660.7L660.3 341.9L659 342L657.5 343.2L656.7 344.6L658.4 345.5L659.7 347.2L661.8 350.9L661.5 351.5L661.3 352.1L661.2 352.9L661.3 353.8L662.5 354.8L665.8 356.2L666.9 357.3L667.1 358L667.2 359.9L667.4 360.7L667.9 361.4L669.2 362.8L669.7 363.6L670.2 365.3L670.7 369L671.2 370.2L673.7 372.5L676.6 374.5L679.7 376L681.2 377.1L682.2 378.5L682.3 379.4L682.2 382.6L682 382.8L681.3 383.4L681.2 383.7V384.2L681.6 384.9L681.7 385.4V387.3L682 388.7L682.8 389.8L684.2 390.8L685.5 392L686.9 393.9L687.4 395.3L686.3 395.1V396.5L686.8 397.6L688.3 399.7L689 401L689.9 403.4L690.6 404.6L691.5 405.3L692.6 405.9L693.5 406.5L693.9 407.4L694.4 410.1L694.5 411.4L693.9 412.3L692.7 412.4L691.9 411.6L691.2 411.3L690.4 412.9L690.2 414V415.5L690.3 417L690.6 418.1V420.2L689.2 425.3L689.8 427.7L690.9 428.6L693.3 429.3L694.5 430L695.2 431.2L696 433.8L698.4 437L699.5 439.2L702 446.6L703.1 448.8L704.6 451.1L705.6 453.2L707.4 455.9L713.7 470.4L716.6 474.7L719.4 481.8L725.3 490L725.8 491.1L726.6 493.4L731.6 500.9L734.3 503.9L734.9 504.7L741.4 517.6L742.4 521.5L744.2 525L745 529.2L746.3 531.5L749.5 535.6L750 536.6L750.7 539L751.2 540.1L753.4 543.6L754.3 547.1L757.7 553.1L764.1 564.2L764.4 566.8L765.2 569.1L766.4 570.5L767.9 572.3L768.1 573.8L768.2 576.8L768.4 578.4L768.8 579.6L769.4 580.5L770.3 581.3L771.5 582L773.4 583.8L774.7 586.2L776.4 592.6L776.8 593.7L778.1 595.8L779.5 598.4L780.6 599.4V600.7L779.4 603.2V605.4L782.5 606.6L786.2 613.6L796.2 621.3L797.8 623.2L800.6 631.1L802.6 633.3L805.4 637.4L806.7 637.2L806.1 636.1L805.4 635L806.2 634.8L807.7 636.4L809.8 637.3L812.5 640.1L813.5 642.4L813.7 644.8L816 646.1L818.3 645.7L820.1 646.2L822.1 646.8L823.6 647.6L824.8 648.8L826.3 652.5L827.7 654.2L827.2 655L826 653.4L824.5 651.8L823.4 651.7L820.7 653L819.6 653.5L818.1 652.9L816.7 652.4L815.3 652.1L814.3 652.2L813.2 652L811.8 651.5L811.3 650.8L810.5 649.8L809.7 649.5L809.6 649.1L808.5 648.6L806.9 648.2L806.2 648.7L805.2 650.6L804.7 653L805.2 656.9L804.5 660.3L804 662.7L804.6 664.8L806 665.1L806.6 666.1V667.3L806.3 667.9L806.4 669.3L806.5 670.2L806.6 672L806.3 675.4L806.2 682.4L806 683.7L805.3 686L805.1 687.2L805.4 688.4L806.1 689.6L807.7 691.9L809 694.3L809.4 695.6L809.7 696.9L809.6 700.7L810.2 704.6L810.9 707.6L811.4 710.3L814.7 716L814.6 716.1L814.5 716.2H814.4L797.6 731.5L797.5 731.7L783.4 744.9L770.5 740.7L764.5 738.9L762.1 744.7V744.8L752.8 766.6L752.6 766.9L748.8 775.7L745.3 784.2L740.7 785L727.9 787.5H727.7H727.1L715.7 789.8L709.6 791.1L705.4 791.8L704.4 795.2L703.3 798.6L701.9 803.3L700.2 808.2V808.3V808.4H699.9H683.6H666.3H649H633.2H632.3H631.6H624H616.4H608.8H601.2H593.5H585.9H584.4H578.3H575.7V808.2L527.3 808.1H523.7H523.5H507.8ZM910 804.8V805.7V806.7L909.5 807.5L908.9 808.3V808.4H908.3L908.5 808.2L908.8 808L909.1 807.7L909.4 807.3L909.6 806.9L909.9 806.4V805.7V805.1L910 804.9V804.8ZM905.1 800.3V800.4L908 802.1L909.8 802.7V803.1L909.2 803.2L909 803.1L908.6 802.8L908.4 802.5L908 802.2L907.7 802H907.4L907 802.1L906.8 802L906.2 801.5L906 801.7L905.8 801.5L905.6 801.1L905.3 800.5L905.1 800.3ZM897.7 795.2L898.8 795.1L899 794.6L899.2 794.1L899.4 793.8L900 794L901.3 794.8L901.9 795.4L902.3 795.9L903.4 798.4L903.8 799L903.6 798.9L902.8 798.6L902.5 798.1L902.3 797.8V797.1H902.4L902.3 796.6L901.9 796L901.1 795.5V795.3L900.6 794.7L900.4 794.6L900.1 794.8L900 794.9H900.2L900.3 795.1L900.1 795.2L899.8 795.3L899.5 795.4L899 795.3H898.8L898.3 795.5L897.9 795.4L897.7 795.2ZM896.8 794.8L897.2 795H897H896.7L896.8 794.8ZM893.5 791.8L894.1 792.4L893.9 792.6L893.7 792.1L893.5 792H893.4L893.5 791.8ZM893 791.4L893.4 791.7H893.2L893 791.4ZM891.3 789.8L892.7 791L891.6 790.4L891.4 790L891.3 789.8ZM880.9 781.7L882.2 782.4H882L881.3 782L880.9 781.7ZM879.9 781.2L880.5 781.5H880.4L880.1 781.4L879.9 781.2ZM877.4 780.1L878.4 780.6H878.2L877.8 780.3L877.4 780.1ZM875.9 779.4L877.2 780H876.7L876.1 779.5L875.9 779.4ZM875.3 778.1L875.8 779.3L875.6 779.2L875.3 778.5V778.1ZM873.2 773L873 772H873.4L875 773.8L874.6 776.1L875.3 778.1L875 777.4L874.7 776.8V776.4L874.5 775.9L874.4 775.7V775.4L874.6 774.7L874.8 774L874.7 773.6L873.3 772.9L873.2 773ZM871.6 772.5L872.1 772.8L872.9 773.1L872.7 773.2L872.6 773.3L872.4 773L871.8 772.6L871.6 772.5ZM862.5 759.4L863.6 760.4L864.7 762.3L865.2 766.1L866.4 768.5L868.7 770.5L870.5 771.9L870 771.7L869.4 771.3L867.7 770L866.7 769.1L866.1 768.3L865.7 767.8L865 766.8V766.2L864.9 765.3L864.7 764.8V764.5L864.9 764.1L864.6 763.7L864.5 763.2L864.6 762.6L864.4 762.3L864 761.6L863.7 761.2V760.9L863.5 760.7L863 760.6L862.8 760.1L862.5 759.7V759.4ZM860.6 757.5L861.9 758.8H861.8L861.2 758.4L860.6 757.5ZM857.7 755.6H857.8L858.9 756.3H858.8L858.7 756.4L858.5 756.3L858.3 756.2L858.1 755.9L857.7 755.6ZM841.2 752L841.9 752.2L846.1 752.5L852.1 753.7L855.8 754.9V755L855.3 755.1L854.9 755L854.3 754.6L853.8 754.4L853.6 754.5L853.2 754.4L852.7 754.3H852.4L852 754.5H851.4H850.8L850.2 754.2L850.1 754L849.6 753.8L848.8 753.7L848.2 753.5L847.9 753.6L847.4 753.5L847.2 753.3L846.8 753L846.1 753.1L845.9 753.3H846.1L846.3 753.5V753.6H846.1H845.9L845.8 753.5L845.7 753.2L845.4 753L844.9 752.8L844 752.6L843.7 752.7L843.3 752.6L843.1 752.8V752.9L842.5 752.8L842 752.7L841.6 752.6L841.4 752.2L841.2 752ZM839.4 751L839.8 751.3L840.6 751.8L840.4 751.9L840.3 752.1L840.1 752.2L839.6 752.1L839.5 752.3L839.3 752.4L839.1 752.3V751.5H839.2L839.5 751.3L839.4 751ZM836.5 749.6L837.3 749.9L838.6 750.4L838.9 750.7L839.4 751L838.9 750.9L838.7 750.7L838.5 750.6L838.3 751V751.2L838.4 751.3L838.2 752L838 752.1L837.6 752.3L837.5 752.2L837.4 752.1V752L837.5 751.8L837.8 751.5L837.9 751.2L838 750.8L837.8 750.5L837.3 750.2L836.7 750.1L836.5 750V749.7V749.6ZM829 742.9L829.5 743.7L830.4 744.9L831.1 745.8L830.6 745.5L829.3 744.4L828.9 743.9L829 743.3V742.9ZM826.6 738.9L826.9 740.3L827.1 741L827.8 741.5H827.3L827.1 741.3L826.7 741L826.5 740.7L826.2 740.5V740.4L826.1 740.1L825.6 739.6L825.4 739.2L825.6 738.9L826 739L826.4 738.9H826.6ZM823.2 733H824L824.9 733.8L825.6 734.9L826.1 736.3V736.7L825.8 737L825.7 736.7L825.5 736.1V735.3L825.3 735L825.1 734.4L824.7 733.7L824 733.4L823.4 733.2L823.2 733ZM822.6 733.2L822.5 733H823.1H823L822.8 733.2H822.6ZM818.1 726.7L818.2 727.9L818.1 727.8V727.7L818 727L818.1 726.7ZM815.8 718.2L815.9 718.5L817.4 721.5L818 725.8L817.8 725.5L817.7 724.9L817.5 724L817.4 722.9L817.3 721.5L817 720.9L816.6 720.3L816.2 719.8L815.9 719.4L815.8 718.8V718.2ZM690.9 416.3H692H692.4L693.9 419.5L694.4 421.2L694.5 423.1L693.4 422.1L692.9 421L690.9 416.3ZM694.7 356.1L696.3 356.8L696.8 358.2L697.1 359.7L698 360.7V361.2H697.5L696.5 361L695.2 359.4L694.7 358.9L693.1 358.4L692.4 358L691.7 357.1L691 356.6L689.3 357.4L688.6 356.8L688.1 355.8L687.8 354.9L688.2 354.4L688.7 354L689.2 353.9L689.8 353.8L691.5 354.1L692.1 354.4L692.8 354.9L693.4 355.4L693.7 355.7L694.7 356.1Z" fill="#03235A"/>
<path d="M875.3 778.1L875.8 779.3L875.6 779.2L875.3 778.5V778.1ZM875.3 778.1L874.6 776.1L875 773.8L873.4 772H873L873.2 773L873.3 772.9L874.7 773.6L874.8 774L874.6 774.7L874.4 775.4V775.7L874.5 775.9L874.7 776.4V776.8L875 777.4L875.3 778.1ZM857.7 755.6H857.8L858.9 756.3H858.8L858.7 756.4L858.5 756.3L858.3 756.2L858.1 755.9L857.7 755.6ZM857.7 755.6H857.5M839.4 751L839.8 751.3L840.6 751.8L840.4 751.9L840.3 752.1L840.1 752.2L839.6 752.1L839.5 752.3L839.3 752.4L839.1 752.3V751.5H839.2L839.5 751.3L839.4 751ZM839.4 751L838.9 750.7L838.6 750.4L837.3 749.9L836.5 749.6V749.7V750L836.7 750.1L837.3 750.2L837.8 750.5L838 750.8L837.9 751.2L837.8 751.5L837.5 751.8L837.4 752V752.1L837.5 752.2L837.6 752.3L838 752.1L838.2 752L838.4 751.3L838.3 751.2V751L838.5 750.6L838.7 750.7L838.9 750.9L839.4 751ZM507.8 808.1V808L509.9 804L511.6 802L513.3 800.7L514.9 799.7L530.3 792.5L531.2 791.8L532.4 790.2L533.4 788.4L534.1 787.5L534.9 786.8L535.9 786.4L536.8 786.2H539.4L540.3 786L541.2 785.7L542 785.2L545 783L546 781.9L547.4 780.2L548.6 778.1L553.4 764.4L554.2 762.7L554.8 761.9L555.5 761.3L556.3 761L557.1 761.2L558 761.5L558.8 762L562.2 764.8L565.3 768.4L566 768.9L566.8 769.5L568.6 770.3L570.5 770.9L571.5 771.1L575.6 771.2L579.2 770.6L582.5 769.5L584 768.8L585.3 767.9L588.1 765.4L590.4 762.8L600.1 754L602 751.5L603 749.9L603.4 748.8L603.7 747.3L603.8 745L603.3 741.5L603.4 740.4L603.9 739.3L605.4 737.8L605.9 737.1L606.7 734.7L607.1 733.9L607.7 733.3L608.4 733.2L609.2 733.4L610.1 734L610.9 734.7L614.2 738.2L615.9 739.6L616.8 740L617.6 740.2L618.4 740.3H619.1L625.2 739.3L627.1 739.5L628.8 740.1L630.5 741.2L636.5 747.4L641.4 751L642.1 751.3L642.9 751.6H643.7L644.3 751.2L644.6 750.3L644.4 748.2L641.3 737.7L640.8 736.8L640.2 736L638.8 734.7L638.1 733.9L637.1 732.1L636.5 731.3L635.8 730.7L634.9 730.2L630.5 728.6L625.4 725.4L624.6 724.7L624.1 723.9L623.9 722.9L624.4 721.7L625.8 720.1L626.4 719.3L626.8 718.5L627.8 715.7L628.3 714.8L629.1 714L631.3 712.1L631.8 711.4L632.2 710.6L634.9 703.7L635.5 701.7L635.6 700.8L635.5 699.6L635.2 698.4L634.4 696.5L632.3 693.2L631.8 692L630.2 684.4L630.1 682.3L630.3 681L631.9 678.5L632.2 677.7L632.3 676.3L631.8 672V670.5L631.9 669.3L631.8 668.2L631.5 667L630.7 665.2L629.8 664.2L629 663.5L627.5 662.5L626.1 661.2L624.9 659.6L624.2 658.2L622.2 652.6L620.5 649.4L619.8 647.5L617.7 633.6L618.3 628L619.9 621.6L620.6 620.1L626.7 612L627.8 610.3L628.7 608.5L629 607.7L629.5 605.7L629.6 604.2L629.5 603.5L621.5 586.7L621.1 585.5L620.6 582.6L620.4 571.6L619.8 566.7L619.2 564.3L618.2 561.9L615.7 557.5L612.9 553.9L597.8 542.3L595.4 540.1L594.7 539.2L593.8 537.5L593 535.1L591.7 529L591.5 524.6L591.7 523.4L592.6 520.7L593.4 519L594.5 517.4L599.4 511.9L606.6 505.4L608.2 503.5L609.6 501.6L613.4 493.7L614.1 491.5L614.5 489.3L614.6 487.3L614.5 484.4L613.7 478.3L612.7 474.4L611.9 472.5L610.8 470.6L607.9 466.7L605.3 464.3L603.5 463L602.1 462.2L596.3 460.5L591.5 460.2L589.4 460.4L585.5 461.1L570.5 468.4L568.2 468.9L560.3 458.9L558.3 455.1L557.6 454.2L556.9 453.2L555.7 452.4L554.8 452.1L549.9 451L547.7 450.1L545.8 449.1L544.4 448.2L543.4 447L542.2 445.5L540.4 442.8L539.3 440.5L539.1 439.6L538.7 435.9L538.3 434.6L537.6 433.1L535.6 430.4L533.9 427.4L532.7 424.7L529.4 421.5L516.9 412.7L509 396L507.3 393.1L506.2 391.8L501.5 387L498.5 384.4L496.7 383.4L496.2 382.9L495.7 382.1L495.1 380.9L493.9 377.5L493.2 376.3L492.3 375.1L490.7 373.6L489.5 372.8L488.5 372.3L483.8 370.8L476.2 367.6L469.7 363.8L469 363.1L468.3 362.3L467.8 361.3L467.3 360.2L466.6 357.9L466.3 356.7L466.2 354.3L466.5 346.8L467.8 338.8L467.9 337.5L467.8 335.5L467.5 332.9L467.1 331.3L465.4 326.8L465 324.9L464.4 316.9L464 314.6L462.8 311.3L458.8 303.4L458.5 302.4L458.3 301.4L458 297.8L457.2 293.9L457.1 293L457.3 291.5L457.7 289.6L459.9 284L463.5 277.7L463.9 276.8L464.3 275L466.7 254.3L466.8 252.6L467.4 250.1L468.8 246.2L470.3 243.2L475.3 236.5L479.6 229.5L481.7 226.8L485 223.2L486.1 221.6L487 219.7L488.3 216.2L489.2 214.4L489.7 212.9L489.8 211.7L489.6 208.3L489.9 204.7L495.3 211.4L496.9 212.8L497.4 213.4L497.9 214.1L498.9 216.5L499.3 217.1L500.1 218.3L503.1 221.4L504.5 222.5L506.7 223.8L508.2 224.5L535.6 232.8L538.7 234.3L548.9 232.8L555 233.1L556.1 232.9L557.7 232.4L580.4 222.4L582.5 221.1L585.6 220.1L587 219.9H594.2L594.4 220.7V222.6L594 223.3L593.3 223.9L592.9 224.9L592.1 225.3L591.8 226L592.4 226.9L592 229.5L591.9 232.5L592.4 233.4L594.6 235.8L595.4 236.8L595.7 237.7V239.4L596 240.3L597.7 242.2L598 242.4L601.1 246.7L603.7 247.2L605.4 249L606.4 251.6L609.7 264.2L610 265.9L610.8 266.2L614.3 268.2L616.1 270L617 271.1L617.7 272.6L618.5 272.9L619.3 273.1L620 273.5L620.2 274L620.7 275.7L622.9 279.9L623.5 280.5L623.6 280.9L623.4 281L623.2 280.9L623 281L626.3 283.7L627.7 285.5L627.6 287.4L628.2 287.8L628.7 288.8L629 289.8L629.2 290.6L629.5 290.9L631.2 293.2L634.7 297L635.5 298.8L636.3 299.3L637.1 299.6L637.8 300.1L638.1 301.2V302.2L638.3 302.8L639.6 303L640.8 303.7L643.3 306.7L644.9 307.7L644.8 308.2L644.9 308.9V309.4L644.8 310.1L645.3 310.6L646.2 310.8L647 310.6L647.6 311.8L649.3 312.6L652.6 313.5L657.9 318.3L659.6 321.9L660.5 322.7L661 323.6L662.6 327.5L662.8 328.5V329L663.2 329.6L663.5 331.3L663.8 331.9V332.4H663.3H662.3L661.5 330.6L659.7 329.5L657.7 328.8L656.2 327.8H655.7L655.2 329L655 329.8L655.1 330.4L655.7 331.3L657.1 332.8L657.9 333.8L658.2 335.1L658.7 335.8L659.7 335.4L660.8 334.9L661.3 335.1L661.2 336.2L660.9 337.4L660.4 338.6L659.7 339.4L660 339.7L660.4 340.3L660.7 340.5L662.1 341.5L662.6 341.7L662.8 342L663.5 343.6L663.8 344V344.6L663 343.9L661.3 341.7H660.7V342.3L661 342.8L661.3 343.5H660.7L660.3 341.9L659 342L657.5 343.2L656.7 344.6L658.4 345.5L659.7 347.2L661.8 350.9L661.5 351.5L661.3 352.1L661.2 352.9L661.3 353.8L662.5 354.8L665.8 356.2L666.9 357.3L667.1 358L667.2 359.9L667.4 360.7L667.9 361.4L669.2 362.8L669.7 363.6L670.2 365.3L670.7 369L671.2 370.2L673.7 372.5L676.6 374.5L679.7 376L681.2 377.1L682.2 378.5L682.3 379.4L682.2 382.6L682 382.8L681.3 383.4L681.2 383.7V384.2L681.6 384.9L681.7 385.4V387.3L682 388.7L682.8 389.8L684.2 390.8L685.5 392L686.9 393.9L687.4 395.3L686.3 395.1V396.5L686.8 397.6L688.3 399.7L689 401L689.9 403.4L690.6 404.6L691.5 405.3L692.6 405.9L693.5 406.5L693.9 407.4L694.4 410.1L694.5 411.4L693.9 412.3L692.7 412.4L691.9 411.6L691.2 411.3L690.4 412.9L690.2 414V415.5L690.3 417L690.6 418.1V420.2L689.2 425.3L689.8 427.7L690.9 428.6L693.3 429.3L694.5 430L695.2 431.2L696 433.8L698.4 437L699.5 439.2L702 446.6L703.1 448.8L704.6 451.1L705.6 453.2L707.4 455.9L713.7 470.4L716.6 474.7L719.4 481.8L725.3 490L725.8 491.1L726.6 493.4L731.6 500.9L734.3 503.9L734.9 504.7L741.4 517.6L742.4 521.5L744.2 525L745 529.2L746.3 531.5L749.5 535.6L750 536.6L750.7 539L751.2 540.1L753.4 543.6L754.3 547.1L757.7 553.1L764.1 564.2L764.4 566.8L765.2 569.1L766.4 570.5L767.9 572.3L768.1 573.8L768.2 576.8L768.4 578.4L768.8 579.6L769.4 580.5L770.3 581.3L771.5 582L773.4 583.8L774.7 586.2L776.4 592.6L776.8 593.7L778.1 595.8L779.5 598.4L780.6 599.4V600.7L779.4 603.2V605.4L782.5 606.6L786.2 613.6L796.2 621.3L797.8 623.2L800.6 631.1L802.6 633.3L805.4 637.4L806.7 637.2L806.1 636.1L805.4 635L806.2 634.8L807.7 636.4L809.8 637.3L812.5 640.1L813.5 642.4L813.7 644.8L816 646.1L818.3 645.7L820.1 646.2L822.1 646.8L823.6 647.6L824.8 648.8L826.3 652.5L827.7 654.2L827.2 655L826 653.4L824.5 651.8L823.4 651.7L820.7 653L819.6 653.5L818.1 652.9L816.7 652.4L815.3 652.1L814.3 652.2L813.2 652L811.8 651.5L811.3 650.8L810.5 649.8L809.7 649.5L809.6 649.1L808.5 648.6L806.9 648.2L806.2 648.7L805.2 650.6L804.7 653L805.2 656.9L804.5 660.3L804 662.7L804.6 664.8L806 665.1L806.6 666.1V667.3L806.3 667.9L806.4 669.3L806.5 670.2L806.6 672L806.3 675.4L806.2 682.4L806 683.7L805.3 686L805.1 687.2L805.4 688.4L806.1 689.6L807.7 691.9L809 694.3L809.4 695.6L809.7 696.9L809.6 700.7L810.2 704.6L810.9 707.6L811.4 710.3L814.7 716L814.6 716.1L814.5 716.2H814.4L797.6 731.5L797.5 731.7L783.4 744.9L770.5 740.7L764.5 738.9L762.1 744.7V744.8L752.8 766.6L752.6 766.9L748.8 775.7L745.3 784.2L740.7 785L727.9 787.5H727.7H727.1L715.7 789.8L709.6 791.1L705.4 791.8L704.4 795.2L703.3 798.6L701.9 803.3L700.2 808.2V808.3V808.4H699.9H683.6H666.3H649H633.2H632.3H631.6H624H616.4H608.8H601.2H593.5H585.9H584.4H578.3H575.7V808.2L527.3 808.1H523.7H523.5H507.8ZM910 804.8V805.7V806.7L909.5 807.5L908.9 808.3V808.4H908.3L908.5 808.2L908.8 808L909.1 807.7L909.4 807.3L909.6 806.9L909.9 806.4V805.7V805.1L910 804.9V804.8ZM905.1 800.3V800.4L908 802.1L909.8 802.7V803.1L909.2 803.2L909 803.1L908.6 802.8L908.4 802.5L908 802.2L907.7 802H907.4L907 802.1L906.8 802L906.2 801.5L906 801.7L905.8 801.5L905.6 801.1L905.3 800.5L905.1 800.3ZM897.7 795.2L898.8 795.1L899 794.6L899.2 794.1L899.4 793.8L900 794L901.3 794.8L901.9 795.4L902.3 795.9L903.4 798.4L903.8 799L903.6 798.9L902.8 798.6L902.5 798.1L902.3 797.8V797.1H902.4L902.3 796.6L901.9 796L901.1 795.5V795.3L900.6 794.7L900.4 794.6L900.1 794.8L900 794.9H900.2L900.3 795.1L900.1 795.2L899.8 795.3L899.5 795.4L899 795.3H898.8L898.3 795.5L897.9 795.4L897.7 795.2ZM896.8 794.8L897.2 795H897H896.7L896.8 794.8ZM893.5 791.8L894.1 792.4L893.9 792.6L893.7 792.1L893.5 792H893.4L893.5 791.8ZM893 791.4L893.4 791.7H893.2L893 791.4ZM891.3 789.8L892.7 791L891.6 790.4L891.4 790L891.3 789.8ZM880.9 781.7L882.2 782.4H882L881.3 782L880.9 781.7ZM879.9 781.2L880.5 781.5H880.4L880.1 781.4L879.9 781.2ZM877.4 780.1L878.4 780.6H878.2L877.8 780.3L877.4 780.1ZM875.9 779.4L877.2 780H876.7L876.1 779.5L875.9 779.4ZM871.6 772.5L872.1 772.8L872.9 773.1L872.7 773.2L872.6 773.3L872.4 773L871.8 772.6L871.6 772.5ZM862.5 759.4L863.6 760.4L864.7 762.3L865.2 766.1L866.4 768.5L868.7 770.5L870.5 771.9L870 771.7L869.4 771.3L867.7 770L866.7 769.1L866.1 768.3L865.7 767.8L865 766.8V766.2L864.9 765.3L864.7 764.8V764.5L864.9 764.1L864.6 763.7L864.5 763.2L864.6 762.6L864.4 762.3L864 761.6L863.7 761.2V760.9L863.5 760.7L863 760.6L862.8 760.1L862.5 759.7V759.4ZM860.6 757.5L861.9 758.8H861.8L861.2 758.4L860.6 757.5ZM841.2 752L841.9 752.2L846.1 752.5L852.1 753.7L855.8 754.9V755L855.3 755.1L854.9 755L854.3 754.6L853.8 754.4L853.6 754.5L853.2 754.4L852.7 754.3H852.4L852 754.5H851.4H850.8L850.2 754.2L850.1 754L849.6 753.8L848.8 753.7L848.2 753.5L847.9 753.6L847.4 753.5L847.2 753.3L846.8 753L846.1 753.1L845.9 753.3H846.1L846.3 753.5V753.6H846.1H845.9L845.8 753.5L845.7 753.2L845.4 753L844.9 752.8L844 752.6L843.7 752.7L843.3 752.6L843.1 752.8V752.9L842.5 752.8L842 752.7L841.6 752.6L841.4 752.2L841.2 752ZM829 742.9L829.5 743.7L830.4 744.9L831.1 745.8L830.6 745.5L829.3 744.4L828.9 743.9L829 743.3V742.9ZM826.6 738.9L826.9 740.3L827.1 741L827.8 741.5H827.3L827.1 741.3L826.7 741L826.5 740.7L826.2 740.5V740.4L826.1 740.1L825.6 739.6L825.4 739.2L825.6 738.9L826 739L826.4 738.9H826.6ZM823.2 733H824L824.9 733.8L825.6 734.9L826.1 736.3V736.7L825.8 737L825.7 736.7L825.5 736.1V735.3L825.3 735L825.1 734.4L824.7 733.7L824 733.4L823.4 733.2L823.2 733ZM822.6 733.2L822.5 733H823.1H823L822.8 733.2H822.6ZM818.1 726.7L818.2 727.9L818.1 727.8V727.7L818 727L818.1 726.7ZM815.8 718.2L815.9 718.5L817.4 721.5L818 725.8L817.8 725.5L817.7 724.9L817.5 724L817.4 722.9L817.3 721.5L817 720.9L816.6 720.3L816.2 719.8L815.9 719.4L815.8 718.8V718.2ZM690.9 416.3H692H692.4L693.9 419.5L694.4 421.2L694.5 423.1L693.4 422.1L692.9 421L690.9 416.3ZM694.7 356.1L696.3 356.8L696.8 358.2L697.1 359.7L698 360.7V361.2H697.5L696.5 361L695.2 359.4L694.7 358.9L693.1 358.4L692.4 358L691.7 357.1L691 356.6L689.3 357.4L688.6 356.8L688.1 355.8L687.8 354.9L688.2 354.4L688.7 354L689.2 353.9L689.8 353.8L691.5 354.1L692.1 354.4L692.8 354.9L693.4 355.4L693.7 355.7L694.7 356.1Z" stroke="white" stroke-width="0.5" stroke-linecap="round" stroke-linejoin="round"/>
<path d="M366.5 57.4L368.5 115.6L372 122.9L420.9 153.3L362.9 188.9L314.6 237.9L299.6 249.3L240.5 264.7L235 267L231.5 270.9L229.4 274L197.2 342.8L24.2 342.9H22.8V313.3V306.7V273.3V239.5V225.2V214.7L22.2 209.8L20.9 205.2L14.8 190.2L14 187.2L13.9 183.9L14.5 177.7V175.6L13.5 172.1L9.6 165.7L9.1 162.1L10.4 157.6L10.5 155.9L10.1 154L3.7 137.9L1.6 134.1L1 132.2V128.9L2.2 125.8L5.3 120.3L6.5 117.3L7.2 116.1L9.2 113.5L11.5 111.2L15.8 104.6L17.3 101.6L18 98.7L18.2 97L20.5 91L21.3 86.3L22.2 82.8L23.3 79.8L23.8 76.8L22.8 73.3L19.5 66.4L18.5 61.9L15.9 56.6L15.4 54.8L13.7 45.5L13.6 38.4L12.9 31V27.9L13.8 25.1L25.9 15.1L28.7 7.7L30.7 4.7L35.4 1L35.3 1.6L36.2 7.4L37 10.1L38.4 11.9L40 12.4L43.8 12.6L46.6 14.1H48.2L51.6 13.6L52.3 13.8L53.2 14.2L54.1 14.4L55.4 13.6L57.3 13.1L59.4 12.9L71.5 9.4L85.5 4.6L88.8 4.1L96.1 4.5L125.6 12.7L147 15.6L148.3 16.3L149.5 16.7L153.2 16.5L154.7 16.6L160 19.2L163.1 20.2H166.5L169.2 19.2L170.5 19L171.8 19.9L172.8 20.9L173.5 21.2H174.2L175.1 21.4L177.1 22.6L181.8 24.2L186.8 24.7L188.7 25.3L189.9 26.2L190.4 25.8L191.1 25.4L191.4 25L192.3 25.1L196.9 25L197.4 25.2L198 25.5L198.5 26.1V26.5L198.4 26.8L198.5 27.4L199.1 28.5L199.4 29L199.8 29.2L200 29.4L200.1 30.7L200.3 31.3L200.9 32.2L201.6 34.8L202.4 36L204.1 37.6L206.3 38.8L208.6 39.6L213.3 40.3L215.2 41.1L216.8 41.4L218.5 40.5L222.2 42.5L226.6 41.7L235.3 37.5L236.6 37.3L237.3 37.9L237.7 39.1L237.8 40.8L238 41.5L239.3 44.7L239.6 47.5L239.8 48.3L242.1 49.6L245.7 50.1H259L259.9 50.3L260.6 50.8L261.2 51.4L261.8 51.8L262.7 52.1L264.9 51.8L266.6 52L269.8 52.8L271.2 53L272.7 52.6L276 51L277.7 50.7L279.1 50.9L280.4 51.6L281.6 52.4L282.5 53.3L283.1 53.7L285.8 53.6L286.8 53.8L287.6 54.2L288.8 54.8L302.1 59.6L304.7 61.1L306.2 61.7L308 61.9L308.4 62.4L308.9 64.8L309.2 65.6L309.7 65.9L311.1 66.4L324 73.2L336 72.7L338.3 72.2L348.4 67.3L359.4 62L363.4 59L366.5 57.4Z" fill="#03235A" stroke="white" stroke-width="0.5" stroke-linecap="round" stroke-linejoin="round"/>
<path d="M22.7998 342.9H24.1998L197.2 342.8H296.1H447.6L446.7 344.6L446.4 345.7L446.1 348.9L446.3 351.2L447.1 353.9L454 368.7L455.3 370.6L456.5 372L466.3 381.3L470 383.5L476.8 386.3L478 387.1L479.4 388.3L482.9 392.1L483.8 393.4L493.2 412.4L503.5 425.2L510.6 431.3L541.8 470.4L553.6 481.5L554.3 482.1L555.6 482.9L557.4 483.7L558.5 484.1L559.9 484.4L562 484.5L565.6 483.9L572.2 482L589.4 473.9L591.4 473.4L594.8 473H596.1L597.1 473.2L597.9 473.6L598.7 474.1L599.4 474.8L600.1 475.6L600.6 476.5L600.9 477.4L601.2 479.1V480.8L601 481.9L600.7 482.7L600 484.4L596.9 489.8L596.5 490.7L596.2 491.7L595.6 495.6L595.1 497.5L594.8 498.3L594.3 499.1L593.8 500L592.4 501.6L582.1 509.7L579.9 512L578.8 513.6L578.5 514.4L578.3 515.3L578.2 517L578.3 518.3L580.9 528.3L582.8 540.1L584 543.1L584.7 544.3L585.4 545.4L586.9 547.1L594 552.5L600 556L602.6 558L604.2 559.9L605.5 561.8L606.4 563.5L607.5 566.6L608.3 575L608.6 576.2L609.1 577.6L612.2 584.3L613.7 588.6L614.3 591.7V592.1L614.6 593.3L613.8 596.4L611.1 603L610.7 606.3L610.8 606.5V607.6L610.5 609.4L610.4 613.8L611 619.5V620.5L610.5 624.6L610.4 626.5L610.3 627.4L610.1 630L610.3 631.1L611.3 634.5V636L610.5 638.9L610.4 639.7L609.7 640.4L609.4 641L608.8 641.9L608 642.7L607.2 643.2L606.3 643.6L605.4 643.9L603.6 644.2L598.8 644L597 644.3L596.1 644.6L595.3 645L594.7 645.6L594.3 646.1L594.1 646.4L593.6 647.4L593.1 649.9L592.9 652.3L593 653.6L593.4 654.8L594.1 655.6L594.9 656.3L598.2 658.2L599.9 659.1L600.8 659.6L601.5 660.5L602.1 662V663L601.6 663.9L600.8 664.5L599.9 664.8L590.7 666.1L588.8 666.6L588 666.9L587.1 667.4L586.2 668L584.6 669.6L583.2 671.2L581.4 673.8L581 674.7L580 678.2L579 684.4L578.4 686.5L577.8 688L577.4 689.1L577 691.1L577.3 692.3L577.9 693.2L578.7 693.7L579.6 694L582.6 694.6L590 694.9L600.1 693.4L601 693.5L601.7 693.9L602.2 695.4L602.3 696.7L602 698.2L601.6 699.3L600.9 700.4L594.4 707.4L592.5 710L588.9 718.1L586.6 725.4L586 726.9L585.7 727.4L585 728.3L584.3 729.8L583.5 732L582.6 736.6L581.9 738.8L581.1 740.3L580.5 741.1L580 741.9L578.5 745L577.8 745.8L576.9 746.2L576.2 745.9L575.6 745.3L574.6 743.7L574 743L573.2 742.5L572.3 742.3L571.5 742.4L569.4 742.7H568.4L567.4 742.5L566.5 742.1L563.1 739.3L561.5 738.2L560.6 737.9L559.7 737.8L558.7 737.9L556.6 738.6L532.9 749.9L532.1 750L531.3 749.9L524.9 748.2L523.2 748.1L522.3 748.2L521.4 748.5L520.3 748.8L519.4 749.3L518.3 750.2L517.2 751.3L515.9 753.4L515.3 754.7L515 755.9V756.7L515.3 758.5L516.6 763.2L517 767.6V768.2L516.4 770.7L515.9 772L515.3 773.3L510.1 780L507.5 782L506.3 782.7L504.5 783.6L502.6 784.2L500.9 784.5L497.1 784.7L495.2 785L493.4 785.5L491.5 786.4L490.5 787.2L489.5 788.2L488.4 789.9L487.9 791.1L487.6 792.2L487.8 793.1L488.2 794L488.8 794.7L489.6 795.5L492.9 797.9L493.6 798.7L494.1 799.6L494.2 799.8H494.3L494 800.4L490.3 807.9L490 808.1L489.3 808.5H486.5H479.3H472H464.8H457.5H450.3H443H435.8H428.5H421.3H414H406.8H399.5H392.3H385.1H377.8H370.6H363.3H356.1H348.8H341.6H334.3H327.1H319.8H312.6H305.4H298.1H290.9H283.6H276.4H269.1H261.9H254.6H247.4H240.1H232.9H225.6H218.4H211.2H203.9H196.7H189.4H182.2H174.9H167.7H160.4H153.2H145.9H138.7H131.4H124.2L117 808.4H109.7H102.5H95.1998H87.9998H80.6998H73.4998H66.1998H58.9998H51.7998H44.4998H37.1998H29.9998H24.0998H22.7998V785V761.5V737.9V714.3V690.7V666.9V643.2V619.4V595.5V571.6V547.6V523.5V499.5V475.3V451.1V426.8V410.5V394.7V387.3V359V346.2V342.9Z" fill="#03235A" stroke="white" stroke-width="0.5" stroke-linecap="round" stroke-linejoin="round"/>
<path d="M604.8 122.7L606.2 130.7L607.1 148.2L607.7 150.1L608.4 151.2L608.9 152L593.8 162.6L593.6 162.2L591.9 160.5L590.3 159.7L590.7 158.9L591.5 158.1L591.9 157.8V155.4L590.9 153.7L587.9 150.7L588.5 150.3L588.8 149.9L588.7 149.5L588.3 149L588.7 148.8L588.9 148.7L588.7 148.5L588.3 148.4L588 147.9L587.7 147.4L587.3 147L587.1 146.6L587.2 146.4L587.4 146.2L587.7 146.1L588.3 146V145.5L588.1 144.9V144.4L588.3 143.6H587.9L586.9 145.7L586.8 146.6L587 147.3L587.4 147.8L587.8 148.4L587.9 149.5H587.3L587.1 148.4L586.5 147.9L585.7 147.8L584.8 148.4L583.5 147.9L582.1 148.8L580.8 150.4L580.1 151.9V153.5L580.5 154.7L581.6 155.6L583.2 156L581.9 157.1L575.7 165.9L575.3 166.6L574.6 167.4L572.4 171.4L572 172.8L571.9 176.3L571.5 177.7L570.4 178.9V179.6L571.2 180.2L572.1 181.4L572.8 182.6L573.4 184.4L574.2 185.3L578 187.8L578.9 188.6L582.3 192.6L584.7 194L586.8 196.2L588.6 198.7L589.3 200.3L589.6 202.4L590.4 205.3L591.4 207.9L592.4 209.4V210L592.1 211.5L594.2 219.9H587L585.6 220.1L582.5 221.1L580.4 222.4L557.7 232.4L556.1 232.9L555 233.1L548.9 232.8L538.7 234.3L535.6 232.8L540.3 167.2L540 163.2L540.6 155.6L539 137.9L537 129.5L536.9 124.6L563.7 123.7L570.2 124.2L572.3 125.6L573.4 126.1L574.7 126.5L578.6 127.1H579.5L579.9 127L582 126L582.4 125.8L585.3 123L585.9 122.7L588.3 121.9L590.6 121.7L604.8 122.7Z" fill="#03235A" stroke="white" stroke-width="0.5" stroke-linecap="round" stroke-linejoin="round"/>
<path d="M608.9 152L629.5 151L677 159.5L696 169.7L711.1 175.5L719.8 180.1L729.1 183.5L760.1 188.4L759.4 188.8L758.7 189.3L758.2 189.9L757.7 190.7L757.3 191.7L757 192.5L756.6 193.2L755.7 193.6L755.9 193.7H756.1L756.2 193.8V194.2L755.6 194.5L755.1 195L754.9 195.5L755.2 196L754.5 196.1L754.1 196.3L754.2 196.7L754.7 197.1L753.8 197.9L752.1 200.6L751.7 201L750.9 201.4L750.6 201.7L750.3 202.3L750 202.8L749.7 203.2L749 203.6V204.1L749.7 205.3L749.4 206.5L748.9 207.7L748.5 208.8V213.2L748.1 214.2L747.2 215L746.3 215.6L745.9 216.1V217.3L745.6 218.7L745.1 220L744.4 221.1L744.6 222.1L744.4 227.2L744.6 228L745.3 229.1L745.5 230.1L745.3 231.1L744.7 231.6L744 231.8L742.4 232.9L742.1 233.4L741.9 234.5V235L742.3 236.7L742.4 241.8L740.4 243.3V243.8L740.6 244.6L740.8 245.7V246.9L740.4 247.9L740.7 248.3L740.9 248.6L741.4 249.6L740.7 250.1L740.6 250.6L740.7 251.1L740.9 251.7L740.7 252.6L740.4 253.2L740 253.6L739.8 254L739.4 255.5L737.7 258L736.7 261.9L733.7 266.4L732.7 268.9L732.6 269.1L732.7 269.3L732.6 269.4H732.2L733.2 272L732.3 273.6L730.6 274.9L729.1 276.4L729.3 276.6H729.4L729.6 277L728.6 277.5L728 278.6L727.3 282.4L727 283.3L726.2 284.7L726 284.8L725.8 285.7L724.7 287.8L724.5 288.9L724.6 290.3L724.8 291.4L725.1 292.3L725.5 293.2V293.8L724.9 295.2L725.6 296.4L726.5 297.6L727.2 299L727.9 299.6L728.1 300.1V300.7L727.9 301.1L727.7 301.3L727.6 301.6L727.5 302.7L726.9 305.6L726 308L727.3 310.3L726 316.3L726.6 316.9L724.6 317.2L724 317.5L723.8 318L723.6 318.8L723.2 319.5L722.3 320.1L721.8 321.3L721.2 321.6H720.6L719.6 322L718.9 322.1L719 322.4V322.5H719.1L719.4 322.7L718.9 324L718.1 326.5L717.4 327.3H716.9L716.6 326.9L716 326.7L715.5 326.3L715 326.8L714.5 328.7L713.8 329.6L714.4 330.7L713.5 331.6L712 332.2L711 332.4H710.3H710.1L710.4 333.7L710.7 334.2L713.4 334.3V334.8H712.8V335.4L713.2 335.7L713.4 336.1L713.8 337.1L713.1 336.7L712.8 336.5L712.9 336.8V337L713 337.1H713.4V337.7H712.8L712.4 337L711.1 335.2L709.7 333.7L709.1 333.2L708.3 332.8L707.2 332.4L700 331.7L698.3 330.5L693.3 324.4L692.9 324.1L692.3 324.2L688 320.3L687.1 319.8L686.1 319.7L685.2 320.4L684.2 318.1L683.7 318.6L683 317.8L680.4 315.6L679.8 315.3L679.6 315.2L679.3 314.8L679.1 314.1L678.8 313.8L678.3 313.3L677.8 313.1L676.6 312.8V310.7L673.1 308.5L673 307L672 306.1L670.7 304.4L669.8 302.5L670 301.3L669.6 301L669.3 300.9L669.1 300.6L668.9 300.1H668.4V300.7H667.9L667.7 300.3L667 299.6L666.9 299.3L665.8 295.2L665.4 294.5L664.8 294.9L664.3 293.8L662.5 291.2L661.8 289.8L652.1 283.9L651.6 283L651.3 282.9L649.5 279.8L648.1 278.5L647.2 277.5V277L642.5 273.5L641.7 272.7L641.4 272L641.1 271.3L640.5 270.3L639.7 269.3L638.8 268.9L639.3 268.2V268.9H639.8L639.3 266.1L638.1 265.9L637.4 267L638.8 268.2L637.6 267.8L636.8 266.7L636.4 265.2L636.1 261.8L635.6 260.3L634.3 257.8L635 256.1L636 252.2L636.7 250.2L635.8 249.1L635.4 248.4L635 246.7L634.5 246.3L633.8 246.1L633.2 245.6L632.8 244L632.5 240.2L632.2 239.1V238.6L632.9 237.8L633 237.1L632.7 235.1L632.5 234.7L632.2 233.5L632.1 232.2L632.5 231.6L633 231L632.5 229.9L631.6 228.9L631.2 229L631 228.1L630.6 227.4L629.9 227.2L629.2 227.5L628.4 226.5L626.4 225.4L625.6 224.6L624.7 222.5L624.5 222L624.3 221.5L623.2 220.6L623 220.2L622.7 220.1L621.5 218.2L621.3 218L620.7 217.7L620.4 217.6L620.3 217.3L620.1 216.6L620 216.4L616.6 212.9L615.4 212.5L613.8 211.6L612.2 210.5L611.2 209.4L610.8 208.1L610.5 206.3L610 204.8L609 204.1L608.3 203.9L607.8 203.2L606.3 199.5H606.2L606.4 196.3L606.1 194.8L604.1 193.9L600.5 191.2H601.1L600.8 190.6L600.5 190.3L600.1 190.2L599.5 190.1L599.7 189.9L599.9 189.7L600.1 189.4L600 188.9H599.5L599.2 189.6L599 190.3L599.1 190.8L599.5 191.2H598.5L599.1 188.1L599.2 184.1L598.3 180.6L596 178.9V178.4L596.4 177.4V176.2L596.1 174.9L596 173.7L596.2 172.4L596.8 170.7L597 169.8L596.9 168.4L596.7 167.5L596.4 166.8L596 166L594.2 163.7L593.9 162.8L593.8 162.6L608.9 152ZM737.8 318.6L739 319.7L740.4 320.9V321.6L737.5 321.8L734.9 321.6L732.8 320.7L731.3 318.8L731.2 318.6L731.3 317.5L731 315.9L730.6 315.2L730.9 314.8L731 314.7L731.2 315.2L731.4 314.5L731.8 314L732.2 313.7L732.7 313.5L734 314.2L734.4 314.6L734.7 315.2L732.8 315.6L731.9 316L731.7 316.9L732 317.3L732.3 317.6L733.6 317.7L735.7 317.4L736.7 317L736.8 317.2H737L737.4 317.8L737.7 318.4L737.8 318.6ZM748.7 318.5V321.7L746.7 322.6L744.9 322L743.5 320.7L745 318.3L748.7 318.5Z" fill="#03235A" stroke="white" stroke-width="0.5" stroke-linecap="round" stroke-linejoin="round"/>
<path d="M589.9 52.8V52.9L590.1 60.5L568.5 47.9L566.9 48.3L566.8 43.5L566.7 43.4H566.9L567.2 40.9L567.3 39.6L566.9 38.2L565.6 36.6L565.4 35.8L566.4 35.1L565.2 34.5L564.4 34.2V33.7V33.1L567.7 33.7L568.7 34.5H569.1L570 34.6L570.2 36L570.9 37.2L572 37.9L574.3 38.5L575.2 39.3L576.6 41.1L579.7 44.2L581.1 45.3L583.2 48.9L585.2 50.7L587.4 52.1L589.9 52.8Z" fill="#03235A" stroke="white" stroke-width="0.5" stroke-linecap="round" stroke-linejoin="round"/>
<path d="M564.4 33.1V33.7V34.2L563.7 33.9L562.2 33.7L561.2 34L560.7 32.5L561.6 32.6L562.6 32.7L564.4 33.1ZM530 34H530.1L530 33.8H529.9L529.8 33.7L529.7 33.4L530.7 33.8L531.2 34H531.9L532.5 34.4L532.7 35.2V35.9L533 36.3L533.8 36.5L535 37.1L536.1 37.9L536.8 38.7L537.4 37.3L537.8 36.7L538.3 36.3L538 37.1L537.9 37.7L538 38.1L538.3 38.7H537.3V39.3H538.3L538.1 39.5L537.9 39.7L537.7 39.9L537.8 40.5H538.2L538.4 40.3L538.5 40.1L538.8 39.9L538.9 40V40.2L539 40.4L539.3 40.5V39.9H539.8L539.5 41.1L539.8 41.9H540.4L540.9 40.5L541.7 40.4L542.9 39.2L544.3 38.2L546 38.7H544.9V39.3L546 39.9L546.2 39.5L546.7 39.1L547 38.7L548.1 39.3V39.9L547.8 40.3L547.6 40.6L547.5 41.7L548.3 41.3L548.6 41.1L548.5 41.9L548.3 42.3L548 42.7L547.5 42.9V43.4L548 44.2V45.1L546.5 46.5V47.1H547.3L547.9 46.9L548.4 46.5L548.6 45.9H549L549.1 46.8L549.2 47L546.9 48.5L546.2 48.8L546 48.9L544.7 48.8H544.3L544.1 48.9L541.8 50.8H541.6L541.4 50.9L540.6 51L537.1 51.8L536 51.9H535.9L535.3 52.2L535 52.3H534.8H534.7L534.3 52.2L533.8 51.9H533.6H533.4H533.1L532.5 52.3H532.3L531.7 52.4H531.4L531.1 52.5H530.9H530.6L530.1 52.4H529.7H529.3L529.2 52.5L528.8 53L526.1 58.1L522.2 62.8L521.5 64.2L521.1 65.3L520.6 66.1L519.6 66.8L519.1 67.1L518.3 67.3L517.6 67.6L517 68.2V69.2L517.3 70.6L517.2 71.4L516.7 72.1L514.5 74.1L513.7 75.1L512.5 75.8L511.6 75.9L509.1 75.6L508.4 75.8L507.2 76H506.5L505.8 75.8L502.2 75.9L500.7 76.2L499.5 76.7L498.8 77.3L498.2 78L497.7 79L497.5 80.2V81.9L498.1 84.9L498.5 87.4L498.9 88.9L499.1 89.7L499.2 91.4L498.9 93.2L497.1 95.1L495.5 94.7L494.9 95.1L493.9 95.4H492.9L491.9 94.7L489.7 93.9L490.9 89.9L491 87.6L490.1 83.6L489.9 81.3L489.7 80.6L489.4 80.4H489L488.8 80.1L488.3 78L488 74.3L487.3 73.6L487 73L486.8 72.3L487.2 72L488.8 71.5L489.3 71.2L489.7 71.1L489.8 70.9L489.9 70L489.7 69.6L489.3 69.2L488.8 68.8L488.3 68.5L488.9 68.4L489.2 68.2L489.5 68L489.9 67.9L488.9 66.9L489.1 66.3L489.9 65.6L490.4 64.9L490.3 63.8L490 63.1L489.7 62.4L489.9 61.3L490.5 60.5L491.3 60.2L492.1 60.1L493 59.6L493.1 59.2L493.6 56.7L493.5 56.1L493.6 55.6L493.3 55.4L492.9 55.3L492.2 55.7L491.5 55.8L490.7 56L490.1 56.4L489.3 56.7L489.1 56.6L488.4 56.3L487.9 56.2L487.5 56L487.1 55.5L487.2 54.8L487.9 52.5L488.4 48.4L488.5 48.2L488.7 48.3L488.9 48.5L489.4 48.6L490.6 48L491.2 47.5L492 47H492.7L493.2 46.8L492.9 46L491.6 44.8L491.2 44.1L491.1 43.3L491.8 41.4L492.1 39.9L492 37.4L491.8 35.9L491.7 34.4L491.9 30.5V27.8L491.2 22.6L491 21.7L490.7 20.9L489.6 19.7L489.3 19.3L489.1 18.5L489.2 17.8L489.3 17L489.6 16.5L491.5 15L496.9 12.1L499 13L502.1 15.4L509.8 19L512.3 19.6H513.4V19.7L513.1 20.5L512.9 21L512.6 21.6L512.1 22.2L509.5 24.1L508.2 25.6L508 25.9L508.1 26.4L508.7 26.9L512.1 27.4L512.5 27.6L512.7 28.2L512.6 28.8V29.4L512.9 29.8L513.4 30.1L513.9 29.9L514.5 30L515.4 30.8L515.9 31.1H516.4L516.8 31.5L517.3 32.6L517.6 32.7L518 32.9L518.8 32.6L519.3 32.1L519.4 31.6V31.3L519.2 30.5V30.2L519.3 29.8L520.8 29.2H521.2H521.6L521.9 29.8L522.1 30.5L522.3 31.2L522 31.5V32.2L522.5 32.9L522.2 33.3H521.6L521 32.7H520.5L520.3 33L520.1 33.3L519.9 34L521.3 34.7L521.2 35.7L520.1 36.6L518.7 37H517.4V37.4L517.8 38.1L517.9 39.3L516.5 41.2L515.3 41.6L515.5 42.7L515.8 43.5L516.3 43.9L517.2 43.8L521.3 40.2L523.3 39.2L526.6 38.3L528.9 36.8L530 34ZM552.3 26.4L553.1 26.7L554.9 28.8L555.4 29.2L556.4 29.7L559.4 32L560.2 32.5L557.9 32L550.5 27.4H550.9H551.3L551.5 27.5L552 28L551.9 27.4L551.5 27V26.9L551.8 26.8L552.3 26.4Z" fill="#03235A" stroke="white" stroke-width="0.5" stroke-linecap="round" stroke-linejoin="round"/>
<path d="M566.7 43.4L566.8 43.5L566.9 48.3L565 49.2L562.3 49.9L555.9 50.6L555.6 50.1L556.8 50L557.2 50.1V49.4H556.8V49.3V49.2L556.7 48.9L556.8 48.8L557.7 48.3V48.8L557.9 48.9L558.3 48.8L558.7 48.9L558.4 48L559 47.3H559.8L560.6 48.7L561.6 49.1H562.7L563.8 48.9L565.6 47.9L566.4 46.3L566.2 44.7L564.8 43.4H566.6H566.7ZM497.1 95.1L498.9 93.2L499.2 91.4L499.1 89.7L498.9 88.9L498.5 87.4L498.1 84.9L497.5 81.9V80.2L497.7 79L498.2 78L498.8 77.3L499.5 76.7L500.7 76.2L502.2 75.9L505.8 75.8L506.5 76H507.2L508.4 75.8L509.1 75.6L511.6 75.9L512.5 75.8L513.7 75.1L514.5 74.1L516.7 72.1L517.2 71.4L517.3 70.6L517 69.2V68.2L517.6 67.6L518.3 67.3L519.1 67.1L519.6 66.8L520.6 66.1L521.1 65.3L521.5 64.2L522.2 62.8L526.1 58.1L528.8 53L529.2 52.5L529.3 52.4H529.7H530.1L530.6 52.5H530.9H531.1L531.4 52.4H531.7L532.3 52.3H532.5L533.1 51.9H533.4H533.6H533.8L534.3 52.2L534.7 52.3H534.8H535L535.3 52.2L535.9 51.9H536L537.1 51.8L540.6 51L541.4 50.9L541.6 50.8H541.8L544.1 48.9L544.3 48.8H544.7L546 48.9L546.2 48.8L546.9 48.5L549.2 47L549.4 47.5L549.8 48L550.5 48.3V48.9L549.8 49.1L549.2 49.4L548.8 49.9L548.6 50.7L549 50.8L549.5 51.3L550.3 50.8L550.9 50.7L551.5 50.9L552 51.3V51.8H551.5V52.5L552.3 53.1L553.2 53.6H554.2L555.1 53V52.5L554 52.4L553.3 51.9L552.8 51L552.6 50.1L553.7 50.3L555.2 51.1L555.9 51.2L556 51.7L557.2 53.4L558.3 54.1L559.6 55.1L560.3 57.7V58.7L560.2 59.8L559.8 61.2L557.6 64L556.5 67.2L555.5 69L555 70.5L554.1 72.7L554 76L555 80.6L554.2 82.8L552.6 86.2L547.7 92.7L545.4 95.1L543.4 96.4H541.2L539.3 96.7L538.2 97.1L536.2 97.4H532.9L532.7 97.3L529.3 96.3H529H528.9L528.4 96.2L528.1 96.1L527.9 96.3L527.7 96.6V97.5L528 98.4L528.9 99.5L529.7 100.1L530.4 101.1L531.1 103.3L531.4 106.4L533.6 115.4L515.1 128.2L499.6 120.5L498.8 119.7L498.2 118.9L497.6 117.2L496.9 115.8L496.4 113.7L495.7 112.5L494.9 111.6L494.2 111L493.7 110.2L492.9 108.6L491.7 107.6L491.1 107L491.3 104.6L492.2 101.5L492.3 100L492.7 99.1L493.6 98L495.5 96.6L497.1 95.1Z" fill="#03235A" stroke="white" stroke-width="0.5" stroke-linecap="round" stroke-linejoin="round"/>
<path d="M590.1 60.5L593.2 90.5L593.3 98.2L593.6 100L593.8 101.2L594 101.5L600.8 112.5L604.8 122.7L590.6 121.7L588.3 121.9L585.9 122.7L585.3 123L582.4 125.8L582 126L579.9 127L579.5 127.1H578.6L574.7 126.5L573.4 126.1L572.3 125.6L570.2 124.2L563.7 123.7L536.9 124.6L533.6 115.4L531.4 106.4L531.1 103.3L530.4 101.1L529.7 100.1L528.9 99.5L528 98.4L527.7 97.5V96.6L527.9 96.3L528.1 96.1L528.4 96.2L528.9 96.3H529H529.3L532.7 97.3L532.9 97.4H536.2L538.2 97.1L539.3 96.7L541.2 96.4H543.4L545.4 95.1L547.7 92.7L552.6 86.2L554.2 82.8L555 80.6L554 76L554.1 72.7L555 70.5L555.5 69L556.5 67.2L557.6 64L559.8 61.2L560.2 59.8L560.3 58.7V57.7L559.6 55.1L558.3 54.1L557.2 53.4L556 51.7L555.9 51.2L556.2 51.3L555.9 50.6L562.3 49.9L565 49.2L566.9 48.3L568.5 47.9L590.1 60.5Z" fill="#03235A" stroke="white" stroke-width="0.5" stroke-linecap="round" stroke-linejoin="round"/>
<path d="M530 34L528.9 36.8L526.6 38.3L523.3 39.2L521.3 40.2L517.2 43.8L516.3 43.9L515.8 43.5L515.5 42.7L515.3 41.6L516.5 41.2L517.9 39.3L517.8 38.1L517.4 37.4V37H518.7L520.1 36.6L521.2 35.7L521.3 34.7L519.9 34L520.1 33.3L520.3 33L520.5 32.7H521L521.6 33.3H522.2L522.5 32.9L522 32.2V31.5L522.3 31.2L522.1 30.5L521.9 29.8L521.6 29.2H521.2H520.8L519.3 29.8L519.2 30.2V30.5L519.4 31.3V31.6L519.3 32.1L518.8 32.6L518 32.9L517.6 32.7L517.3 32.6L516.8 31.5L516.4 31.1H515.9L515.4 30.8L514.5 30L513.9 29.9L513.4 30.1L512.9 29.8L512.6 29.4V28.8L512.7 28.2L512.5 27.6L512.1 27.4L508.7 26.9L508.1 26.4L508 25.9L508.2 25.6L509.5 24.1L512.1 22.2L512.6 21.6L512.9 21L513.1 20.5L513.4 19.7V19.6L515.3 19.5L526.6 16.3L533.2 12.4L535.9 11.5L538.8 11.6L541.2 12.8L542.3 15.1L542.6 16.2L545 19.4L546 21.9L547.2 23.4L549.5 25.5L550.3 25.9L552.2 26.3L552.3 26.4L551.8 26.8L551.5 26.9V27L551 26.8L549.5 26.6L549.1 26.3L548.9 25.9L548.6 25.5L546.6 24.5L545.8 23.8H545.5H544.9L544.7 22.6L544.2 21.6L543.6 20.8L542.9 20.2H543.9L544.8 20.1L541.1 15.4L540.3 14L539.2 12.6L538.3 12.1V12.4L537.1 11.9L536.6 12.2L536.3 13L535.3 12.4V12.7V13.3V13.6L535 13.4L534.5 13.2L534.2 13V13.7L534.1 14.2L533.7 14.8H535.3L534.9 15.8L536 17.9L535.8 19.1H536.3V19.6H535.8L535.9 20L536.2 20.4L536.3 20.8H535.8L535.5 19.8L535 19L534.3 18.5L533.2 18.4L533.5 17.8L533.2 17.7L532.7 18.2L532.2 19.6L532.7 19.7L532.9 19.6L533.2 19.1L533.8 19.5L534.2 19.6H534.8V20.2H534.2V20.8L534.5 21.4L534.9 21.7L535.5 21.9L536.3 22L535.8 22.5L535 22.7L534.3 22.5L533.7 22H533.2L533.3 22.4L533.1 22.5H532.9L532.7 22.6L533 22.9L533.3 23.2L533.7 23.8L532.7 25.1L532.5 26.1L533.2 26.7H534.8V27.4L533.8 27.2L533 26.9L532.3 26.8L531.7 27.4H531.2L530.7 26.9H530.2L529.8 27.4L529.7 28.3L530 28.7L530.5 29.1L530.6 29.4L529.7 29.8V30.3L530.1 31.1L529.6 31.4L528.7 31.7L528.1 32.2L528 33.4L528.4 34.2L529.2 34.4L530 34Z" fill="#03235A" stroke="white" stroke-width="0.5" stroke-linecap="round" stroke-linejoin="round"/>
<path d="M496.9 12.1L491.5 15L489.6 16.5L489.3 17L489.2 17.8L489.1 18.5L489.3 19.3L489.6 19.7L490.7 20.9L491 21.7L491.2 22.6L491.9 27.8V30.5L491.7 34.4L491.8 35.9L492 37.4L492.1 39.9L491.8 41.4L491.1 43.3L491.2 44.1L491.6 44.8L492.9 46L493.2 46.8L492.7 47H492L491.2 47.5L490.6 48L489.4 48.6L487.8 47.2L487.4 46.9L486.7 46.7L485.9 46.6L485 46.7L484.2 47.1L482.6 48.6H481.8L480.1 47.9L476.1 47.7L475.5 48.4L475.4 49.2V50.1L475.5 51.6V52.1L475.2 52.8L474.9 53.5L474.5 55.2L473.8 56L472.6 56.5L467.3 56.9L466.6 57.1L465.9 57.5L465 58L464.8 58.2L464.7 58.3L464.8 58.6L464.6 58.8L464 59L462.9 58.9L461.8 59L460.5 59.5L459.6 59.7L455.2 58.1L455 58L454.5 57.8L453.9 57.9L453.3 59.6L452.5 58.3L451.2 57.1L450.6 56.5L450.4 55.8L450.6 54.5V53.6L450.2 52.8L449.2 51.4L449 51L448.5 50.2L444.9 48.2L441.5 43.2L440.9 42.5L440.1 42.2L439.7 42L438.9 40.8L438.3 40.5L437.7 40.6L437.4 40.8L437.2 41L436.8 41.1V41.2L435.5 41.1V40.6L435.1 38.2L434.7 37.5H434.2V38.1H433.8L433.6 37.9V37.8L433.5 37.7L433.2 37.5V37L434.1 36.1L434.7 34.7L435.1 33L435.3 31.2L435.2 30.3L435 29.6L434.7 29.1L434.2 28.6L433.9 28.4L433.3 28L433 27.7L432.4 27.3L432 27.7L431.7 28.3V28.6L431 28.3L430.5 27.9L430.2 27.3L430.1 26.5L429.8 25.6L429.1 25.2L428.4 25L428.1 24.7L428.2 22.5L428 20.8L427.3 19.8L426.1 19.6L424 18L422.9 15.4L423.4 13.9L426.1 15.4L428.1 17L430.4 17.9L433.1 18.2L436.3 17.8L446.8 15L468.9 7.1V7.7L467.8 7.8L460.9 10.4L455.2 13.8L451.2 15.6L448 17.8L447.6 18L446.6 18.2L446 18.4L443.2 20.4L441.9 20.8L438.9 21.1L438.3 21.4H437.9L436.8 23.2V23.8L438.3 24.2H438.9L439.3 23.8H439.8L441 24.5L443.1 24.4L445.1 23.7L446 22.9L446.7 21.5L448.2 21.9L449.7 23.2L450.6 24.4H451.1L451.6 22.9L452.7 21.4L454.1 20.2L455.2 19.6L455.9 19.3L456.7 19.7L457.6 20.3L458.7 20.8L459.5 20.7L460.4 20.5L461.5 20.4L462.3 20.8L462.1 20.9H461.9L461.8 21V21.4L462.8 21.7L464.1 21.3L465.4 20.5L466.4 19.6L466.2 19.5H466L465.9 19.4V19.1L466.2 18.9V18.8V18.7L466.4 18.4L468.9 19.5L469.4 20.2L470.1 19.6L470.6 18.9L471.5 17.2L471 16.4L471.3 15.9L472.5 14.8L472.7 14.3L472.6 13.8V13.4L473 13L473.5 12.9L476.2 13.1L476.9 13.4L478.1 14.2L478.3 14.6V15L478.4 15.3L479.1 15.4L479.7 15.3L480.2 14.8L480.5 14.3L479.1 13.6L479.6 13.3L480.1 13.1L480.6 13.2L479.1 11.2L476.1 8.9L472.6 7.4L469.2 7.3L469.9 6.9L471.8 6.2L478.1 5.2L480.4 5.5L487.3 7.7L496.9 12.1Z" fill="#03235A" stroke="white" stroke-width="0.5" stroke-linecap="round" stroke-linejoin="round"/>
<path d="M420.9 153.3L372 122.9L368.5 115.6L372.9 104.8L376.2 101.3L388.4 95.5L391.1 93.6L393.5 91L395.3 88.2L397.3 84.4L396.3 81.1L395.3 79L391.8 74.8L387.1 67L386.5 65.4L386.3 63.4L387.4 61.3L388.7 59.8L389.6 58.2L389.7 57.8L389 55.4L387.5 54.6L387.1 53.7L386.8 53.3L386.7 53L386.6 52.7L386.5 52V51.6L386.6 51.3L386.7 51.2L387.1 50.9L391.4 49L396.4 46L397.3 45.3L399.3 42.4L403.6 34L403.7 33.4L406.5 34.3L409.3 34.6L408.6 35L407.8 35.9L407.2 36.3L407.1 36.8L407.2 36.9H407.5L407.7 37L406.8 37.6L407.1 38.2L407.9 38.9L408.7 39.3L411.8 37.5L411.4 38.5L411.8 39L412.5 39.1L412.8 39L413.1 38.5L415.4 36.3L415.6 36.7V36.8L415.9 37L416 36.5L416.2 36.2L416.3 35.8L416.4 35.1H416.9L416.8 36.1L417 36.8L417.4 37.2L417.9 37.5L418.2 36.9L419 34.6L417.8 34L416.8 34.2L415.7 34.8L414.3 35.1V34.6L414.6 34.5L415.1 34.6H415.4V34L414.2 34.4L409.8 34.6V34L412.5 33.3L415.1 31.8L419.7 27.7L421.3 25L422.3 21.5L422.6 17.9L422 14.8H422.5L422.9 16.5L423.5 18.1L424.6 19.3L426.1 19.6L427.3 19.8L428 20.8L428.2 22.5L428.1 24.7L428.4 25L429.1 25.2L429.8 25.6L430.1 26.5L430.2 27.3L430.5 27.9L431 28.3L431.7 28.6V28.3L432 27.7L432.4 27.3L433 27.7L433.3 28L433.9 28.4L434.2 28.6L434.7 29.1L435 29.6L435.2 30.3L435.3 31.2L435.1 33L434.7 34.7L434.1 36.1L433.2 37V37.5L433.5 37.7L433.6 37.8V37.9L433.8 38.1H434.2V37.5H434.7L435.1 38.2L435.5 40.6V41.1L436.8 41.2V41.1L437.2 41L437.4 40.8L437.7 40.6L438.3 40.5L438.9 40.8L439.7 42L440.1 42.2L440.9 42.5L441.5 43.2L444.9 48.2L448.5 50.2L449 51L449.2 51.4L450.2 52.8L450.6 53.6V54.5L450.4 55.8L450.6 56.5L451.2 57.1L452.5 58.3L453.3 59.6L452.4 60.2L452.5 60.7L454.3 63.5L454.6 64.9L454 66L453 67.2L452.8 68.1L454.4 68.5L455.2 68.8L455.5 69.6L455.4 70.6L455.2 71.5L454.9 72L453.1 73.2L455.4 72.7H456.5L457.2 73.2L457.1 74L456.1 74.5L454.2 75L453.8 75.5L453 76.5L452.5 77.7L452.6 78.6L453.6 79L454.6 78.7H455.4L455.7 80.1L455.3 80.4L454.6 81.6L454.1 82.8L454.4 83.4L455.1 83.7L455.5 84.7L455.7 85.9L455.8 89.6L456.3 91.7L457.2 93.2L458.8 94V94.6L457.9 95L457.6 95.6L457.5 96.3L457.7 97L458.1 97.4H458.6L459.2 97.3L459.8 97.5L459.7 98.8L459.3 99.9L458.8 100.9L458.3 101.7L459.3 103.7L459.6 104.6L459.8 105.6L459.6 106.4L459.3 107.6L459.1 108.8L459.3 110L461.4 111.5L461.9 112.5L458.4 113.5L457.9 114.6L458.4 115.9L423.9 147.1L420.9 153.3Z" fill="#03235A" stroke="white" stroke-width="0.5" stroke-linecap="round" stroke-linejoin="round"/>
<path d="M368.5 115.6L366.5 57.4L366.9 57.1L367.4 56.3L368 55.7L379 47.6L380.1 45.3L382.2 45.8L384.4 44.8L387.8 41.7L387.1 40.7L386.9 40.8L386.2 41.1L386.7 40.2L387.2 39.6H387.8L388.3 40.5H388.8L389.7 39.6L393.1 36.4L394.2 35.8L395.2 35.3L396.6 33.2L397.2 32.7L398.3 32.5L398.9 32.1L399.4 31.5L400.1 31L399.8 30.9H399.6L399.5 30.7L399.6 30.3L401.6 29.2L401.4 31.7L403.5 33.4H403.7L403.6 34L399.3 42.4L397.3 45.3L396.4 46L391.4 49L387.1 50.9L386.7 51.2L386.6 51.3L386.5 51.6V52L386.6 52.7L386.7 53L386.8 53.3L387.1 53.7L387.5 54.6L389 55.4L389.7 57.8L389.6 58.2L388.7 59.8L387.4 61.3L386.3 63.4L386.5 65.4L387.1 67L391.8 74.8L395.3 79L396.3 81.1L397.3 84.4L395.3 88.2L393.5 91L391.1 93.6L388.4 95.5L376.2 101.3L372.9 104.8L368.5 115.6Z" fill="#03235A" stroke="white" stroke-width="0.5" stroke-linecap="round" stroke-linejoin="round"/>
<path d="M536.9 124.6L537 129.5L539 137.9L540.6 155.6L540 163.2L492.6 165.2L492 164.1L492.5 163.1L493 161.3L492.9 158.1L492.4 154.5L491.4 151.2L490.4 149L488.5 146.8L487.7 145.5L487.3 143.9L488.5 134.7L493.6 132.8L493.9 132.6L494.1 132.5L494.3 132.2L494.4 132L494.6 131.6L494.7 130.9L494.8 130.6L494.9 130.5L495.1 130.4L495.4 130.5L495.9 130.7L496.2 130.9L496.5 131L497 130.9L497.9 130.5L498.3 130.2L500 129.4L503.6 128.7L515.1 128.2L533.6 115.4L536.9 124.6Z" fill="#03235A" stroke="white" stroke-width="0.5" stroke-linecap="round" stroke-linejoin="round"/>
<path d="M535.6 232.8L508.2 224.5L506.7 223.8L504.5 222.5L503.1 221.4L500.1 218.3L499.3 217.1L498.9 216.5L497.9 214.1L497.4 213.4L496.9 212.8L495.3 211.4L489.9 204.7L490.1 203.7V203V202.1L489.9 201.2L489.5 200.4L488.8 199.1L488.3 198.5L487.7 197.9L487 197.5L485.9 196.9L483.7 196.2L481.8 195.9L478.4 196L473.1 172L471 169.9L467.6 167.2L451.9 169.1L436.3 176.3L422.8 184.4L417.4 188.8L382.6 222.6L379.6 244.1L377.7 250.6L365.7 282.4L356.2 294.9L344.9 303.3L310.5 321.5L305.2 325.5L301.5 331.2L296.1 342.8H197.2L229.4 274L231.5 270.9L235 267L240.5 264.7L299.6 249.3L314.6 237.9L362.9 188.9L420.9 153.3L423.9 147.1L458.4 115.9L459.8 116.5L462.1 114.8L464.1 115.3L464.7 115.7L464.8 116.4V117.4L464.9 118.3L465.4 119.5H465.6L466.3 119.8L467.2 120.1L468 120.5L468.1 120.7L468.6 121.1L468.8 122L468.9 123.9L469.3 125.2L470.2 126.1L471.5 126.5L473 126.6L473.6 126.3L474.7 125.5L475.3 125.3L475.9 125.5L476.9 126.4L477.8 126.8L479.6 128.3L480.5 128.8L481.7 129.5L483.3 131.2L484.2 131.7L487.1 132L487.9 132.5L488.3 133.1L488.5 133.9V134.7L487.3 143.9L487.7 145.5L488.5 146.8L490.4 149L491.4 151.2L492.4 154.5L492.9 158.1L493 161.3L492.5 163.1L492 164.1L492.6 165.2L540 163.2L540.3 167.2L535.6 232.8Z" fill="#03235A" stroke="white" stroke-width="0.5" stroke-linecap="round" stroke-linejoin="round"/>
<path d="M466.7 254.3L464.3 275L463.9 276.8L463.5 277.7L459.9 284L457.7 289.6L457.3 291.5L457.1 293L457.2 293.9L458 297.8L458.3 301.4L458.5 302.4L458.8 303.4L462.8 311.3L464 314.6L464.4 316.9L465 324.9L465.4 326.8L467.1 331.3L467.5 332.9L467.8 335.5L467.9 337.5L467.8 338.8L466.5 346.8L458.5 347.8L457.7 347.7L453.4 345.9H452.9L452.2 346L449.8 346.5H448.4L446.4 345.7L446.7 344.6L447.6 342.8H296.1L301.5 331.2L305.2 325.5L310.5 321.5L344.9 303.3L356.2 294.9L365.7 282.4L377.7 250.6L453.6 248.8L455 250.2L466.7 254.3Z" fill="#03235A" stroke="white" stroke-width="0.5" stroke-linecap="round" stroke-linejoin="round"/>
<path d="M382.6 222.6L417.4 188.8L422.8 184.4L436.3 176.3L451.9 169.1L467.6 167.2L471 169.9L473.1 172L478.4 196L475.5 199L472.6 204.7L469.5 208.1L468.2 210.7L465.8 214.3L460.8 219.9L454.5 223.1L423.5 231.9L420 232.2L415 228.6L382.6 222.6Z" fill="#03235A" stroke="white" stroke-width="0.5" stroke-linecap="round" stroke-linejoin="round"/>
<path d="M489.9 204.7L489.6 208.3L489.8 211.7L489.7 212.9L489.2 214.4L488.3 216.2L487 219.7L486.1 221.6L485 223.2L481.7 226.8L479.6 229.5L475.3 236.5L470.3 243.2L468.8 246.2L467.4 250.1L466.8 252.6L466.7 254.3L455 250.2L453.6 248.8L377.7 250.6L379.6 244.1L382.6 222.6L415 228.6L420 232.2L423.5 231.9L454.5 223.1L460.8 219.9L465.8 214.3L468.2 210.7L469.5 208.1L472.6 204.7L475.5 199L478.4 196L481.8 195.9L483.7 196.2L485.9 196.9L487 197.5L487.7 197.9L488.3 198.5L488.8 199.1L489.5 200.4L489.9 201.2L490.1 202.1V203V203.7L489.9 204.7Z" fill="#03235A" stroke="white" stroke-width="0.5" stroke-linecap="round" stroke-linejoin="round"/>
<path d="M458.4 115.9L457.9 114.6L458.4 113.5L461.9 112.5L461.4 111.5L459.3 110L459.1 108.8L459.3 107.6L459.6 106.4L459.8 105.6L459.6 104.6L459.3 103.7L458.3 101.7L458.8 100.9L459.3 99.9L459.7 98.8L459.8 97.5L459.2 97.3L458.6 97.4H458.1L457.7 97L457.5 96.3L457.6 95.6L457.9 95L458.8 94.6V94L457.2 93.2L456.3 91.7L455.8 89.6L455.7 85.9L456.6 85.3L457.6 84.7L458.4 84.5L462.2 84L462.9 83.6L463.8 83.2L464.6 82.9L465.5 82.8H466.3L467.1 83.2L468.3 84.6L468.9 84.9L469.5 85L470.2 85.9L470.6 86L471.9 85.8L472.6 85.9L473 86L473.5 85.9L473.9 85.8L475.1 85.2H475.4L475.6 85.5L477.2 88.1L477.4 88.6L477.6 88.9L478 88.8L479.1 88.6L481.7 88.9L482.6 89.3L483.7 89.8L484.2 90.2L484.7 90.7L484.9 91.3L485.2 91.9L485.8 92.4L487.4 93.8L488 94.8L489.6 95.9L490.4 97L489.4 97.4L488.7 97L488.3 96.5L487.8 96.4L487.4 97L487.3 97.9L487.4 98.8L487.8 99.4V99.9L485.8 101.7L484.6 102.2L484.5 102.3L484.2 102.5V103.1L484.3 103.7L484.2 104.1L483.6 104.6L482.4 104.8L481.7 105.3L481 106.1L480.9 106.9V107.7L480.7 108.8L480.2 109.9L480 109.8L479.7 109.2L479.1 108.8H478.5L478.4 108.7L478.6 109V110L478.7 110.6L478.9 111.1L478.8 111.7L478.1 112.3L477.3 112.7H476.7L475 112.3L475.8 113.5L477.8 115L478.6 116V116.8L478.4 120.7L478.9 121.3L479.1 122.6V125.1L479.5 126.1L480.9 128L481.7 129.5L480.5 128.8L479.6 128.3L477.8 126.8L476.9 126.4L475.9 125.5L475.3 125.3L474.7 125.5L473.6 126.3L473 126.6L471.5 126.5L470.2 126.1L469.3 125.2L468.9 123.9L468.8 122L468.6 121.1L468.1 120.7L468 120.5L467.2 120.1L466.3 119.8L465.6 119.5H465.4L464.9 118.3L464.8 117.4V116.4L464.7 115.7L464.1 115.3L462.1 114.8L459.8 116.5L458.4 115.9Z" fill="#03235A" stroke="white" stroke-width="0.5" stroke-linecap="round" stroke-linejoin="round"/>
<path d="M489.7 93.9L491.9 94.7L492.9 95.4H493.9L494.9 95.1L495.5 94.7L497.1 95.1L495.5 96.6L493.6 98L492.7 99.1L492.3 100L492.2 101.5L491.3 104.6L491.1 107L491.7 107.6L492.9 108.6L493.7 110.2L494.2 111L494.9 111.6L495.7 112.5L496.4 113.7L496.9 115.8L497.6 117.2L498.2 118.9L498.8 119.7L499.6 120.5L515.1 128.2L503.6 128.7L500 129.4L498.3 130.2L497.9 130.5L497 130.9L496.5 131L496.2 130.9L495.9 130.7L495.4 130.5L495.1 130.4L494.9 130.5L494.8 130.6L494.7 130.9L494.6 131.6L494.4 132L494.3 132.2L494.1 132.5L493.9 132.6L493.6 132.8L488.5 134.7V133.9L488.3 133.1L487.9 132.5L487.1 132L484.2 131.7L483.3 131.2L481.7 129.5L480.9 128L479.5 126.1L479.1 125.1V122.6L478.9 121.3L478.4 120.7L478.6 116.8V116L477.8 115L475.8 113.5L475 112.3L476.7 112.7H477.3L478.1 112.3L478.8 111.7L478.9 111.1L478.7 110.6L478.6 110V109L478.4 108.7L478.5 108.8H479.1L479.7 109.2L480 109.8L480.2 109.9L480.7 108.8L480.9 107.7V106.9L481 106.1L481.7 105.3L482.4 104.8L483.6 104.6L484.2 104.1L484.3 103.7L484.2 103.1V102.5L484.5 102.3L484.6 102.2L485.8 101.7L487.8 99.9V99.4L487.4 98.8L487.3 97.9L487.4 97L487.8 96.4L488.3 96.5L488.7 97L489.4 97.4L490.4 97L489.6 95.9L489.7 93.9Z" fill="#03235A" stroke="white" stroke-width="0.5" stroke-linecap="round" stroke-linejoin="round"/>
<path d="M489.4 48.6L488.9 48.5L488.7 48.3L488.5 48.2L488.4 48.4L487.9 52.5L487.2 54.8L487.1 55.5L487.5 56L487.9 56.2L488.4 56.3L489.1 56.6L489.3 56.7L490.1 56.4L490.7 56L491.5 55.8L492.2 55.7L492.9 55.3L493.3 55.4L493.6 55.6L493.5 56.1L493.6 56.7L493.1 59.2L493 59.6L492.1 60.1L491.3 60.2L490.5 60.5L489.9 61.3L489.7 62.4L490 63.1L490.3 63.8L490.4 64.9L489.9 65.6L489.1 66.3L488.9 66.9L489.9 67.9L489.5 68L489.2 68.2L488.9 68.4L488.3 68.5L488.8 68.8L489.3 69.2L489.7 69.6L489.9 70L489.8 70.9L489.7 71.1L489.3 71.2L488.8 71.5L487.2 72L486.8 72.3L487 73L487.3 73.6L488 74.3L488.3 78L488.8 80.1L489 80.4H489.4L489.7 80.6L489.9 81.3L490.1 83.6L491 87.6L490.9 89.9L489.7 93.9L489.6 95.9L488 94.8L487.4 93.8L485.8 92.4L485.2 91.9L484.9 91.3L484.7 90.7L484.2 90.2L483.7 89.8L482.6 89.3L481.7 88.9L479.1 88.6L478 88.8L477.6 88.9L477.4 88.6L477.2 88.1L475.6 85.5L475.4 85.2H475.1L473.9 85.8L473.5 85.9L473 86L472.6 85.9L471.9 85.8L470.6 86L470.2 85.9L469.5 85L468.9 84.9L468.3 84.6L467.1 83.2L466.3 82.8H465.5L464.6 82.9L463.8 83.2L462.9 83.6L462.2 84L458.4 84.5L457.6 84.7L456.6 85.3L455.7 85.9L455.5 84.7L455.1 83.7L454.4 83.4L454.1 82.8L454.6 81.6L455.3 80.4L455.7 80.1L455.4 78.7H454.6L453.6 79L452.6 78.6L452.5 77.7L453 76.5L453.8 75.5L454.2 75L456.1 74.5L457.1 74L457.2 73.2L456.5 72.7H455.4L453.1 73.2L454.9 72L455.2 71.5L455.4 70.6L455.5 69.6L455.2 68.8L454.4 68.5L452.8 68.1L453 67.2L454 66L454.6 64.9L454.3 63.5L452.5 60.7L452.4 60.2L453.3 59.6L453.9 57.9L454.5 57.8L455 58L455.2 58.1L459.6 59.7L460.5 59.5L461.8 59L462.9 58.9L464 59L464.6 58.8L464.8 58.6L464.7 58.3L464.8 58.2L465 58L465.9 57.5L466.6 57.1L467.3 56.9L472.6 56.5L473.8 56L474.5 55.2L474.9 53.5L475.2 52.8L475.5 52.1V51.6L475.4 50.1V49.2L475.5 48.4L476.1 47.7L480.1 47.9L481.8 48.6H482.6L484.2 47.1L485 46.7L485.9 46.6L486.7 46.7L487.4 46.9L487.8 47.2L489.4 48.6Z" fill="#03235A" stroke="white" stroke-width="0.5" stroke-linecap="round" stroke-linejoin="round"/>
<path d="M516.9 412.7L529.4 421.5L532.7 424.7L533.9 427.4L535.6 430.4L537.6 433.1L538.3 434.6L538.7 435.9L539.1 439.6L539.3 440.5L540.4 442.8L542.2 445.5L543.4 447L544.4 448.2L545.8 449.1L547.7 450.1L549.9 451L554.8 452.1L555.7 452.4L556.9 453.2L557.6 454.2L558.3 455.1L560.3 458.9L568.2 468.9L566.2 471L565.4 471.1H564.4L562.6 470.1L561 468.8L559.5 467.1L557.4 463.5L556.4 462.5L555.5 462.4L554.7 462.7L554.3 463.1L552.6 465.2L551.7 465.8L550.5 466.2L546.3 466.7L545.5 467.1L544.7 467.7L541.8 470.4L510.6 431.3L503.5 425.2L493.2 412.4L500.1 408.6L501 407.9L501.7 407.2L502.2 406.6L502.6 405.7L503.4 404.7L504 404.1L504.4 403.8H505.2L506.2 404.2L507.5 405.4L508.1 406.2L508.6 407.1L509.8 409.8L510.4 410.8L511.2 411.7L512 412.4L513.1 412.8L514 413.1L516.9 412.7Z" fill="#03235A" stroke="white" stroke-width="0.5" stroke-linecap="round" stroke-linejoin="round"/>
<path d="M597.8 542.3L597.2 544.2V548.6L597 549.7L596.6 550.5L595.9 551L595.3 551.4L594 552.5L586.9 547.1L585.4 545.4L584.7 544.3L584 543.1L582.8 540.1L580.9 528.3L578.3 518.3L578.2 517L578.3 515.3L578.5 514.4L578.8 513.6L579.9 512L582.1 509.7L592.4 501.6L593.8 500L594.3 499.1L594.8 498.3L595.1 497.5L595.6 495.6L596.2 491.7L596.5 490.7L596.9 489.8L600 484.4L600.7 482.7L601 481.9L601.2 480.8V479.1L600.9 477.4L600.6 476.5L600.1 475.6L599.4 474.8L598.7 474.1L597.9 473.6L597.1 473.2L596.1 473H594.8L591.4 473.4L589.4 473.9L572.2 482L565.6 483.9L562 484.5L559.9 484.4L558.5 484.1L557.4 483.7L555.6 482.9L554.3 482.1L553.6 481.5L541.8 470.4L544.7 467.7L545.5 467.1L546.3 466.7L550.5 466.2L551.7 465.8L552.6 465.2L554.3 463.1L554.7 462.7L555.5 462.4L556.4 462.5L557.4 463.5L559.5 467.1L561 468.8L562.6 470.1L564.4 471.1H565.4L566.2 471L568.2 468.9L570.5 468.4L585.5 461.1L589.4 460.4L591.5 460.2L596.3 460.5L602.1 462.2L603.5 463L605.3 464.3L607.9 466.7L610.8 470.6L611.9 472.5L612.7 474.4L613.7 478.3L614.5 484.4L614.6 487.3L614.5 489.3L614.1 491.5L613.4 493.7L609.6 501.6L608.2 503.5L606.6 505.4L599.4 511.9L594.5 517.4L593.4 519L592.6 520.7L591.7 523.4L591.5 524.6L591.7 529L593 535.1L593.8 537.5L594.7 539.2L595.4 540.1L597.8 542.3ZM593.8 508.2L594.3 506.9L595.1 505.7V505.1L593.7 504.3L591.8 507.9L592.7 508.1L593.8 508.2Z" fill="#03235A" stroke="white" stroke-width="0.5" stroke-linecap="round" stroke-linejoin="round"/>
<path d="M466.5 346.8L466.2 354.3L466.3 356.7L466.6 357.9L467.3 360.2L467.8 361.3L468.3 362.3L469 363.1L469.7 363.8L476.2 367.6L483.8 370.8L488.5 372.3L489.5 372.8L490.7 373.6L492.3 375.1L493.2 376.3L493.9 377.5L495.1 380.9L495.7 382.1L496.2 382.9L496.7 383.4L498.5 384.4L501.5 387L506.2 391.8L507.3 393.1L509 396L516.9 412.7L514 413.1L513.1 412.8L512 412.4L511.2 411.7L510.4 410.8L509.8 409.8L508.6 407.1L508.1 406.2L507.5 405.4L506.2 404.2L505.2 403.8H504.4L504 404.1L503.4 404.7L502.6 405.7L502.2 406.6L501.7 407.2L501 407.9L500.1 408.6L493.2 412.4L483.8 393.4L482.9 392.1L479.4 388.3L478 387.1L476.8 386.3L470 383.5L466.3 381.3L456.5 372L455.3 370.6L454 368.7L447.1 353.9L446.3 351.2L446.1 348.9L446.4 345.7L448.4 346.5H449.8L452.2 346L452.9 345.9H453.4L457.7 347.7L458.5 347.8L466.5 346.8Z" fill="#03235A" stroke="white" stroke-width="0.5" stroke-linecap="round" stroke-linejoin="round"/>
<path d="M593.8 508.2L592.7 508.1L591.8 507.9L593.7 504.3L595.1 505.1V505.7L594.3 506.9L593.8 508.2Z" fill="#03235A" stroke="white" stroke-width="0.5" stroke-linecap="round" stroke-linejoin="round"/>
<path d="M591.5 90.0208C590.864 90.0208 590.255 89.7684 589.806 89.3191C589.356 88.8698 589.104 88.2604 589.104 87.625C589.104 86.9896 589.356 86.3802 589.806 85.9309C590.255 85.4816 590.864 85.2292 591.5 85.2292C592.135 85.2292 592.745 85.4816 593.194 85.9309C593.643 86.3802 593.896 86.9896 593.896 87.625C593.896 87.9396 593.834 88.2512 593.713 88.5419C593.593 88.8325 593.416 89.0966 593.194 89.3191C592.971 89.5416 592.707 89.7181 592.417 89.8385C592.126 89.9589 591.814 90.0208 591.5 90.0208ZM591.5 80.9167C589.721 80.9167 588.014 81.6234 586.756 82.8815C585.498 84.1396 584.792 85.8458 584.792 87.625C584.792 92.6563 591.5 100.083 591.5 100.083C591.5 100.083 598.208 92.6563 598.208 87.625C598.208 85.8458 597.501 84.1396 596.243 82.8815C594.985 81.6234 593.279 80.9167 591.5 80.9167Z" fill="#A00651"/>
<path d="M582.5 519.021C581.864 519.021 581.255 518.768 580.806 518.319C580.356 517.87 580.104 517.26 580.104 516.625C580.104 515.99 580.356 515.38 580.806 514.931C581.255 514.482 581.864 514.229 582.5 514.229C583.135 514.229 583.745 514.482 584.194 514.931C584.643 515.38 584.896 515.99 584.896 516.625C584.896 516.94 584.834 517.251 584.713 517.542C584.593 517.833 584.416 518.097 584.194 518.319C583.971 518.542 583.707 518.718 583.417 518.838C583.126 518.959 582.814 519.021 582.5 519.021ZM582.5 509.917C580.721 509.917 579.014 510.623 577.756 511.882C576.498 513.14 575.792 514.846 575.792 516.625C575.792 521.656 582.5 529.083 582.5 529.083C582.5 529.083 589.208 521.656 589.208 516.625C589.208 514.846 588.501 513.14 587.243 511.882C585.985 510.623 584.279 509.917 582.5 509.917Z" fill="#A00651"/>
<path d="M409.5 71.0208C408.864 71.0208 408.255 70.7684 407.806 70.3191C407.356 69.8698 407.104 69.2604 407.104 68.625C407.104 67.9896 407.356 67.3802 407.806 66.9309C408.255 66.4816 408.864 66.2292 409.5 66.2292C410.135 66.2292 410.745 66.4816 411.194 66.9309C411.643 67.3802 411.896 67.9896 411.896 68.625C411.896 68.9396 411.834 69.2512 411.713 69.5419C411.593 69.8325 411.416 70.0966 411.194 70.3191C410.971 70.5416 410.707 70.7181 410.417 70.8385C410.126 70.9589 409.814 71.0208 409.5 71.0208ZM409.5 61.9167C407.721 61.9167 406.014 62.6234 404.756 63.8815C403.498 65.1396 402.792 66.8458 402.792 68.625C402.792 73.6563 409.5 81.0833 409.5 81.0833C409.5 81.0833 416.208 73.6563 416.208 68.625C416.208 66.8458 415.501 65.1396 414.243 63.8815C412.985 62.6234 411.279 61.9167 409.5 61.9167Z" fill="#A00651"/>
<path d="M479.5 67.0208C478.864 67.0208 478.255 66.7684 477.806 66.3191C477.356 65.8698 477.104 65.2604 477.104 64.625C477.104 63.9896 477.356 63.3802 477.806 62.9309C478.255 62.4816 478.864 62.2292 479.5 62.2292C480.135 62.2292 480.745 62.4816 481.194 62.9309C481.643 63.3802 481.896 63.9896 481.896 64.625C481.896 64.9396 481.834 65.2512 481.713 65.5419C481.593 65.8325 481.416 66.0966 481.194 66.3191C480.971 66.5416 480.707 66.7181 480.417 66.8385C480.126 66.9589 479.814 67.0208 479.5 67.0208ZM479.5 57.9167C477.721 57.9167 476.014 58.6234 474.756 59.8815C473.498 61.1396 472.792 62.8458 472.792 64.625C472.792 69.6563 479.5 77.0833 479.5 77.0833C479.5 77.0833 486.208 69.6563 486.208 64.625C486.208 62.8458 485.501 61.1396 484.243 59.8815C482.985 58.6234 481.279 57.9167 479.5 57.9167Z" fill="#A00651"/>
<path d="M274.5 307.021C273.864 307.021 273.255 306.768 272.806 306.319C272.356 305.87 272.104 305.26 272.104 304.625C272.104 303.99 272.356 303.38 272.806 302.931C273.255 302.482 273.864 302.229 274.5 302.229C275.135 302.229 275.745 302.482 276.194 302.931C276.643 303.38 276.896 303.99 276.896 304.625C276.896 304.94 276.834 305.251 276.713 305.542C276.593 305.833 276.416 306.097 276.194 306.319C275.971 306.542 275.707 306.718 275.417 306.838C275.126 306.959 274.814 307.021 274.5 307.021ZM274.5 297.917C272.721 297.917 271.014 298.623 269.756 299.881C268.498 301.14 267.792 302.846 267.792 304.625C267.792 309.656 274.5 317.083 274.5 317.083C274.5 317.083 281.208 309.656 281.208 304.625C281.208 302.846 280.501 301.14 279.243 299.881C277.985 298.623 276.279 297.917 274.5 297.917Z" fill="#A00651"/>
<path d="M403.5 298.021C402.864 298.021 402.255 297.768 401.806 297.319C401.356 296.87 401.104 296.26 401.104 295.625C401.104 294.99 401.356 294.38 401.806 293.931C402.255 293.482 402.864 293.229 403.5 293.229C404.135 293.229 404.745 293.482 405.194 293.931C405.643 294.38 405.896 294.99 405.896 295.625C405.896 295.94 405.834 296.251 405.713 296.542C405.593 296.833 405.416 297.097 405.194 297.319C404.971 297.542 404.707 297.718 404.417 297.838C404.126 297.959 403.814 298.021 403.5 298.021ZM403.5 288.917C401.721 288.917 400.014 289.623 398.756 290.881C397.498 292.14 396.792 293.846 396.792 295.625C396.792 300.656 403.5 308.083 403.5 308.083C403.5 308.083 410.208 300.656 410.208 295.625C410.208 293.846 409.501 292.14 408.243 290.881C406.985 289.623 405.279 288.917 403.5 288.917Z" fill="#A00651"/>
<path d="M292.5 123.021C291.864 123.021 291.255 122.768 290.806 122.319C290.356 121.87 290.104 121.26 290.104 120.625C290.104 119.99 290.356 119.38 290.806 118.931C291.255 118.482 291.864 118.229 292.5 118.229C293.135 118.229 293.745 118.482 294.194 118.931C294.643 119.38 294.896 119.99 294.896 120.625C294.896 120.94 294.834 121.251 294.713 121.542C294.593 121.833 294.416 122.097 294.194 122.319C293.971 122.542 293.707 122.718 293.417 122.838C293.126 122.959 292.814 123.021 292.5 123.021ZM292.5 113.917C290.721 113.917 289.014 114.623 287.756 115.881C286.498 117.14 285.792 118.846 285.792 120.625C285.792 125.656 292.5 133.083 292.5 133.083C292.5 133.083 299.208 125.656 299.208 120.625C299.208 118.846 298.501 117.14 297.243 115.881C295.985 114.623 294.279 113.917 292.5 113.917Z" fill="#A00651"/>
<path d="M603.5 368.021C602.864 368.021 602.255 367.768 601.806 367.319C601.356 366.87 601.104 366.26 601.104 365.625C601.104 364.99 601.356 364.38 601.806 363.931C602.255 363.482 602.864 363.229 603.5 363.229C604.135 363.229 604.745 363.482 605.194 363.931C605.643 364.38 605.896 364.99 605.896 365.625C605.896 365.94 605.834 366.251 605.713 366.542C605.593 366.833 605.416 367.097 605.194 367.319C604.971 367.542 604.707 367.718 604.417 367.838C604.126 367.959 603.814 368.021 603.5 368.021ZM603.5 358.917C601.721 358.917 600.014 359.623 598.756 360.881C597.498 362.14 596.792 363.846 596.792 365.625C596.792 370.656 603.5 378.083 603.5 378.083C603.5 378.083 610.208 370.656 610.208 365.625C610.208 363.846 609.501 362.14 608.243 360.881C606.985 359.623 605.279 358.917 603.5 358.917Z" fill="#A00651"/>
<path d="M520.708 141.104C520.073 141.104 519.464 140.852 519.014 140.402C518.565 139.953 518.313 139.344 518.313 138.708C518.313 138.073 518.565 137.464 519.014 137.014C519.464 136.565 520.073 136.313 520.708 136.313C521.344 136.313 521.953 136.565 522.402 137.014C522.852 137.464 523.104 138.073 523.104 138.708C523.104 139.023 523.042 139.335 522.922 139.625C522.801 139.916 522.625 140.18 522.402 140.402C522.18 140.625 521.916 140.801 521.625 140.922C521.335 141.042 521.023 141.104 520.708 141.104ZM520.708 132C518.929 132 517.223 132.707 515.965 133.965C514.707 135.223 514 136.929 514 138.708C514 143.74 520.708 151.167 520.708 151.167C520.708 151.167 527.417 143.74 527.417 138.708C527.417 136.929 526.71 135.223 525.452 133.965C524.194 132.707 522.487 132 520.708 132Z" fill="#A00651"/>
<path d="M586.5 62.0208C585.864 62.0208 585.255 61.7684 584.806 61.3191C584.356 60.8698 584.104 60.2604 584.104 59.625C584.104 58.9896 584.356 58.3802 584.806 57.9309C585.255 57.4816 585.864 57.2292 586.5 57.2292C587.135 57.2292 587.745 57.4816 588.194 57.9309C588.643 58.3802 588.896 58.9896 588.896 59.625C588.896 59.9396 588.834 60.2512 588.713 60.5419C588.593 60.8325 588.416 61.0966 588.194 61.3191C587.971 61.5416 587.707 61.7181 587.417 61.8385C587.126 61.9589 586.814 62.0208 586.5 62.0208ZM586.5 52.9167C584.721 52.9167 583.014 53.6234 581.756 54.8815C580.498 56.1396 579.792 57.8458 579.792 59.625C579.792 64.6563 586.5 72.0833 586.5 72.0833C586.5 72.0833 593.208 64.6563 593.208 59.625C593.208 57.8458 592.501 56.1396 591.243 54.8815C589.985 53.6234 588.279 52.9167 586.5 52.9167Z" fill="#A00651"/>
<path d="M535.5 47.0208C534.864 47.0208 534.255 46.7684 533.806 46.3191C533.356 45.8698 533.104 45.2604 533.104 44.625C533.104 43.9896 533.356 43.3802 533.806 42.9309C534.255 42.4816 534.864 42.2292 535.5 42.2292C536.135 42.2292 536.745 42.4816 537.194 42.9309C537.643 43.3802 537.896 43.9896 537.896 44.625C537.896 44.9396 537.834 45.2512 537.713 45.5419C537.593 45.8325 537.416 46.0966 537.194 46.3191C536.971 46.5416 536.707 46.7181 536.417 46.8385C536.126 46.9589 535.814 47.0208 535.5 47.0208ZM535.5 37.9167C533.721 37.9167 532.014 38.6234 530.756 39.8815C529.498 41.1396 528.792 42.8458 528.792 44.625C528.792 49.6563 535.5 57.0833 535.5 57.0833C535.5 57.0833 542.208 49.6563 542.208 44.625C542.208 42.8458 541.501 41.1396 540.243 39.8815C538.985 38.6234 537.279 37.9167 535.5 37.9167Z" fill="#A00651"/>
<path d="M668.5 100.021C667.864 100.021 667.255 99.7684 666.806 99.3191C666.356 98.8698 666.104 98.2604 666.104 97.625C666.104 96.9896 666.356 96.3802 666.806 95.9309C667.255 95.4816 667.864 95.2292 668.5 95.2292C669.135 95.2292 669.745 95.4816 670.194 95.9309C670.643 96.3802 670.896 96.9896 670.896 97.625C670.896 97.9396 670.834 98.2512 670.713 98.5419C670.593 98.8325 670.416 99.0966 670.194 99.3191C669.971 99.5416 669.707 99.7181 669.417 99.8385C669.126 99.9589 668.814 100.021 668.5 100.021ZM668.5 90.9167C666.721 90.9167 665.014 91.6234 663.756 92.8815C662.498 94.1396 661.792 95.8458 661.792 97.625C661.792 102.656 668.5 110.083 668.5 110.083C668.5 110.083 675.208 102.656 675.208 97.625C675.208 95.8458 674.501 94.1396 673.243 92.8815C671.985 91.6234 670.279 90.9167 668.5 90.9167Z" fill="#A00651"/>
<path d="M692.708 197.104C692.073 197.104 691.464 196.852 691.014 196.402C690.565 195.953 690.313 195.344 690.313 194.708C690.313 194.073 690.565 193.464 691.014 193.014C691.464 192.565 692.073 192.313 692.708 192.313C693.344 192.313 693.953 192.565 694.402 193.014C694.852 193.464 695.104 194.073 695.104 194.708C695.104 195.023 695.042 195.335 694.922 195.625C694.801 195.916 694.625 196.18 694.402 196.402C694.18 196.625 693.916 196.801 693.625 196.922C693.335 197.042 693.023 197.104 692.708 197.104ZM692.708 188C690.929 188 689.223 188.707 687.965 189.965C686.707 191.223 686 192.929 686 194.708C686 199.74 692.708 207.167 692.708 207.167C692.708 207.167 699.417 199.74 699.417 194.708C699.417 192.929 698.71 191.223 697.452 189.965C696.194 188.707 694.487 188 692.708 188Z" fill="#A00651"/>
</svg>
